<svg width="37" height="32" viewBox="0 0 37 32" fill="none" xmlns="http://www.w3.org/2000/svg">
<path d="M15.6316 18.7301C15.6316 20.167 16.8811 21.329 18.4304 21.329C19.9798 21.329 21.2293 20.167 21.2293 18.7301C21.2293 17.2932 19.7424 16.6685 18.4304 16.0062C17.1185 15.344 15.6316 14.7193 15.6316 13.2824C15.6316 11.8455 16.8811 10.6835 18.4304 10.6835C19.9798 10.6835 21.2293 11.8455 21.2293 13.2824" stroke="#2580D2" stroke-width="1.5" stroke-miterlimit="10" stroke-linecap="round"/>
<path d="M18.418 10.6585V8.9217" stroke="#2580D2" stroke-width="1.5" stroke-miterlimit="10" stroke-linecap="round"/>
<path d="M18.418 23.0783V21.3415" stroke="#2580D2" stroke-width="1.5" stroke-miterlimit="10" stroke-linecap="round"/>
<path d="M10.671 3.16161C6.33528 5.79801 3.42399 10.5585 3.42399 16.0063H1L5.41066 22.8159L9.82132 16.0063H7.29738C7.29738 9.85882 12.2828 4.87339 18.4177 4.87339C22.1912 4.87339 25.5273 6.74761 27.5264 9.62141" stroke="#2580D2" stroke-width="1.5" stroke-miterlimit="10" stroke-linejoin="round"/>
<path d="M19.3798 1.02499C19.0549 1.01249 18.7426 1 18.4177 1C16.2311 1 14.1445 1.4748 12.2703 2.32445" stroke="#2580D2" stroke-width="1.5" stroke-miterlimit="10" stroke-linejoin="round"/>
<path d="M25.5649 2.81175C24.2529 2.09955 22.8285 1.57476 21.3167 1.28738" stroke="#2580D2" stroke-width="1.5" stroke-miterlimit="10" stroke-linejoin="round"/>
<path d="M29.5506 5.93545C28.8009 5.0983 27.9512 4.36111 27.0266 3.71138" stroke="#2580D2" stroke-width="1.5" stroke-miterlimit="10" stroke-linejoin="round"/>
<path d="M26.1769 28.8384C30.5125 26.202 33.4238 21.4415 33.4238 15.9937H35.8478L31.4372 9.18408L27.0265 15.9937H29.538C29.538 22.1412 24.5525 27.1266 18.4176 27.1266C14.6442 27.1266 11.308 25.2524 9.29639 22.3786" stroke="#2580D2" stroke-width="1.5" stroke-miterlimit="10" stroke-linejoin="round"/>
<path d="M17.4683 30.975C17.7806 31 18.1055 31 18.4179 31C20.6045 31 22.6911 30.5252 24.5653 29.688" stroke="#2580D2" stroke-width="1.5" stroke-miterlimit="10" stroke-linejoin="round"/>
<path d="M11.2708 29.1882C12.5827 29.9005 14.0071 30.4252 15.519 30.7126" stroke="#2580D2" stroke-width="1.5" stroke-miterlimit="10" stroke-linejoin="round"/>
<path d="M7.29736 26.0645C8.04705 26.9017 8.8967 27.6389 9.82131 28.2886" stroke="#2580D2" stroke-width="1.5" stroke-miterlimit="10" stroke-linejoin="round"/>
</svg>
