<svg width="317" height="310" viewBox="0 0 317 310" fill="none" xmlns="http://www.w3.org/2000/svg">
<path d="M78.1476 235.547C64.7701 237.016 -9.08141 281.077 14.7417 295.397C39.6642 310.268 78.1476 235.547 78.1476 235.547ZM216.321 195.157C246.009 223.43 294.021 234.262 294.021 207.641C294.204 181.021 216.321 195.157 216.321 195.157ZM193.048 190.2C193.048 190.2 166.11 160.459 152.549 135.123C152.549 135.123 142.47 165.048 132.757 187.079C122.862 209.11 122.862 209.11 122.862 209.11C122.862 209.11 134.956 203.051 158.78 197.177C182.786 191.302 193.048 190.2 193.048 190.2ZM141.37 91.4291C141.37 91.4291 154.198 52.1409 154.015 31.9461C153.832 11.7512 147.235 8.99737 141.37 8.99737C135.506 8.99737 127.993 15.2394 127.993 38.5553C128.176 61.6876 136.972 86.6557 141.37 91.4291ZM157.497 121.721C170.508 149.994 206.609 186.528 206.609 186.528C206.609 186.528 218.337 183.407 266.35 182.306C314.546 181.204 316.561 208.376 316.928 210.579C317.111 212.965 319.127 234.445 280.644 235.914C242.344 237.383 202.577 197.36 202.577 197.36C202.577 197.36 186.268 199.93 172.707 203.235C159.146 206.54 115.715 218.473 115.715 218.473C115.715 218.473 102.887 241.972 74.2993 279.425C45.7116 316.877 13.8254 314.123 4.66267 301.639C-5.96608 287.135 2.28036 272.815 22.2551 254.089C42.413 235.363 88.7764 219.758 88.7764 219.758C88.7764 219.758 98.3056 203.051 111.866 170.74C125.61 138.612 135.873 106.3 135.873 106.3C135.873 106.3 122.312 75.4568 119.746 49.2035C116.814 20.0127 120.113 0.185071 142.653 0.0014813C165.01 -0.182108 171.974 16.7081 172.707 45.8989C173.44 75.2732 157.497 121.721 157.497 121.721Z" fill="#4693D9"/>
</svg>
