<svg width="1600" height="164" viewBox="0 0 1600 164" fill="none" xmlns="http://www.w3.org/2000/svg">
<g opacity="0.15">
<mask id="mask0" mask-type="alpha" maskUnits="userSpaceOnUse" x="0" y="0" width="1600" height="164">
<rect width="1600" height="164" fill="#2580D2"/>
</mask>
<g mask="url(#mask0)">
<path d="M160.148 138.547C146.77 140.016 72.9186 184.077 96.7417 198.397C121.664 213.268 160.148 138.547 160.148 138.547ZM298.321 98.1571C328.009 126.43 376.021 137.262 376.021 110.641C376.204 84.0207 298.321 98.1571 298.321 98.1571ZM275.048 93.2002C275.048 93.2002 248.11 63.4587 234.549 38.1234C234.549 38.1234 224.47 68.0484 214.757 90.0792C204.862 112.11 204.862 112.11 204.862 112.11C204.862 112.11 216.956 106.051 240.78 100.177C264.786 94.3017 275.048 93.2002 275.048 93.2002ZM223.37 -5.57095C223.37 -5.57095 236.198 -44.8591 236.015 -65.0539C235.832 -85.2488 229.235 -88.0026 223.37 -88.0026C217.506 -88.0026 209.993 -81.7606 209.993 -58.4447C210.176 -35.3124 218.972 -10.3443 223.37 -5.57095ZM239.497 24.7213C252.508 52.9941 288.609 89.5284 288.609 89.5284C288.609 89.5284 300.337 86.4074 348.35 85.3059C396.546 84.2043 398.561 111.376 398.928 113.579C399.111 115.965 401.127 137.445 362.644 138.914C324.344 140.383 284.577 100.36 284.577 100.36C284.577 100.36 268.268 102.93 254.707 106.235C241.146 109.54 197.715 121.473 197.715 121.473C197.715 121.473 184.887 144.972 156.299 182.425C127.712 219.877 95.8254 217.123 86.6627 204.639C76.0339 190.135 84.2804 175.815 104.255 157.089C124.413 138.363 170.776 122.758 170.776 122.758C170.776 122.758 180.306 106.051 193.866 73.7397C207.61 41.6116 217.873 9.2998 217.873 9.2998C217.873 9.2998 204.312 -21.5432 201.746 -47.7965C198.814 -76.9873 202.113 -96.8149 224.653 -96.9985C247.01 -97.1821 253.974 -80.2919 254.707 -51.1011C255.44 -21.7268 239.497 24.7213 239.497 24.7213Z" fill="white"/>
</g>
</g>
</svg>
