<svg width="202" height="43" viewBox="0 0 202 43" fill="none" xmlns="http://www.w3.org/2000/svg">
<path d="M37.5675 5.20013C35.4547 3.07155 31.8683 2.78774 27.6782 4.04715C30.3414 3.62143 32.5607 4.04715 33.9988 5.48394C37.9226 9.42182 34.3717 19.3729 26.0803 27.7099C17.7889 36.0468 7.89957 39.6122 3.9758 35.6743C1.24159 32.9249 2.14707 27.2487 5.75126 21.2355C0.0520297 29.3241 -1.75894 37.4127 1.89851 41.0845C6.55022 45.7674 18.3215 41.5279 28.1576 31.63C38.0114 21.7144 42.2192 9.88301 37.5675 5.20013Z" fill="white"/>
<path d="M39.8579 4.79195C41.1718 6.42386 41.5624 8.62339 41.1363 11.16C42.4679 7.4172 42.3968 4.13563 40.5859 2.09574C36.8397 -2.16142 26.9858 0.286446 17.8245 7.45267C27.0746 1.7055 36.2893 0.375138 39.8579 4.79195Z" fill="#2580D2"/>
<path d="M52.517 29.377C54.9849 29.377 56.8492 29.8205 58.1275 30.6897C59.4058 31.5588 60.045 32.836 60.045 34.5389C60.045 35.7628 59.8497 36.8803 59.4413 37.9268C59.033 38.9734 58.376 39.8603 57.4883 40.6231C56.6006 41.3858 55.4465 41.9712 54.0262 42.3791C52.6058 42.8048 50.9014 43 48.8951 43H27.7671L33.2888 37.1641H50.493C51.434 37.1641 52.1264 37.0045 52.5703 36.6852C52.9964 36.3659 53.2095 35.887 53.2095 35.2306C53.2095 34.326 52.4993 33.8825 51.0789 33.8825H38.7039C36.1295 33.8825 34.2298 33.3859 33.0402 32.3925C31.8329 31.3992 31.247 30.0688 31.247 28.4192C31.247 27.2662 31.4423 26.2019 31.8507 25.2086C32.259 24.233 32.9159 23.3638 33.8037 22.6365C34.6914 21.9093 35.8454 21.3239 37.2481 20.9337C38.6507 20.5257 40.3374 20.3306 42.3436 20.3306H62.0513L56.4586 26.2196H40.7102C39.7515 26.2196 39.0768 26.3615 38.6329 26.6454C38.2068 26.9292 37.9938 27.4081 37.9938 28.0822C37.9938 28.9336 38.7217 29.377 40.1598 29.377H52.517Z" fill="white"/>
<path d="M7.10034 15.2757H17.0252L14.3442 32.9252L22.2628 28.0827L24.0915 15.2757H32.4007L33.9986 9.3689H11.9651L7.10034 15.2757Z" fill="#2580D2"/>
<path d="M112.902 38.1672C111.692 37.5042 110.716 36.6074 110.014 35.4375C109.311 34.2677 108.96 32.9419 108.96 31.4601C108.96 29.9783 109.311 28.6524 110.014 27.4826C110.716 26.3127 111.692 25.4159 112.902 24.7529C114.112 24.09 115.517 23.7781 117.039 23.7781C118.327 23.7781 119.498 24.012 120.552 24.441C121.606 24.9089 122.464 25.5328 123.167 26.3907L120.942 28.4185C119.927 27.2486 118.678 26.6637 117.195 26.6637C116.258 26.6637 115.439 26.8587 114.736 27.2876C113.995 27.6776 113.448 28.2625 113.058 28.9644C112.668 29.7053 112.433 30.5242 112.433 31.4211C112.433 32.3569 112.629 33.1758 113.058 33.8777C113.448 34.6186 114.034 35.1646 114.736 35.5545C115.478 35.9445 116.298 36.1784 117.195 36.1784C118.678 36.1784 119.927 35.5935 120.942 34.4237L123.167 36.4514C122.464 37.3093 121.567 37.9722 120.513 38.4401C119.459 38.9081 118.288 39.103 117 39.103C115.478 39.142 114.112 38.8301 112.902 38.1672Z" fill="white"/>
<path d="M136.906 36.1392V38.9078H125.392V24.0508H136.633V26.8194H128.826V30.056H135.735V32.7466H128.826V36.1782H136.906V36.1392Z" fill="white"/>
<path d="M149.591 24.6743C150.567 25.1032 151.309 25.7271 151.816 26.546C152.324 27.3649 152.597 28.3008 152.597 29.4316C152.597 30.5235 152.324 31.4593 151.816 32.2782C151.309 33.0971 150.528 33.7211 149.591 34.15C148.616 34.5789 147.484 34.8129 146.157 34.8129H143.151V38.9074H139.717V24.0503H146.157C147.484 24.0114 148.616 24.2453 149.591 24.6743ZM148.303 31.3034C148.85 30.8744 149.123 30.2115 149.123 29.3926C149.123 28.5737 148.85 27.9108 148.303 27.4819C147.757 27.0529 146.976 26.819 145.961 26.819H143.151V31.9663H145.961C146.976 31.9663 147.796 31.7713 148.303 31.3034Z" fill="white"/>
<path d="M167.272 32.4348C167.74 33.0588 168.014 33.7997 168.014 34.6965C168.014 36.0224 167.506 37.0362 166.53 37.7771C165.516 38.518 164.11 38.869 162.237 38.869H154.899V24.012H161.847C163.564 24.012 164.93 24.3629 165.906 25.0258C166.882 25.6887 167.35 26.6246 167.35 27.8724C167.35 28.6133 167.155 29.2763 166.804 29.8222C166.452 30.3681 165.906 30.836 165.242 31.148C166.101 31.421 166.804 31.8499 167.272 32.4348ZM158.295 30.1731H161.495C162.237 30.1731 162.822 30.0172 163.213 29.7052C163.603 29.3932 163.798 28.9643 163.798 28.3404C163.798 27.7555 163.603 27.3265 163.213 27.0146C162.822 26.7026 162.276 26.5466 161.534 26.5466H158.334V30.1731H158.295ZM164.501 34.4236C164.501 33.1757 163.681 32.5908 162.081 32.5908H158.295V36.3343H162.081C163.72 36.3343 164.501 35.7104 164.501 34.4236Z" fill="white"/>
<path d="M170.746 24.012H174.181V33.6827L181.284 24.012H184.524V38.869H181.128V29.2373L174.024 38.908H170.785V24.012H170.746Z" fill="white"/>
<path d="M191.12 38.1667C189.91 37.5038 188.934 36.6069 188.232 35.437C187.529 34.2672 187.178 32.9414 187.178 31.4596C187.178 29.9778 187.529 28.6519 188.232 27.4821C188.934 26.3122 189.91 25.4154 191.12 24.7525C192.33 24.0895 193.735 23.7776 195.257 23.7776C196.545 23.7776 197.716 24.0116 198.77 24.4405C199.824 24.9084 200.683 25.5324 201.385 26.3902L199.16 28.418C198.146 27.2481 196.897 26.6632 195.413 26.6632C194.477 26.6632 193.657 26.8582 192.955 27.2871C192.213 27.6771 191.667 28.262 191.276 28.9639C190.886 29.7048 190.652 30.5237 190.652 31.4206C190.652 32.3564 190.847 33.1753 191.276 33.8772C191.667 34.6181 192.252 35.1641 192.955 35.554C193.696 35.944 194.516 36.1779 195.413 36.1779C196.897 36.1779 198.146 35.593 199.16 34.4232L201.385 36.4509C200.683 37.3088 199.785 37.9717 198.731 38.4396C197.677 38.9076 196.506 39.1025 195.218 39.1025C193.696 39.1415 192.33 38.8296 191.12 38.1667Z" fill="white"/>
<path d="M84.4095 26.8196H79.6477V38.869H76.252V26.8196H71.4902V24.012H84.4095V26.8196Z" fill="#2580D2"/>
<path d="M89.2881 38.1667C88.0781 37.5038 87.1023 36.6069 86.3998 35.437C85.6972 34.2672 85.3459 32.9414 85.3459 31.4596C85.3459 29.9778 85.6972 28.6519 86.3998 27.4821C87.1023 26.3122 88.0781 25.4154 89.2881 24.7525C90.498 24.0895 91.9031 23.7776 93.4253 23.7776C94.7134 23.7776 95.8843 24.0116 96.9381 24.4405C97.992 24.9084 98.8506 25.5324 99.5532 26.3902L97.3284 28.418C96.3136 27.2481 95.0646 26.6632 93.5815 26.6632C92.6447 26.6632 91.8251 26.8582 91.1225 27.2871C90.3809 27.6771 89.8345 28.262 89.4442 28.9639C89.0539 29.7048 88.8197 30.5237 88.8197 31.4206C88.8197 32.3564 89.0149 33.1753 89.4442 33.8772C89.8345 34.6181 90.42 35.1641 91.1225 35.554C91.8641 35.944 92.6838 36.1779 93.5815 36.1779C95.0646 36.1779 96.3136 35.593 97.3284 34.4232L99.5532 36.4509C98.8506 37.3088 97.9529 37.9717 96.8991 38.4396C95.8453 38.9076 94.6743 39.1025 93.3863 39.1025C91.8641 39.1415 90.498 38.8296 89.2881 38.1667Z" fill="#2580D2"/>
<path d="M100.919 31.5767H106.93V34.2283H100.919V31.5767Z" fill="#2580D2"/>
</svg>
