<?xml version="1.0" encoding="utf-8"?><svg viewBox="0 0 255 172" xmlns="http://www.w3.org/2000/svg" xmlns:xlink="http://www.w3.org/1999/xlink"><style>:root>svg{display:none}:root>svg:target{display:block}</style><svg fill="none" viewBox="0 0 32 32" id="adv-3" xmlns="http://www.w3.org/2000/svg"><path d="M30.32 16.006v3.402h-8.178v-7.497h6.136M30.32 23.503h-8.178V31h8.177v-7.497z" stroke="#2580D2" stroke-width="1.5" stroke-miterlimit="10" stroke-linecap="round" stroke-linejoin="round"/><path d="M24.183 15.325l2.042 2.042L31 11.91M30.32 5.094v3.403h-8.178V1h6.136" stroke="#2580D2" stroke-width="1.5" stroke-miterlimit="10" stroke-linecap="round" stroke-linejoin="round"/><path d="M24.183 4.414l2.042 2.042L31 1M11.911 14.633c3.052 0 5.456-2.228 5.456-5.455V6.456C17.367 3.228 14.963 1 11.91 1 8.86 1 6.456 3.228 6.456 6.456v2.722c0 3.238 2.404 5.455 5.455 5.455zM19.408 18.53c-2.393-1.24-5.521-1.844-7.497-1.844C8.321 16.686 1 18.673 1 22.822v5.456" stroke="#2580D2" stroke-width="1.5" stroke-miterlimit="10" stroke-linecap="round" stroke-linejoin="round"/></svg><svg fill="none" viewBox="0 0 255 172" id="air-conditioning" xmlns="http://www.w3.org/2000/svg"><path d="M188.353 99.53h31.323c18.971 0 34.412-15.442 34.412-34.412V15.706C254.088 7.618 247.47 1 239.382 1H15.706C7.618 1 1 7.618 1 15.706V64.97c0 19.118 15.441 34.56 34.412 34.56h27.94" stroke="#2580D2" stroke-width="1.5" stroke-miterlimit="10"/><path d="M20.559 81.294c0 3.235 2.647 5.735 5.735 5.735h202.353c3.235 0 5.735-2.647 5.735-5.735v-9.118c0-3.235-2.647-5.735-5.735-5.735H26.294c-3.235 0-5.735 2.647-5.735 5.735v9.118zM239.823 21.147a10.544 10.544 0 00-10.588-10.588 10.544 10.544 0 00-10.588 10.588 10.544 10.544 0 0010.588 10.588c5.882 0 10.588-4.853 10.588-10.588zM231.588 54.088H23.5M76.882 92.912c-2.353 4.412-4.559 9.412-4.559 18.529 0 10 2.648 15.147 5.295 20 2.353 4.412 4.558 8.677 4.558 17.206 0 8.53-2.206 12.794-4.558 17.206-.883 1.618-1.765 3.235-2.5 5.147M110.559 92.912c-2.353 4.412-4.559 9.412-4.559 18.529 0 10 2.647 15.147 5.294 20 2.353 4.412 4.559 8.677 4.559 17.206 0 8.53-2.206 12.794-4.559 17.206-.882 1.618-1.764 3.235-2.5 5.147M143.794 92.912c-2.353 4.412-4.559 9.412-4.559 18.529 0 10 2.647 15.147 5.294 20 2.353 4.412 4.559 8.677 4.559 17.206 0 8.53-2.206 12.794-4.559 17.206-.882 1.618-1.764 3.235-2.5 5.147M176.882 92.912c-2.353 4.412-4.559 9.412-4.559 18.529 0 10 2.647 15.147 5.294 20 2.353 4.412 4.559 8.677 4.559 17.206 0 8.53-2.206 12.794-4.559 17.206-.882 1.618-1.764 3.235-2.5 5.147" stroke="#2580D2" stroke-width="1.5" stroke-miterlimit="10"/><path d="M32.483 13.143c-.87-.877-2.349-.994-4.075-.475 1.097-.176 2.012 0 2.604.592 1.618 1.623.154 5.724-3.263 9.16s-7.493 4.906-9.11 3.283c-1.127-1.133-.754-3.473.731-5.951-2.349 3.334-3.095 6.667-1.588 8.18 1.918 1.93 6.77.183 10.823-3.896 4.061-4.087 5.796-8.963 3.878-10.893z" fill="#2580D2"/><path d="M33.427 12.975c.542.673.703 1.58.527 2.625.55-1.543.52-2.896-.227-3.736-1.543-1.755-5.605-.746-9.38 2.208 3.812-2.37 7.61-2.917 9.08-1.097zM38.645 23.108c1.017 0 1.785.182 2.312.54.527.359.79.885.79 1.587 0 .505-.08.965-.248 1.396-.169.432-.44.797-.805 1.112-.366.314-.842.555-1.427.723-.586.176-1.288.256-2.115.256h-8.708l2.276-2.405h7.09c.388 0 .674-.066.857-.197.175-.132.263-.33.263-.6 0-.373-.293-.555-.878-.555h-5.1c-1.061 0-1.844-.205-2.335-.615-.497-.409-.739-.957-.739-1.637 0-.475.08-.914.25-1.323.167-.402.438-.76.804-1.06.366-.3.841-.541 1.42-.702.578-.168 1.273-.249 2.1-.249h8.122l-2.305 2.427h-6.49c-.396 0-.674.059-.857.176-.175.117-.263.314-.263.592 0 .35.3.534.893.534h5.093z" fill="#2580D2"/><path d="M19.927 17.296h4.09l-1.105 7.274 3.264-1.996.753-5.278h3.425l.659-2.435H21.93l-2.005 2.435zM63.532 26.73a3.081 3.081 0 01-1.19-1.124 3.121 3.121 0 01-.435-1.64c0-.61.145-1.157.435-1.639a3.08 3.08 0 011.19-1.125c.499-.273 1.078-.402 1.705-.402.531 0 1.014.097 1.448.273.434.193.788.45 1.078.804l-.917.836c-.419-.482-.933-.723-1.544-.723-.387 0-.724.08-1.014.257-.306.16-.53.401-.692.69a2.15 2.15 0 00-.257 1.013c0 .386.08.724.257 1.013.161.305.403.53.692.69.306.162.644.258 1.014.258.61 0 1.125-.241 1.544-.723l.917.835c-.29.354-.66.627-1.094.82-.434.193-.917.273-1.448.273-.627.017-1.19-.112-1.689-.385zM73.425 25.895v1.14H68.68v-6.123h4.633v1.141h-3.218v1.334h2.848v1.11h-2.848v1.414h3.33v-.017zM78.653 21.17c.402.176.708.433.917.77.21.338.322.724.322 1.19 0 .45-.113.836-.322 1.173-.209.338-.53.595-.917.772-.402.177-.868.273-1.415.273h-1.239v1.688h-1.415v-6.124h2.654a3.23 3.23 0 011.415.257zm-.53 2.732c.225-.177.337-.45.337-.788 0-.337-.112-.61-.337-.788-.226-.176-.547-.273-.966-.273H76v2.122h1.158c.419 0 .756-.08.966-.273zM85.94 24.368c.194.257.306.562.306.932 0 .546-.209.964-.611 1.27-.418.305-.998.45-1.77.45h-3.024v-6.124h2.863c.708 0 1.271.145 1.673.418.403.273.596.66.596 1.173 0 .306-.08.579-.226.804-.144.225-.37.418-.643.546.354.113.643.29.837.53zm-3.7-.932h1.32c.305 0 .547-.065.707-.193.161-.129.242-.306.242-.563 0-.24-.08-.418-.242-.546-.16-.129-.386-.193-.691-.193h-1.32v1.495h-.015zm2.558 1.752c0-.515-.338-.756-.997-.756h-1.56v1.543h1.56c.676 0 .997-.257.997-.788zM87.372 20.896h1.416v3.986l2.928-3.986h1.335v6.124h-1.4v-3.97l-2.927 3.986h-1.336v-6.14h-.016zM95.77 26.73a3.081 3.081 0 01-1.191-1.125 3.121 3.121 0 01-.434-1.64c0-.61.144-1.156.434-1.638.29-.483.692-.852 1.19-1.125.499-.274 1.078-.402 1.705-.402.531 0 1.014.096 1.448.273.434.193.788.45 1.078.804l-.917.835c-.418-.482-.933-.723-1.544-.723-.386 0-.724.08-1.014.257-.305.161-.53.402-.691.691a2.15 2.15 0 00-.258 1.013c0 .386.08.723.258 1.012.16.306.402.53.691.691.306.161.644.258 1.014.258.611 0 1.126-.242 1.544-.724l.917.836c-.29.354-.66.627-1.094.82-.434.193-.917.273-1.448.273-.627.016-1.19-.113-1.689-.386zM51.79 22.053h-1.963v4.967h-1.4v-4.966h-1.962v-1.158h5.324v1.157zM53.8 26.73a3.081 3.081 0 01-1.19-1.125 3.121 3.121 0 01-.435-1.64c0-.61.145-1.156.434-1.638.29-.483.692-.852 1.19-1.125.5-.274 1.079-.402 1.706-.402.53 0 1.013.096 1.448.273.434.193.788.45 1.078.804l-.917.835c-.419-.482-.933-.723-1.545-.723-.386 0-.724.08-1.013.257-.306.161-.531.402-.692.691-.16.306-.257.643-.257 1.013 0 .386.08.723.257 1.012.161.306.402.53.692.691.306.161.643.258 1.013.258.612 0 1.126-.242 1.545-.724l.917.836c-.29.354-.66.627-1.094.82-.435.193-.917.273-1.448.273-.627.016-1.19-.113-1.69-.386zM58.594 24.014h2.477v1.093h-2.477v-1.093z" fill="#2580D2"/></svg><svg fill="none" viewBox="0 0 245 30" id="almacom" xmlns="http://www.w3.org/2000/svg"><path d="M57.408 29.346l-12.065.003-.413-.006-.44-.017-.45-.032-.461-.043-.472-.063-.479-.078-.486-.098-.492-.12-.495-.14-.495-.162-.497-.19-.497-.215-.492-.247-.484-.274-.479-.306-.468-.34-.457-.375-.44-.407-.421-.443-.4-.48-.377-.518-.355-.55-.323-.588-.296-.622-.264-.66-.234-.695-.198-.73-.166-.766-.128-.804-.096-.84-.055-.875-.021-.9V.635h6.961v16.14l.01.58.034.527.05.485.068.448.083.41.096.376.11.339.117.308.127.278.133.251.14.226.147.202.15.181.157.163.158.151.167.132.172.122.18.112.183.098.194.09.197.08.206.07.209.064.213.053.218.047.225.037.22.03.225.024.224.016.224.012.218.006.21.002h4.86l.422-.002h6.59l-.002 6.653zM216.988 6.843l-.276-.065-.295-.051-.313-.04-.327-.023-.339-.008-.52.016-.463.049-.422.073-.38.098-.344.119-.31.137-.281.153-.257.172-.238.183-.215.2-.203.215-.185.228-.172.244-.156.26-.147.27-.129.276-.115.288-.103.293-.092.295-.078.298-.068.296-.057.29-.044.283-.037.272-.028.26-.02.246-.017.227-.007.205-.006.184-.002.16-.003.14v16.307h-6.958V.648h6.773v.843l.268-.155.276-.153.281-.14.284-.132.286-.122.292-.112.292-.103.294-.094.296-.083.297-.073.3-.066.299-.057.302-.048.302-.038.302-.029.302-.022.302-.012.305-.005.548.01.536.03.522.049.506.067.493.085.474.104.46.116.443.136.43.147.414.16.398.174.379.184.366.198.35.205.334.212.318.22.301.226.289.233.273.235.258.24.245.24.229.241.084.093.046-.051.269-.273.278-.26.284-.255.294-.241.3-.233.306-.223.313-.21.32-.203.326-.189.333-.178.335-.169.344-.158.347-.148.35-.134.357-.125.36-.111.364-.101.366-.091.37-.078.373-.068.375-.053.377-.044.38-.03.383-.017.383-.008.442.008.453.023.466.041.473.063.484.077.492.099.496.122.499.145.503.166.501.194.503.22.5.246.497.278.487.306.482.337.469.367.454.403.44.435.422.472.401.502.378.54.354.573.328.606.297.642.268.677.234.71.203.744.169.78.133.815.096.847.057.884.021.905v16.166h-6.961V13.218l-.013-.584-.031-.529-.052-.492-.07-.46-.089-.426-.101-.395-.114-.365-.128-.335-.135-.308-.147-.282-.153-.26-.161-.238-.17-.217-.174-.2-.18-.182-.184-.166-.193-.153-.195-.14-.2-.126-.207-.114-.21-.104-.214-.091-.213-.08-.221-.073-.219-.062-.218-.05-.216-.044-.214-.031-.211-.025-.206-.018-.197-.008-.193-.006-.146.003-.146.005-.146.011-.146.015-.142.018-.144.023-.143.029-.14.031-.141.033-.138.037-.135.041-.138.048-.133.046-.133.052-.127.052-.127.06-.126.06-.12.059-.119.064-.117.068-.112.067-.107.07-.109.072-.102.073-.193.15-.088.076-.086.078-.08.074-.076.078-.073.075-.063.073-.109.135-.101.13-.092.131-.086.134-.08.132-.073.134-.068.137-.062.137-.057.137-.055.144-.049.142-.044.146-.042.146-.036.152-.032.15-.031.153-.027.155-.02.16-.021.159-.015.16-.013.164-.014.166-.007.163-.008.169-.005.166-.005.342v.17l-.003.172v.17l.003.174v16.37h-6.961V13.209l-.005-.41-.019-.389-.028-.378-.039-.366-.05-.354-.059-.34-.071-.33-.081-.316-.088-.303-.099-.288-.109-.274-.118-.26-.125-.246-.133-.23-.14-.219-.148-.204-.157-.192-.161-.179-.169-.166-.18-.153-.187-.141-.197-.134-.209-.121-.221-.109-.232-.101-.247-.088-.26-.075zm-31.957-.179l-.432.033-.421.053-.412.07-.4.093-.388.108-.38.127-.367.145-.357.164-.346.18-.333.193-.324.213-.306.225-.3.241-.283.257-.274.272-.26.283-.245.3-.231.312-.219.323-.2.34-.19.35-.172.36-.157.373-.138.387-.122.393-.107.407-.085.417-.07.426-.05.435-.028.446-.011.451.011.453.028.444.05.436.07.425.085.414.104.405.125.393.138.384.157.37.172.36.187.348.203.334.216.325.232.309.245.297.257.283.273.267.284.254.3.241.309.226.32.207.334.194.346.18.357.16.366.142.38.127.392.109.4.091.411.072.424.053.432.03.444.01.445-.01.432-.03.424-.053.411-.072.401-.091.39-.109.381-.126.366-.143.358-.16.345-.18.334-.194.32-.207.309-.226.3-.24.283-.255.271-.266.26-.284.246-.297.231-.309.216-.325.203-.334.187-.347.172-.36.156-.371.139-.383.121-.394.107-.405.087-.414.07-.425.049-.436.029-.444.01-.453-.01-.453-.029-.444-.049-.435-.071-.426-.086-.417-.107-.406-.121-.395-.139-.387-.156-.372-.172-.36-.187-.35-.203-.34-.219-.323-.231-.312-.245-.3-.26-.283-.274-.272-.283-.257-.297-.24-.313-.23-.32-.209-.333-.194-.346-.18-.356-.163-.368-.145-.38-.127-.387-.108-.402-.094-.411-.069-.422-.053-.431-.033-.445-.01-.444.01zm1.227-6.6l.773.055.76.094.75.126.734.16.718.198.705.23.688.263.669.292.651.324.63.358.611.383.588.413.568.44.542.47.521.492.494.518.466.542.442.565.414.588.385.61.357.632.326.649.293.668.263.687.229.702.198.72.161.735.131.746.091.762.054.772.019.783-.019.785-.054.773-.094.76-.128.749-.164.733-.198.718-.231.702-.265.687-.297.666-.328.649-.356.63-.388.608-.413.587-.446.562-.47.542-.496.515-.518.493-.544.463-.568.439-.591.413-.609.38-.63.353-.651.324-.669.293-.684.259-.703.228-.719.196-.731.16-.745.129-.757.09-.768.054-.78.019-.779-.019-.768-.054-.757-.09-.745-.128-.731-.16-.719-.197-.7-.229-.687-.258-.669-.293-.649-.325-.632-.352-.609-.38-.591-.413-.568-.439-.544-.464-.52-.492-.494-.515-.469-.542-.443-.562-.417-.587-.387-.609-.357-.63-.328-.648-.297-.666-.263-.687-.233-.702-.198-.719-.164-.733-.128-.748-.093-.76-.055-.773-.021-.785.021-.783.055-.773.09-.76.128-.747.164-.734.198-.72.228-.703.263-.687.294-.668.327-.649.356-.632.385-.61.413-.588.444-.565.465-.542.494-.518.522-.495.541-.467.568-.44.591-.413.609-.383.633-.358.65-.324.666-.292.691-.263.701-.23.722-.197.732-.16.749-.128.76-.093.773-.055.782-.018.783.018zm-18.099 18.432l-1.362 2.877-.198.395-.211.393-.224.397-.239.394-.252.393-.269.395-.286.391-.3.387-.314.383-.33.377-.35.37-.367.363-.383.354-.4.346-.419.334-.437.32-.456.31-.474.292-.492.28-.513.263-.529.243-.549.226-.567.204-.585.187-.602.16-.622.14-.64.117-.656.093-.677.065-.693.042-.713.013-.885-.021-.864-.062-.846-.107-.823-.142-.799-.185-.776-.22-.749-.259-.73-.293-.699-.327-.674-.357-.647-.39-.621-.42-.591-.445-.562-.471-.537-.497-.504-.52-.477-.541-.445-.563-.417-.58-.388-.596-.356-.614-.326-.625-.296-.64-.265-.651-.238-.664-.203-.67-.174-.678-.143-.686-.11-.69-.08-.695-.048-.697-.018-.7.016-.653.05-.656.075-.655.109-.66.138-.657.17-.653.198-.65.229-.646.26-.64.289-.63.317-.622.349-.61.377-.598.409-.583.44-.569.469-.549.5-.53.528-.51.56-.486.588-.462.617-.436.648-.406.675-.376.704-.342.732-.309.76-.272.787-.236.809-.197.838-.153.862-.11.885-.071.9-.021.615.01.604.032.593.051.586.076.577.093.568.115.56.132.549.155.539.173.528.192.518.213.506.228.494.248.484.265.471.285.456.3.445.317.432.332.42.35.403.366.391.377.374.398.362.406.344.423.33.435.315.449.3.461.283.475.266.484.25.498.234.508 1.228 2.926h-7.552l-.723-1.34-.213-.355-.222-.33-.229-.302-.231-.285-.24-.263-.241-.24-.248-.226-.25-.207-.253-.19-.254-.175-.258-.159-.255-.147-.258-.133-.255-.12-.258-.105-.253-.099-.25-.085-.244-.073-.239-.067-.235-.057-.224-.047-.218-.039-.208-.034-.201-.026-.184-.02-.172-.016-.162-.01-.146-.008-.13-.005-.114-.003h-.084l-.476.011-.451.033-.44.052-.429.076-.416.09-.406.112-.394.129-.382.148-.373.167-.358.18-.344.197-.336.212-.32.229-.308.243-.293.257-.282.273-.268.285-.252.298-.238.308-.224.324-.207.334-.192.345-.175.358-.159.368-.143.376-.125.389-.107.396-.089.404-.067.416-.052.419-.029.43-.01.436.01.45.034.44.052.434.076.423.093.414.115.404.133.397.151.384.169.376.185.362.202.354.219.341.234.327.25.319.263.303.277.288.291.278.304.258.316.249.325.23.338.216.349.197.359.184.367.163.377.148.386.13.391.108.4.094.406.069.414.053.419.033.435.01.26-.005.269-.01.268-.02.263-.03.262-.038.26-.044.259-.052.255-.062.249-.067.25-.078.245-.083.242-.09.237-.102.234-.106.232-.114.226-.122.222-.13.219-.137.213-.145.208-.153.206-.158.2-.169.193-.173.19-.182.184-.189.18-.197.172-.202.167-.213.164-.22.153-.226.151-.235.672-1.136h7.591zM119.336 6.664l-.418.031-.412.052-.409.072-.399.091-.389.109-.383.126-.375.148-.364.164-.357.18-.346.198-.336.213-.323.23-.315.244-.299.262-.289.275-.273.288-.26.302-.248.317-.232.329-.218.342-.2.352-.185.369-.167.375-.149.39-.132.4-.115.411-.093.42-.074.43-.054.44-.034.452-.011.458.011.446.034.436.057.427.075.418.097.406.115.4.135.386.153.375.172.367.188.357.206.343.221.334.236.318.253.309.266.295.28.283.295.266.304.257.32.239.331.226.341.21.352.192.362.178.369.159.378.142.385.126.393.107.398.088.406.07.412.05.413.03.42.01.429-.01.421-.03.417-.055.406-.07.398-.091.391-.111.38-.127.372-.146.362-.163.354-.178.344-.197.33-.214.32-.224.307-.244.298-.257.283-.27.268-.285.258-.295.24-.308.226-.322.214-.332.195-.341.18-.356.161-.363.145-.373.128-.38.109-.393.091-.399.074-.407.048-.412.032-.422.013-.43-.011-.449-.031-.444-.052-.432-.073-.427-.091-.418-.107-.41-.128-.398-.145-.39-.161-.379-.18-.366-.195-.356-.21-.345-.227-.334-.243-.319-.254-.306-.271-.293-.284-.28-.294-.264-.31-.249-.323-.233-.333-.219-.343-.2-.354-.185-.368-.168-.377-.151-.388-.133-.398-.11-.409-.096-.417-.073-.426-.055-.437-.033-.446-.01-.427.01zM114.604.821l.794-.231.819-.193.847-.151.874-.111.901-.068.906-.02h.247l.248.004.265.008.278.014.295.015.307.026.32.031.331.038.341.047.353.06.363.067.372.08.378.094.384.106.391.122.396.135.401.153.403.168.406.19.409.205.406.224.406.25.406.266.198.146V.645h6.773v28.748h-6.773v-2.07l-.086.066-.328.24-.341.235-.353.226-.374.22-.382.209-.401.2-.414.187-.429.179-.443.163-.457.15-.474.135-.487.12-.503.103-.515.085-.532.07-.543.05-.56.028-.578.011-.783-.019-.779-.052-.768-.09-.754-.122-.745-.158-.729-.192-.713-.223-.7-.256-.68-.288-.664-.319-.645-.35-.625-.379-.601-.409-.583-.435-.557-.464-.533-.493-.512-.518-.48-.545-.456-.567-.429-.594-.399-.614-.367-.64-.339-.659-.304-.68-.274-.7-.236-.72-.203-.735-.169-.755-.134-.769-.096-.786-.056-.798-.019-.811.013-.646.044-.648.073-.65.105-.651.129-.65.161-.649.19-.645.222-.638.25-.634.278-.625.31-.618.339-.606.372-.593.398-.58.433-.563.462-.547.492-.53.523-.505.558-.481.586-.46.617-.433.645-.4.68-.372.705-.34.737-.306.765-.269zM74.043 6.843l-.28-.065-.294-.051-.309-.04-.33-.023-.338-.008-.52.016-.465.049-.42.073-.38.098-.342.119-.31.137-.284.153-.258.172-.234.183-.219.2-.2.215-.188.228-.169.244-.159.26-.143.266-.13.28-.117.288-.104.293-.091.295-.079.298-.065.296-.057.29-.047.283-.036.272-.026.26-.02.246-.017.227-.01.205-.005.184-.003.16v16.447h-6.96V.648h6.776v.843l.265-.155.279-.153.278-.14.284-.132.29-.122.288-.112.292-.103.297-.091.293-.086.298-.073.299-.066.301-.057.3-.048.302-.038.302-.029.302-.022.302-.012.305-.005.55.01.536.03.522.049.505.067.492.085.477.104.458.116.445.136.427.147.413.16.4.174.38.184.366.198.349.205.333.212.318.22.305.226.285.233.274.235.26.24.242.24.232.241.083.093.045-.051.268-.273.278-.26.287-.255.291-.241.3-.233.306-.223.313-.21.32-.203.328-.189.33-.178.337-.169.343-.158.35-.148.35-.134L85.94.6l.36-.111.364-.101.367-.091.37-.078.374-.068.376-.053.377-.044.38-.03.38-.017.382-.008.443.008.456.023.463.041.477.063.48.077.493.099.497.122.497.145.503.166.505.194.502.22.5.246.495.278.489.306.48.337.468.367.455.403.44.435.422.472.4.502.377.54.355.573.328.606.297.642.268.677.237.71.203.744.167.78.132.815.096.847.058.884.021.905v16.166h-6.961V13.218l-.01-.584-.034-.529-.052-.494-.07-.459-.088-.428-.1-.394-.118-.366-.124-.334-.138-.308-.146-.283-.153-.26-.162-.238-.17-.218-.171-.196-.18-.182-.187-.168-.19-.154-.198-.137-.2-.126-.207-.114-.207-.104-.213-.091-.217-.083-.219-.07-.218-.062-.219-.05-.216-.044-.216-.031-.211-.025-.205-.018-.198-.008-.192-.006-.147.003-.145.005-.147.011-.142.015-.146.02-.143.021-.14.029-.144.031-.14.033-.139.037-.135.041-.135.045-.136.05-.13.048-.127.055-.127.057-.126.06-.122.062-.12.064-.115.065-.112.07-.109.07-.107.072-.1.073-.1.075-.094.075-.088.076-.086.078-.08.074-.076.078-.074.075-.064.073-.11.135-.1.13-.092.131-.087.134-.08.134-.073.135-.067.134-.065.137-.057.14-.052.14-.05.146-.044.145-.042.145-.036.15-.063.307-.047.31-.02.16-.016.161-.026.327-.008.169-.007.166-.006.166-.005.342v17.056h-6.96V13.209l-.006-.412-.019-.39-.026-.375-.038-.368-.05-.352-.063-.343-.067-.33-.08-.316-.092-.303-.1-.287-.108-.272-.117-.262-.125-.247-.13-.23-.14-.218-.149-.205-.156-.191-.165-.177-.169-.166-.18-.153-.186-.145-.198-.13-.206-.121-.222-.109-.233-.101-.246-.088-.26-.075zM14.82 6.664l-.42.031-.413.052-.406.072-.398.091-.39.109-.384.126-.375.148-.364.164-.357.18-.347.198-.335.213-.323.23-.315.244-.3.262-.288.275-.273.287-.26.303-.247.316-.233.329-.216.342-.203.353-.182.368-.17.375-.148.39-.132.4-.114.411-.094.42-.074.43-.054.44-.034.452-.01.459.01.445.034.436.058.427.075.418.096.407.115.4.135.385.153.376.172.366.187.357.207.343.22.334.237.319.253.308.266.296.281.282.293.267.308.256.318.239.33.226.34.21.353.192.362.178.369.16.378.141.385.127.393.106.398.088.407.07.41.05.417.03.417.011.429-.01.422-.03.416-.056.407-.07.397-.09.39-.112.383-.127.37-.145.365-.163.351-.179.344-.197.33-.213.32-.225.308-.244.296-.257.284-.27.268-.281.258-.3.24-.306.229-.323.21-.332.196-.341.18-.356.161-.363.146-.373.127-.38.109-.392.092-.4.07-.406.051-.412.032-.423.01-.43-.01-.448-.032-.444-.049-.433-.072-.427-.092-.418-.109-.41-.124-.398-.147-.389-.163-.38-.178-.366-.195-.356-.21-.344-.227-.335-.242-.319-.255-.306-.27-.293-.285-.28-.294-.264-.31-.248-.323-.234-.333-.218-.344-.202-.353-.184-.368-.168-.377-.15-.388-.133-.398-.111-.41-.096-.415-.073-.427-.054-.438-.034-.445-.01-.426.011zM10.087.821L10.88.59l.821-.193.846-.151.874-.111.899-.068.908-.02h.247l.248.004.266.008.278.014.294.015.307.026.32.031.33.038.342.047.354.06.362.067.372.08.378.094.384.106.39.122.4.135.398.153.403.168.409.19.406.205.406.224.407.25.405.266.198.146V.645h6.773v28.748h-6.773v-2.07l-.086.066-.328.24-.34.235-.354.226-.374.22-.382.209-.4.2-.414.187-.427.179-.446.163-.458.15-.47.135-.49.12-.5.103-.518.085-.53.07-.546.05-.556.028-.578.011-.787-.019-.778-.052-.765-.09-.757-.122-.742-.158-.732-.192-.713-.223-.698-.256-.681-.288-.664-.319-.643-.35-.625-.379-.604-.409-.58-.435-.56-.464-.534-.493-.51-.518-.481-.545-.456-.567-.427-.594-.398-.614-.37-.64-.336-.659-.306-.68-.272-.7-.24-.72-.202-.735-.17-.755-.133-.769-.093-.786-.06-.798L0 14.86l.016-.646.041-.648.076-.65.102-.651.132-.65.162-.649.189-.643.22-.64.25-.634.278-.625.309-.618.341-.606.37-.593.398-.58.433-.563.463-.547.491-.53.527-.505.554-.481.585-.46.618-.43.645-.403.68-.372.705-.34.737-.306.765-.269z" fill="#C1CBD6"/></svg><svg fill="none" viewBox="0 0 27 32" id="certificate" xmlns="http://www.w3.org/2000/svg"><path d="M19.913 22.522a5.87 5.87 0 100-11.74 5.87 5.87 0 000 11.74z" stroke="#2580D2" stroke-width="1.5" stroke-miterlimit="10" stroke-linecap="round" stroke-linejoin="round"/><path d="M17.304 16.652l1.957 1.957 3.26-3.913M22.522 21.91V31l-2.609-1.957L17.304 31v-9.09" stroke="#2580D2" stroke-width="1.5" stroke-miterlimit="10" stroke-linecap="round" stroke-linejoin="round"/><path d="M15.348 26.435H1V1h19.565v7.826M5.565 6.217H16M5.565 8.826H16M5.565 11.435h7.826M5.565 14.043h6.522M5.565 16.652h5.87M5.565 21.87h3.261" stroke="#2580D2" stroke-width="1.5" stroke-miterlimit="10" stroke-linecap="round" stroke-linejoin="round"/></svg><svg viewBox="0 0 18 18" id="close" xmlns="http://www.w3.org/2000/svg"><path d="M1 1l15.5 15.5M1 16.5L16.5 1"/></svg><svg fill="none" viewBox="0 0 152 30" id="export" xmlns="http://www.w3.org/2000/svg"><path fill-rule="evenodd" clip-rule="evenodd" d="M17.637 0c7.77 0 14.394 4.312 16.733 10.265H15.434L7.408 27.207C2.93 24.482 0 20.024 0 15 0 6.738 7.922 0 17.637 0z" fill="#C1CBD6"/><path fill-rule="evenodd" clip-rule="evenodd" d="M35.117 13.003c.103.653.158 1.32.158 1.997 0 8.262-7.923 15-17.638 15-1.334 0-2.633-.128-3.883-.37l4.583-10.47c.968-2.209-.376-4.364-2.733-6.158h19.513zM73.337 5.518h-17.47c-4.6 0-10.39 4.658-11.45 9.084l-.731 3.057c-1.525 6.37 2.457 10.48 6.487 10.48h13.713c2.184 0 4.556-2.664 5.08-4.803l2.186-8.91-12.057.088-1.696 3.145h5.502c.907 0 .452 1.84.156 2.708l-.987 2.882c-.324.947-1.19 2.098-2.179 2.098h-6.55c-2.755 0-3.21-5.09-2.49-7.775l.82-3.057c.849-3.17 4.589-6.114 7.84-6.114h13.102l.724-2.883zm78.278 0h-13.543c-4.6 0-10.391 4.658-11.451 9.084l-.731 3.057c-1.526 6.37 2.457 10.48 6.487 10.48h13.713l.738-2.773h-11.346v-.024c-2.673-.075-3.132-5.013-2.447-7.695h15.549l.685-2.728h-15.505l.11-.405c.849-3.17 4.588-6.114 7.84-6.114h9.176l.725-2.882zm-25.147 0h-13.544c-4.601 0-10.392 4.658-11.45 9.084l-.733 3.057c-1.526 6.37 2.458 10.48 6.488 10.48h13.713l.737-2.773h-11.346v-.024c-2.671-.075-3.131-5.013-2.447-7.695h15.548l.686-2.728h-15.503l.108-.405c.849-3.17 4.589-6.114 7.84-6.114h9.176c.243-.96.483-1.921.727-2.882zm-49.594 0l-5.589 22.535 7.25.088L83.25 8.314h8.998c1.212 0 1.874 2.04 1.66 3.231-.244 1.358-1.678 3.45-3.843 3.45h-6.617l7.14 13.059h8.124l-5.765-10.307c3.754-.542 7.566-3.381 7.775-7.339.099-1.911-1.867-4.888-5.176-4.888H76.874v-.002z" fill="#C1CBD6"/></svg><svg fill="none" viewBox="0 0 27 32" id="file" xmlns="http://www.w3.org/2000/svg"><path d="M3.597 1L1 3.623v22.295h19.475V1H3.597z" stroke="#2580D2" stroke-width="1.5" stroke-miterlimit="10" stroke-linecap="round" stroke-linejoin="round"/><path d="M3.313 27.992l-.106 1.065L22.967 31l2.49-25.943-2.872-.278M4.936 2.934v1.968l-1.948-.009" stroke="#2580D2" stroke-width="1.5" stroke-miterlimit="10" stroke-linecap="round" stroke-linejoin="round"/></svg><svg fill="none" viewBox="0 0 152 30" id="gree" xmlns="http://www.w3.org/2000/svg"><path fill-rule="evenodd" clip-rule="evenodd" d="M17.637 0c7.77 0 14.394 4.312 16.733 10.265H15.434L7.408 27.207C2.93 24.482 0 20.024 0 15 0 6.738 7.922 0 17.637 0z" fill="#C1CBD6"/><path fill-rule="evenodd" clip-rule="evenodd" d="M35.117 13.003c.103.653.158 1.32.158 1.997 0 8.262-7.923 15-17.638 15-1.334 0-2.633-.128-3.883-.37l4.583-10.47c.968-2.209-.376-4.364-2.733-6.158h19.513zM73.337 5.518h-17.47c-4.6 0-10.39 4.658-11.45 9.084l-.731 3.057c-1.525 6.37 2.457 10.48 6.487 10.48h13.713c2.184 0 4.556-2.664 5.08-4.803l2.186-8.91-12.057.088-1.696 3.145h5.502c.907 0 .452 1.84.156 2.708l-.987 2.882c-.324.947-1.19 2.098-2.179 2.098h-6.55c-2.755 0-3.21-5.09-2.49-7.775l.82-3.057c.849-3.17 4.589-6.114 7.84-6.114h13.102l.724-2.883zm78.278 0h-13.543c-4.6 0-10.391 4.658-11.451 9.084l-.731 3.057c-1.526 6.37 2.457 10.48 6.487 10.48h13.713l.738-2.773h-11.346v-.024c-2.673-.075-3.132-5.013-2.447-7.695h15.549l.685-2.728h-15.505l.11-.405c.849-3.17 4.588-6.114 7.84-6.114h9.176l.725-2.882zm-25.147 0h-13.544c-4.601 0-10.392 4.658-11.45 9.084l-.733 3.057c-1.526 6.37 2.458 10.48 6.488 10.48h13.713l.737-2.773h-11.346v-.024c-2.671-.075-3.131-5.013-2.447-7.695h15.548l.686-2.728h-15.503l.108-.405c.849-3.17 4.589-6.114 7.84-6.114h9.176c.243-.96.483-1.921.727-2.882zm-49.594 0l-5.589 22.535 7.25.088L83.25 8.314h8.998c1.212 0 1.874 2.04 1.66 3.231-.244 1.358-1.678 3.45-3.843 3.45h-6.617l7.14 13.059h8.124l-5.765-10.307c3.754-.542 7.566-3.381 7.775-7.339.099-1.911-1.867-4.888-5.176-4.888H76.874v-.002z" fill="#C1CBD6"/></svg><svg fill="none" viewBox="0 0 170 71" id="kaspi-logo" xmlns="http://www.w3.org/2000/svg"><path d="M.025 36.648c0-.348-.025-.671-.025-1.02C0 15.948 15.871 0 35.456 0s35.456 15.948 35.456 35.628v1.17c0 .199-.025.373-.025.572 0 .124-.025.224-.025.348 0 .174-.024.348-.024.523 0 .124-.025.248-.025.373-.025.174-.025.323-.05.498 0 .124-.025.248-.05.373-.024.149-.024.323-.049.472-.025.125-.025.25-.05.374-.024.149-.049.323-.074.472-.024.125-.024.25-.05.373l-.073.473c-.025.125-.05.25-.05.349-.025.174-.074.373-.099.547-.05.199-.074.398-.124.597-.025.15-.074.299-.099.448-.025.15-.074.274-.099.423-.025.124-.05.249-.099.373-.05.15-.074.299-.124.448-.025.124-.074.224-.099.348-.05.15-.074.299-.124.448-.024.1-.074.224-.099.323-.05.15-.099.3-.148.473-.025.1-.074.2-.1.299-.049.15-.098.323-.172.472-.025.075-.05.175-.1.25-.05.173-.123.348-.173.522-.025.05-.05.124-.074.174a41.44 41.44 0 01-1.114 2.612c0 .025-.025.05-.025.05l-.297.597c-.025.05-.05.075-.05.125-.099.199-.198.373-.297.572-.025.05-.05.075-.05.124a6.649 6.649 0 01-.321.572c-.025.025-.025.05-.05.1-.124.2-.223.398-.346.597 0 0 0 .025-.025.025a36.737 36.737 0 01-2.996 4.28c-.149.199-.322.373-.47.572-4.26-5.474-6.611-12.565-7.404-19.954 0-2.488 1.288-3.857 2.13-5.001 3.837-4.255 6.76-7.215 7.328-8.833.867-1.866.595-3.11-.718-3.781-1.114-.548-2.178-.025-3.887 3.11-1.238 1.741-3.169 3.334-5.67 4.702-2.13.896-2.872.348-2.278-1.642.669-.92 1.263-2.513 2.204-4.155.867-1.518.767-2.96-.42-3.583-1.486-.771-4.111.25-6.042 2.712-1.337 1.692-1.709 3.832-1.065 5.076.693 1.642.495 3.01-.57 4.08-2.847 2.09-5.471 2.588-7.898 2.488-2.699-.1-4.53-.87-5.546-2.836-.668-2.538-1.164-3.31-1.857-5.001-.718-1.742-1.337-3.583-4.21-5.797-1.163-.946-1.41-1.866-.791-3.16.445-.821 1.163-1.966 2.129-3.433 1.04-1.742 1.139-3.235.297-4.006-1.04-.821-2.65-.622-4.778.572-2.526 1.916-3.541 4.03-3.07 6.37.915 2.91-.174 3.657-2.625 6.07-1.015 1.22-1.56 3.533-1.634 6.942.024 2.562-.347 4.826-1.065 6.792-1.436 3.98-.768 6.494.223 10.027 1.46 5.25.767 13.957-.545 18.112-.272-.174-.52-.373-.792-.572-.025-.025-.075-.05-.1-.075a16.829 16.829 0 00-.693-.522c-.024-.025-.074-.05-.099-.075l-.742-.597h-.025c-.52-.423-1.015-.87-1.51-1.343l-.05-.05c-.223-.2-.42-.398-.644-.622l-.124-.124-.594-.598a93.126 93.126 0 01-.099-.1 41.635 41.635 0 01-1.931-2.238c-.025-.05-.074-.075-.1-.125-.172-.224-.321-.423-.494-.647-.05-.05-.075-.1-.124-.174-.149-.224-.322-.448-.47-.647-.025-.05-.075-.1-.1-.124-.371-.547-.742-1.095-1.089-1.642a.189.189 0 01-.05-.1c-.148-.248-.297-.472-.42-.721-.05-.075-.075-.15-.124-.2-.124-.223-.248-.422-.347-.646-.05-.075-.074-.15-.124-.224a9.107 9.107 0 01-.346-.697c-.025-.05-.05-.124-.075-.174-.297-.597-.57-1.17-.817-1.791-.024-.075-.05-.15-.099-.224-.099-.224-.198-.448-.272-.672-.025-.1-.074-.174-.1-.273-.073-.224-.172-.424-.247-.647-.024-.1-.074-.175-.099-.274-.074-.249-.173-.498-.247-.747-.025-.074-.05-.124-.075-.199-.099-.323-.198-.621-.297-.945-.024-.05-.024-.1-.05-.15-.074-.273-.148-.522-.222-.795l-.074-.299-.149-.672c-.025-.1-.05-.224-.074-.323a6.39 6.39 0 01-.124-.672c-.025-.1-.05-.199-.05-.323l-.148-.821c0-.05-.025-.1-.025-.15-.05-.323-.099-.672-.148-.995 0-.1-.025-.174-.025-.274-.025-.248-.05-.497-.074-.721 0-.124-.025-.249-.025-.348-.025-.224-.025-.448-.05-.672 0-.125-.024-.249-.024-.373-.025-.224-.025-.473-.025-.697v-.498zm53.332 16.048c-1.213-1.145-2.203-.92-2.476.995-.52 3.707-.074 7.514 1.189 11.32.222.648.668.921 1.287.871.99-.572 1.956-1.169 2.897-1.84.025-.026.05-.026.05-.05.297-.224.594-.423.89-.647.471-.946.62-1.692.397-2.215-.99-3.607-2.402-6.419-4.234-8.434zM24.81 66.728c.322-5.448-.099-10.25-1.312-14.355-1.09-1.767-1.51-1.17-2.006.497-1.114 7.116-.693 12.54.793 15.277.594.224 1.213.447 1.832.646.396-.398.619-1.07.693-2.065zm12.009 3.832c.247 0 .495-.025.718-.025.123 0 .247-.025.346-.025.248-.025.47-.025.718-.05.1 0 .223-.024.322-.024.322-.025.644-.075.966-.1h.05c.346-.05.668-.1 1.014-.15.1-.024.174-.024.273-.05.247-.049.495-.074.743-.123.099-.025.198-.05.321-.05l.743-.15c.1-.024.174-.024.273-.05l.965-.223c1.733-.995 2.303-1.94 2.229-2.812.198-3.21-.595-9.031-1.808-17.615-1.015-7.24-2.104-9.08-5.521-10.4-2.476-.92-4.482-.995-6.091-.248-1.51.97-2.625 4.403-2.699 8.185-.247 12.739.174 19.481 1.015 21.099.446 1.268 1.288 2.214 2.501 2.81.248 0 .52.026.768.026h.792c.346 0 .693 0 1.04-.025h.322zm86.312-54.91c0-.573-.198-.996-.619-1.294-.446-.324-1.164-.548-2.129-.697-.694-.1-1.412-.224-2.08-.398-.693-.174-1.337-.423-1.882-.771-.569-.348-1.015-.846-1.362-1.443-.346-.597-.52-1.394-.52-2.339 0-.846.174-1.592.496-2.24a4.795 4.795 0 011.312-1.591c.544-.423 1.163-.722 1.857-.946a7.542 7.542 0 012.104-.299c1.065 0 2.055.125 2.996.349a8.145 8.145 0 012.625 1.219l.198.124-1.659 2.762-.223-.15a6.56 6.56 0 00-2.005-.92c-.669-.174-1.313-.274-1.882-.274-.916 0-1.585.175-1.956.523-.372.348-.545.771-.545 1.294 0 .298.05.547.173.721.124.2.322.349.619.498.298.15.694.298 1.189.398.495.124 1.089.249 1.783.373.594.1 1.188.249 1.782.448a5.243 5.243 0 011.61.846c.47.373.866.87 1.163 1.443.297.597.421 1.344.421 2.214 0 .846-.173 1.593-.52 2.24a4.976 4.976 0 01-1.411 1.642c-.569.447-1.263.77-2.03.995a8.674 8.674 0 01-2.427.348c-1.089 0-2.228-.174-3.367-.498-1.164-.323-2.253-.945-3.244-1.816l-.173-.149 2.006-2.612.198.174a6.197 6.197 0 002.203 1.343c.793.274 1.634.398 2.526.398.842 0 1.535-.174 2.055-.522.495-.249.718-.722.718-1.393zm-18.471 34.906l6.958 15.575h-7.403l-6.116-14.555h-6.091v14.555h-6.61V30.33h15.202c1.51 0 2.946.249 4.283.721a10.72 10.72 0 013.516 2.04c.99.871 1.783 1.99 2.352 3.285.57 1.293.842 2.761.842 4.329 0 2.314-.644 4.354-1.882 6.07-1.213 1.692-2.921 2.961-5.051 3.782zm-12.652-4.95h7.428c1.585 0 2.897-.424 3.912-1.27.99-.82 1.51-2.065 1.51-3.632 0-1.568-.47-2.737-1.411-3.409-.966-.721-2.228-1.07-3.788-1.07h-7.626v9.38h-.025zm23.943 20.55h24.017v-6.07h-17.431v-9.032h14.856v-5.872h-14.856V36.45h17.431v-6.07H115.95v35.777zm-8.567-62.35l6.338 16.845h-3.516l-1.287-3.608h-5.67l-1.312 3.608h-6.76l-4.457-7.44-2.352 2.737v4.703h-3.293V3.806h3.318v7.538l2.352-2.886 3.912-4.677h4.011l-5.72 6.792 5.745 9.38 6.091-16.172h2.6v.025zM106.07 8.41l-.841 2.663-.991 3.06h3.689l-1.857-5.723zM170 47.621c0 2.463-.074 4.627-.198 6.468-.149 1.841-.495 3.483-1.089 4.902-.595 1.343-1.338 2.488-2.254 3.408a11.643 11.643 0 01-3.07 2.215 14.92 14.92 0 01-3.689 1.194c-1.312.249-2.699.348-4.135.348h-12.157V30.33h13.024c2.649 0 5.075.522 7.23 1.542 2.154 1.045 3.837 2.762 4.951 5.15.644 1.294 1.04 2.862 1.189 4.653.124 1.767.198 3.757.198 5.947zm-10.597 11.842c.965-.398 1.758-.97 2.327-1.691a6.808 6.808 0 001.263-2.663c.272-1.07.396-2.239.396-3.533v-6.593c0-3.06-.668-5.274-2.005-6.568-1.337-1.294-3.269-1.966-5.745-1.966h-5.67V60.11h5.769c1.486-.05 2.699-.248 3.665-.647zm-13.37-55.656h-3.318V20.65h3.318V3.806zm-5.472 3.035c.297.672.445 1.468.445 2.339 0 .696-.148 1.343-.396 1.965a4.998 4.998 0 01-1.139 1.642c-.495.473-1.089.846-1.758 1.145a6.089 6.089 0 01-2.278.423h-3.466v6.295h-3.318V3.806h6.586a7.21 7.21 0 012.229.348 6.076 6.076 0 011.857.995c.495.448.941 1.02 1.238 1.692zm-8.592 4.454h3.268c.768 0 1.337-.224 1.758-.647.421-.448.619-.946.619-1.543 0-.771-.223-1.319-.643-1.667-.446-.373-1.065-.547-1.808-.547h-3.194v4.404z" fill="#fff"/></svg><svg fill="none" viewBox="0 0 23 27" id="left-menu--menu-1" xmlns="http://www.w3.org/2000/svg"><path d="M3.186 1L1 3.186v18.579h16.393V1H3.186z" stroke="#2580D2" stroke-width="1.5" stroke-miterlimit="10" stroke-linecap="round" stroke-linejoin="round"/><path d="M2.947 23.493l-.09.888L19.49 26l2.097-21.619-2.418-.232M4.313 2.612v1.64l-1.64-.007" stroke="#2580D2" stroke-width="1.5" stroke-miterlimit="10" stroke-linecap="round" stroke-linejoin="round"/><path d="M13.568 12.475c0 .205-.02.403-.047.601l1.065.99-1.311 2.275-1.394-.423a4.55 4.55 0 01-1.045.608l-.328 1.414H7.885l-.328-1.414a4.313 4.313 0 01-1.045-.608l-1.393.424-1.312-2.275 1.066-.99a4.368 4.368 0 01-.048-.602c0-.204.02-.403.048-.6l-1.066-.991L5.12 8.609l1.393.424c.315-.246.67-.451 1.045-.608l.328-1.414h2.623l.328 1.414c.376.15.73.362 1.045.608l1.394-.424 1.311 2.275-1.066.99c.028.198.048.396.048.601z" stroke="#2580D2" stroke-width="1.5" stroke-miterlimit="10" stroke-linecap="round" stroke-linejoin="round"/><path d="M9.197 14.115a1.64 1.64 0 100-3.279 1.64 1.64 0 000 3.279z" stroke="#2580D2" stroke-width="1.5" stroke-miterlimit="10" stroke-linecap="round" stroke-linejoin="round"/></svg><svg fill="none" viewBox="0 0 27 27" id="left-menu--menu-2" xmlns="http://www.w3.org/2000/svg"><path d="M26 4.75c0 2.07-3.083 3.749-6.876 3.749s-6.876-1.68-6.876-3.75" stroke="#2580D2" stroke-width="1.5" stroke-miterlimit="10" stroke-linecap="round" stroke-linejoin="round"/><path d="M26 7.876c0 2.07-3.083 3.75-6.876 3.75s-6.876-1.68-6.876-3.75M26 11.003c0 2.07-3.084 3.75-6.876 3.75-.985 0-1.911-.117-2.75-.32M26 14.13c0 2.07-3.084 3.749-6.876 3.749-.985 0-1.911-.116-2.75-.319M7.876 12.248C4.083 12.248 1 13.927 1 15.998v6.253C1 24.32 4.083 26 7.876 26s6.876-1.68 6.876-3.75v-6.253c0-2.07-3.083-3.75-6.876-3.75z" stroke="#2580D2" stroke-width="1.5" stroke-miterlimit="10" stroke-linecap="round" stroke-linejoin="round"/><path d="M14.752 15.997c0 2.07-3.083 3.75-6.876 3.75S1 18.066 1 15.996" stroke="#2580D2" stroke-width="1.5" stroke-miterlimit="10" stroke-linecap="round" stroke-linejoin="round"/><path d="M14.752 19.124c0 2.07-3.083 3.75-6.876 3.75S1 21.193 1 19.123M16.373 20.687c.84.203 1.767.319 2.75.319 3.794 0 6.877-1.68 6.877-3.75V4.75C26 2.68 22.917 1 19.124 1s-6.876 1.68-6.876 3.75v6.253" stroke="#2580D2" stroke-width="1.5" stroke-miterlimit="10" stroke-linecap="round" stroke-linejoin="round"/></svg><svg fill="none" viewBox="0 0 27 19" id="left-menu--menu-3" xmlns="http://www.w3.org/2000/svg"><path d="M20.57 1s-1.954 1.753-2.167 1.785c-.595.096-3.25-1.158-3.793-1.286-.541-.138-5.896 1.573-6.3 2.21-.393.648 1.19 2.168 2.71 1.977 1.519-.192 3.792-1.01 4.45-.34 1.074 1.073 4.187 4.345 5.664 5.641C22.366 12.082 26 6.44 26 6.44M14.005 16.852l-1.764-1.785M16.926 15.885l-3.08-3.325M19.572 14.345l-3.655-3.804M7.8 16.841a1.09 1.09 0 001.54 0l.967-.966c.415-.415.308-1.084-.17-1.562s-1.147-.585-1.562-.17c.415-.415.308-1.084-.17-1.562s-1.147-.584-1.562-.17c.415-.414.309-1.084-.17-1.562-.478-.478-1.147-.584-1.561-.17.414-.414.308-1.084-.17-1.562s-1.148-.584-1.562-.17l-.967.967a1.09 1.09 0 000 1.54L7.8 16.842z" stroke="#2580D2" stroke-width="1.5" stroke-miterlimit="10" stroke-linecap="round" stroke-linejoin="round"/><path d="M9.776 16.395l.34.34.829.829c1.264 1.264 2.454.34 3.06-.712 1.158.595 2.454-.064 2.922-.967 1.466.723 2.751-.775 2.645-1.54 1.583-.096 2.656-1.902 1.562-3.358M1 6.982l1.158 1.2c.128.425.414.882.712 1.243M8.395 3.624L6.44 1.67M5.09 10.668l-1.7 1.764M5.09 10.668l-1.7 1.764M6.833 12.4l-1.71 1.764M8.565 14.132l-1.71 1.764" stroke="#2580D2" stroke-width="1.5" stroke-miterlimit="10" stroke-linecap="round" stroke-linejoin="round"/></svg><svg fill="none" viewBox="0 0 20 27" id="left-menu--menu-4" xmlns="http://www.w3.org/2000/svg"><path d="M18.654 9.653C18.654 4.884 14.73 1 9.854 1c-4.875 0-8.8 3.884-8.8 8.653 0 0-1.25 5.285 8.25 16.027 0 0 .325.32.55.32.225 0 .55-.32.55-.32 9.5-10.742 8.25-16.027 8.25-16.027zm-8.8 5.113c-2.875 0-5.2-2.286-5.2-5.113 0-2.827 2.325-5.113 5.2-5.113s5.2 2.286 5.2 5.113c0 2.827-2.325 5.113-5.2 5.113z" stroke="#2580D2" stroke-width="1.5"/></svg><svg fill="none" viewBox="0 0 27 27" id="left-menu--menu-5" xmlns="http://www.w3.org/2000/svg"><path d="M25.433 13.505v2.835h-6.815v-6.247h5.113M25.433 19.752h-6.815V26h6.815v-6.248z" stroke="#2580D2" stroke-width="1.5" stroke-miterlimit="10" stroke-linecap="round" stroke-linejoin="round"/><path d="M20.32 12.937l1.7 1.702L26 10.093M25.433 4.412v2.836h-6.815V1h5.113" stroke="#2580D2" stroke-width="1.5" stroke-miterlimit="10" stroke-linecap="round" stroke-linejoin="round"/><path d="M20.32 3.845l1.7 1.701L26 1M10.093 12.361c2.543 0 4.546-1.857 4.546-4.546V5.546c0-2.69-2.003-4.546-4.546-4.546S5.546 2.857 5.546 5.546v2.269c0 2.698 2.004 4.546 4.547 4.546zM16.34 15.608c-1.994-1.033-4.6-1.536-6.247-1.536C7.1 14.072 1 15.727 1 19.185v4.546" stroke="#2580D2" stroke-width="1.5" stroke-miterlimit="10" stroke-linecap="round" stroke-linejoin="round"/></svg><svg fill="none" viewBox="0 0 22 21" id="left-menu--menu-phone" xmlns="http://www.w3.org/2000/svg"><path fill-rule="evenodd" clip-rule="evenodd" d="M5.57.983C5.223.089 4.933.06 4.382.03c-.174 0-.406-.03-.61-.03-.696 0-1.45.208-1.885.685C1.335 1.25 0 2.59 0 5.33c0 2.74 1.944 5.39 2.205 5.747.261.357 3.8 6.074 9.255 8.367 4.265 1.816 5.542 1.638 6.5 1.43 1.421-.328 3.191-1.4 3.655-2.68.436-1.31.436-2.412.32-2.65-.146-.239-.494-.358-1.045-.656-.551-.268-3.192-1.637-3.714-1.816-.493-.179-.957-.12-1.334.417-.523.744-1.045 1.518-1.451 1.965-.32.357-.87.417-1.306.208-.61-.268-2.292-.863-4.352-2.769-1.596-1.459-2.698-3.305-3.017-3.841-.32-.566-.03-.893.232-1.191.26-.357.522-.596.812-.923.261-.328.435-.506.61-.864.174-.357.058-.744-.088-1.042-.174-.208-1.247-2.948-1.711-4.05z" fill="#fff"/></svg><svg fill="none" viewBox="0 0 64 30" id="lg" xmlns="http://www.w3.org/2000/svg"><g clip-path="url(#apclip0)"><path fill-rule="evenodd" clip-rule="evenodd" d="M15.019 0C6.73 0 0 6.73 0 15.019s6.73 15.019 15.019 15.019 15.019-6.73 15.019-15.019C30 6.73 23.308 0 15.019 0zm3.65 20.304v1.14h-4.258V8.556h1.14v11.75h3.118zm8.898-5.285c0 6.92-5.628 12.548-12.548 12.548S2.471 21.939 2.471 15.019 8.1 2.471 15.02 2.471h.532v1.141h-.532A11.392 11.392 0 003.612 15.02 11.392 11.392 0 0015.02 26.426c6.122 0 11.14-4.829 11.407-10.913v-.038h-7.757v-1.14h8.86c.038.228.038.456.038.684zM12.09 10.266c0 .989-.798 1.75-1.749 1.75a1.744 1.744 0 01-1.749-1.75c0-.988.799-1.749 1.75-1.749.95-.038 1.748.76 1.748 1.75zm29.62 8.86h6.464v3.231H37.453V7.53h3.954v11.596h.304zm21.293-5.134v8.365h-3.27V20.57s-.837 2.168-4.449 2.168c-1.635 0-3.118-.57-4.182-1.673-1.37-1.37-2.13-3.575-2.13-6.16 0-2.433.723-4.449 2.092-5.78 1.292-1.292 3.194-1.977 5.437-1.977 1.901 0 3.46.495 4.715 1.445 1.14.913 1.597 1.787 1.825 3.498h-4.183c-.228-1.178-1.178-1.939-2.471-1.939-2.015 0-3.232 1.825-3.232 4.867 0 1.825.456 3.27 1.293 4.106a2.849 2.849 0 002.015.837c3.118 0 3.08-3.308 3.08-3.308H56.54V14.03h6.464v-.038z" fill="#C1CBD6"/></g><defs><clipPath id="apclip0"><path fill="#fff" d="M0 0h63.004v30H0z"/></clipPath></defs></svg><svg fill="none" viewBox="0 0 24 23" id="list" xmlns="http://www.w3.org/2000/svg"><path d="M8.259 2.792h14.74" stroke="#2580D2" stroke-width="1.5" stroke-miterlimit="10" stroke-linecap="round" stroke-linejoin="round"/><path d="M4.585 1H1v3.585h3.585V1z" stroke="#2580D2" stroke-width="1.5" stroke-miterlimit="10"/><path d="M8.259 11.216h14.74" stroke="#2580D2" stroke-width="1.5" stroke-miterlimit="10" stroke-linecap="round" stroke-linejoin="round"/><path d="M4.585 9.424H1v3.584h3.585V9.424z" stroke="#2580D2" stroke-width="1.5" stroke-miterlimit="10"/><path d="M8.259 19.819h14.74" stroke="#2580D2" stroke-width="1.5" stroke-miterlimit="10" stroke-linecap="round" stroke-linejoin="round"/><path d="M4.585 18.026H1v3.585h3.585v-3.585z" stroke="#2580D2" stroke-width="1.5" stroke-miterlimit="10"/></svg><svg fill="none" viewBox="0 0 21 30" id="location" xmlns="http://www.w3.org/2000/svg"><path d="M20.89 10.383C20.89 4.661 16.244 0 10.476 0 4.708 0 .064 4.66.064 10.383c0 0-1.479 6.343 9.762 19.233 0 0 .384.384.65.384.267 0 .651-.384.651-.384 11.241-12.89 9.762-19.232 9.762-19.232zM10.476 16.52c-3.402 0-6.153-2.743-6.153-6.135 0-3.393 2.75-6.136 6.153-6.136 3.402 0 6.153 2.743 6.153 6.135 0 3.393-2.751 6.136-6.153 6.136z" fill="#2580D2"/></svg><svg fill="none" viewBox="0 0 234 51" id="logo" xmlns="http://www.w3.org/2000/svg"><path d="M43.616 7.034c-2.453-2.471-6.616-2.8-11.48-1.339 3.091-.494 5.668 0 7.337 1.668 4.556 4.572.433 16.125-9.193 25.804-9.626 9.68-21.107 13.819-25.663 9.247-3.174-3.192-2.123-9.782 2.062-16.764-6.617 9.391-8.72 18.782-4.473 23.045 5.4 5.436 19.066.515 30.486-10.977 11.44-11.511 16.325-25.247 10.924-30.684z" fill="#212121"/><path d="M46.275 6.56c1.526 1.895 1.98 4.449 1.485 7.393 1.545-4.345 1.463-8.155-.64-10.523-4.349-4.942-15.789-2.1-26.425 6.22 10.74-6.673 21.437-8.218 25.58-3.09z" fill="#2580D2"/><path d="M60.972 35.103c2.865 0 5.03.515 6.514 1.524s2.226 2.492 2.226 4.469c0 1.42-.227 2.718-.7 3.933-.475 1.215-1.237 2.245-2.268 3.13-1.03.886-2.37 1.565-4.02 2.04-1.649.493-3.627.72-5.957.72H32.238l6.41-6.775h19.974c1.093 0 1.897-.186 2.412-.556.495-.371.742-.927.742-1.69 0-1.05-.824-1.564-2.473-1.564H44.936c-2.99 0-5.195-.577-6.576-1.73-1.401-1.153-2.082-2.698-2.082-4.613 0-1.339.227-2.574.701-3.727.474-1.133 1.237-2.142 2.268-2.987 1.03-.844 2.37-1.524 3.998-1.977 1.629-.473 3.587-.7 5.916-.7h22.88l-6.493 6.837H47.265c-1.113 0-1.897.165-2.412.495-.495.33-.742.885-.742 1.668 0 .988.845 1.503 2.515 1.503h14.346z" fill="#212121"/><path d="M8.245 18.731h11.523l-3.113 20.49 9.193-5.621 2.123-14.869h9.647l1.855-6.858h-25.58l-5.648 6.858z" fill="#2580D2"/><path d="M131.078 45.307c-1.405-.77-2.538-1.81-3.354-3.169-.815-1.358-1.223-2.897-1.223-4.617 0-1.72.408-3.26 1.223-4.618.816-1.358 1.949-2.4 3.354-3.169 1.404-.77 3.036-1.132 4.803-1.132 1.495 0 2.855.272 4.078.77 1.224.543 2.221 1.267 3.036 2.263l-2.583 2.354c-1.178-1.358-2.628-2.037-4.35-2.037-1.087 0-2.039.227-2.855.725-.861.452-1.495 1.131-1.948 1.946a6.058 6.058 0 00-.725 2.852c0 1.087.226 2.038.725 2.853.453.86 1.133 1.494 1.948 1.946a6.073 6.073 0 002.855.725c1.722 0 3.172-.68 4.35-2.038l2.583 2.355c-.815.995-1.858 1.765-3.081 2.308-1.224.544-2.583.77-4.078.77-1.768.045-3.354-.317-4.758-1.087zM158.946 42.953v3.215h-13.368V28.919h13.051v3.214h-9.063v3.758h8.02v3.124h-8.02v3.984h9.38v-.046zM173.673 29.643c1.133.498 1.994 1.223 2.583 2.174.589.95.906 2.037.906 3.35 0 1.267-.317 2.354-.906 3.304-.589.951-1.495 1.676-2.583 2.174-1.133.497-2.447.77-3.987.77h-3.49v4.753h-3.987V28.919h7.477c1.54-.045 2.854.226 3.987.724zm-1.495 7.697c.634-.498.951-1.268.951-2.219 0-.95-.317-1.72-.951-2.218-.635-.498-1.541-.77-2.719-.77h-3.263v5.976h3.263c1.178 0 2.13-.226 2.719-.77zM194.2 38.653c.544.724.861 1.584.861 2.625 0 1.54-.589 2.717-1.722 3.577-1.178.86-2.809 1.268-4.984 1.268h-8.519v-17.25h8.066c1.993 0 3.579.408 4.712 1.178 1.133.77 1.677 1.856 1.677 3.305 0 .86-.227 1.63-.635 2.263-.407.634-1.042 1.177-1.812 1.54.997.316 1.812.815 2.356 1.494zm-10.422-2.626h3.716c.861 0 1.54-.181 1.994-.544.453-.362.679-.86.679-1.584 0-.679-.226-1.177-.679-1.54-.454-.361-1.088-.543-1.949-.543h-3.716v4.21h-.045zm7.205 4.934c0-1.448-.952-2.127-2.81-2.127h-4.395v4.346h4.395c1.904 0 2.81-.725 2.81-2.219zM198.233 28.874h3.988V40.1l8.247-11.227h3.761v17.248h-3.942V34.94l-8.247 11.228h-3.762V28.874h-.045zM221.887 45.307c-1.405-.77-2.538-1.81-3.353-3.169-.816-1.358-1.224-2.897-1.224-4.617 0-1.72.408-3.26 1.224-4.618.815-1.358 1.948-2.4 3.353-3.169 1.405-.77 3.036-1.132 4.803-1.132 1.496 0 2.855.272 4.079.77 1.223.543 2.22 1.267 3.036 2.263l-2.583 2.354c-1.178-1.358-2.629-2.037-4.35-2.037-1.088 0-2.04.227-2.855.725-.861.452-1.496 1.131-1.949 1.946a6.058 6.058 0 00-.725 2.852c0 1.087.227 2.038.725 2.853.453.86 1.133 1.494 1.949 1.946a6.07 6.07 0 002.855.725c1.721 0 3.172-.68 4.35-2.038l2.583 2.355c-.816.995-1.858 1.765-3.082 2.308-1.223.544-2.583.77-4.078.77-1.767.045-3.353-.317-4.758-1.087z" fill="#212121"/><path d="M97.999 32.133H92.47v13.99h-3.943v-13.99H83v-3.26h14.999v3.26zM103.663 45.307c-1.405-.77-2.538-1.81-3.353-3.169-.816-1.358-1.224-2.897-1.224-4.617 0-1.72.408-3.26 1.224-4.618.815-1.358 1.948-2.4 3.353-3.169 1.405-.77 3.036-1.132 4.803-1.132 1.496 0 2.855.272 4.078.77 1.224.543 2.221 1.267 3.036 2.263l-2.582 2.354c-1.179-1.358-2.629-2.037-4.351-2.037-1.087 0-2.039.227-2.854.725-.861.452-1.496 1.131-1.949 1.946a6.058 6.058 0 00-.725 2.852c0 1.087.227 2.038.725 2.853.453.86 1.133 1.494 1.949 1.946a6.069 6.069 0 002.854.725c1.722 0 3.172-.68 4.351-2.038l2.582 2.355c-.815.995-1.857 1.765-3.081 2.308-1.223.544-2.583.77-4.078.77-1.767.045-3.353-.317-4.758-1.087zM117.167 37.657h6.978v3.078h-6.978v-3.078z" fill="#2580D2"/></svg><svg fill="none" viewBox="0 0 20 15" id="mail" xmlns="http://www.w3.org/2000/svg"><path d="M16.667 0H3.333A3.343 3.343 0 000 3.333v8.334C0 13.5 1.5 15 3.333 15h13.334C18.5 15 20 13.5 20 11.667V3.333C20 1.5 18.5 0 16.667 0zM18 4.833L11.417 9.25C11 9.5 10.5 9.667 10 9.667S9 9.5 8.583 9.25L2 4.833c-.333-.25-.417-.75-.167-1.166.25-.334.75-.417 1.167-.167l6.583 4.417c.25.166.667.166.917 0L17.083 3.5c.417-.25.917-.167 1.167.25.167.333.083.833-.25 1.083z" fill="#2580D2"/></svg><svg fill="none" viewBox="0 0 32 32" id="man-logo" xmlns="http://www.w3.org/2000/svg"><path d="M31 15.95c0 8.317-6.736 15.002-15.003 15.002C7.679 30.952.943 24.267.943 15.95.943 7.682 7.679.946 15.946.946 24.264.946 31 7.682 31 15.95z" stroke="#2580D2" stroke-width="1.5" stroke-miterlimit="10"/><path d="M12.782 11.152s4.134.562 5.41-2.551c0 0 1.377 2.551 3.367 2.551M12.884 18.807v2.399s.153 1.02-5.868 2.551M19.059 18.807v2.399s-.153 1.02 5.868 2.551" stroke="#2580D2" stroke-width="1.5" stroke-miterlimit="10" stroke-linecap="round" stroke-linejoin="round"/><path d="M17.834 19.164c.817-.204 1.225-.561 1.225-.561 1.378-.97 2.245-4.083 2.5-6.226.358-3.164-.05-6.991-5.613-7.144h-.05c-5.563.102-5.972 3.93-5.614 7.144.255 2.143 1.122 5.256 2.5 6.226 0 0 .409.357 1.225.561" stroke="#2580D2" stroke-width="1.5" stroke-miterlimit="10" stroke-linecap="round" stroke-linejoin="round"/></svg><svg fill="none" viewBox="0 0 25 27" id="menu-advantages" xmlns="http://www.w3.org/2000/svg"><path d="M6.458 7.113H1.24V1.688h2.947"/><path d="M3.107 3.732l1.306 1.45L7.557 1.12M6.458 16.437H1.24v-5.425h2.947"/><path d="M3.107 13.056l1.306 1.45 3.144-4.062M6.458 25.76H1.24v-5.425H4.9M23.602 7.171l-1.71-1.599a1.564 1.564 0 00-2.204.074L8.211 17.909l-1.895 6.022 5.883-2.292L23.674 9.377a1.566 1.566 0 00-.072-2.206zM19.798 7.975l2.583 2.415M8.706 17.713l3.655 3.42M7.598 20.325l2.231 2.088M18.573 10.832l-8.039 8.59"/></svg><svg fill="none" viewBox="0 0 22 28" id="menu-buy" xmlns="http://www.w3.org/2000/svg"><path d="M17.782 24.508s-5.925-4.59-6.182-4.804c-.257-.212-.785-.2-1.093.037-.381.294-6.286 4.766-6.286 4.766"/><path d="M12.517 20.288l8.487-6.762v12.848c0 .616-.515 1.123-1.14 1.123H2.14A1.137 1.137 0 011 26.374V13.526l8.487 6.762M19.014 12.916V1H2.989v11.916"/><path d="M7.987 8.748l2.037 2.82 3.753-4.487"/><path d="M8.293 4.08a5.698 5.698 0 018.405 5.013A5.697 5.697 0 116.484 5.62"/></svg><svg fill="none" viewBox="0 0 27 21" id="menu-catalog" xmlns="http://www.w3.org/2000/svg"><path d="M2.989 3.101h21.022M2.989 5.04h21.022"/><path d="M23.415 7.36a.196.196 0 11-.392 0 .196.196 0 01.392 0z" fill="#2580D2"/><path d="M18.556 14.403v5.104M16.346 15.677l4.42 2.553M20.766 15.677l-4.42 2.553M6.91 14.375l.345 1.617c.066.323-.074.68-.316.79-.242.108-.379.463-.298.785l.48 1.972M9.938 14.375l.344 1.617c.07.323-.074.68-.316.79-.242.108-.379.463-.298.785l.48 1.972M12.965 14.375l.344 1.617c.07.323-.074.68-.316.79-.242.108-.379.463-.298.785l.48 1.972M21.948 11.951V9.892c0-.39-.319-.708-.708-.708H5.76c-.39 0-.709.319-.709.708v2.06h-2.89c-.526 0-1.161-.64-1.161-1.418V2.417C1 1.638 1.638 1 2.417 1h22.166C25.362 1 26 1.638 26 2.417v8.117c0 .779-.638 1.417-1.67 1.417H21.95zM6.553 11.955h13.89"/></svg><svg fill="none" viewBox="0 0 27 24" id="menu-home" xmlns="http://www.w3.org/2000/svg"><path d="M2.274 20.614H1M6.154 20.56v-8.616M12.5 20.56v-7.211H9.118v7.21M13.564 1h.004l11.017 9.673-1.311 1.486-9.708-8.519-9.707 8.52-1.312-1.487L13.564 1zM8.299 3.623V2.236H6.208V5.58M14.944 20.614H4.112M18.303 14.762a4.619 4.619 0 011.637-.846 4.63 4.63 0 112.543 8.905 4.632 4.632 0 01-5.362-6.624"/><path d="M18.756 18.084l1.657 2.295 3.055-3.651"/></svg><svg fill="none" viewBox="0 0 27 27" id="menu-kaspi" xmlns="http://www.w3.org/2000/svg"><path d="M1.009 13.98c0-.123-.009-.238-.009-.361C1 6.649 6.595 1 13.5 1S26 6.649 26 13.619v.414c0 .07-.009.132-.009.203 0 .044-.008.08-.008.123 0 .062-.01.124-.01.185 0 .044-.008.088-.008.132-.009.062-.009.115-.017.177a.688.688 0 01-.018.132c-.009.053-.009.114-.017.167-.009.044-.009.088-.018.133l-.026.167c-.009.044-.009.088-.017.132-.01.053-.018.115-.027.168-.008.044-.017.088-.017.123-.009.062-.026.132-.035.194-.017.07-.026.14-.044.211-.008.053-.026.106-.034.159-.01.053-.027.097-.035.15-.01.044-.018.088-.035.132-.018.053-.026.106-.044.158-.009.044-.026.08-.035.124-.017.053-.026.106-.044.158-.008.036-.026.08-.034.115-.018.053-.035.106-.053.167-.009.036-.026.07-.035.106-.017.053-.035.115-.06.168-.01.026-.018.061-.036.088-.017.061-.043.123-.06.185-.01.017-.018.044-.027.062-.122.317-.253.625-.393.925 0 .008-.009.017-.009.017l-.104.212c-.01.018-.018.026-.018.044-.035.07-.07.132-.105.203-.008.017-.017.026-.017.044-.035.07-.07.132-.113.202-.01.01-.01.018-.018.036-.044.07-.079.14-.122.211 0 0 0 .009-.009.009-.314.529-.672 1.04-1.056 1.516-.053.07-.114.132-.166.202-1.501-1.938-2.33-4.45-2.61-7.067 0-.881.454-1.366.75-1.771 1.354-1.507 2.384-2.556 2.585-3.129.305-.66.21-1.101-.254-1.34-.392-.193-.768-.008-1.37 1.102-.436.617-1.117 1.181-1.999 1.666-.75.317-1.013.123-.803-.582.236-.326.445-.89.777-1.471.305-.538.27-1.049-.149-1.27-.523-.272-1.449.089-2.13.961-.47.6-.602 1.357-.375 1.798.245.582.175 1.066-.2 1.445-1.004.74-1.93.917-2.785.881-.952-.035-1.598-.308-1.955-1.004-.236-.9-.41-1.172-.655-1.771-.253-.617-.472-1.27-1.484-2.054-.41-.335-.498-.66-.28-1.119.158-.29.41-.696.751-1.216.367-.617.402-1.145.105-1.419-.367-.29-.934-.22-1.685.203-.89.679-1.248 1.428-1.082 2.256.323 1.031-.061 1.295-.925 2.15-.358.432-.55 1.251-.576 2.459.008.907-.123 1.71-.376 2.405-.506 1.41-.27 2.3.079 3.552.515 1.859.27 4.943-.192 6.415-.096-.062-.184-.132-.28-.203-.008-.009-.026-.017-.035-.026-.078-.062-.157-.124-.244-.185-.009-.01-.026-.018-.035-.027l-.262-.211h-.008a8.977 8.977 0 01-.533-.476l-.017-.018c-.079-.07-.149-.14-.227-.22l-.044-.044-.21-.212-.034-.035c-.236-.255-.463-.52-.681-.793-.009-.018-.026-.026-.035-.044l-.175-.229c-.017-.018-.026-.035-.043-.062-.053-.079-.114-.158-.166-.229-.009-.018-.026-.035-.035-.044-.131-.194-.262-.388-.384-.582a.067.067 0 01-.018-.035c-.052-.088-.104-.167-.148-.255-.018-.027-.026-.053-.044-.07-.043-.08-.087-.15-.122-.23-.017-.026-.026-.053-.044-.08a3.233 3.233 0 01-.122-.246c-.009-.018-.017-.044-.026-.062a8.293 8.293 0 01-.288-.634.312.312 0 00-.035-.08 2.7 2.7 0 01-.096-.237c-.009-.036-.026-.062-.035-.097-.026-.08-.061-.15-.087-.23-.009-.035-.026-.061-.035-.096-.026-.088-.061-.177-.087-.265l-.027-.07c-.035-.115-.07-.22-.104-.335-.01-.018-.01-.035-.018-.053l-.078-.282c-.01-.035-.018-.07-.027-.106l-.052-.238-.026-.114a2.273 2.273 0 01-.044-.238.45.45 0 01-.017-.115l-.053-.29c0-.018-.008-.036-.008-.053l-.053-.353c0-.035-.008-.062-.008-.097l-.027-.255c0-.044-.008-.088-.008-.124-.01-.079-.01-.158-.018-.238 0-.044-.009-.088-.009-.132-.008-.08-.008-.167-.008-.247v-.176zm18.802 5.684c-.428-.405-.777-.326-.873.353-.183 1.313-.026 2.66.42 4.01.078.228.235.325.453.307.35-.202.69-.414 1.021-.652.01-.008.018-.008.018-.017.105-.08.21-.15.314-.23.166-.334.218-.599.14-.784-.35-1.277-.847-2.273-1.493-2.987zm-10.064 4.97c.113-1.93-.035-3.63-.463-5.085-.384-.625-.533-.414-.707.177-.393 2.52-.245 4.441.28 5.41.209.08.427.159.645.23.14-.142.218-.38.245-.732zm4.233 1.357c.087 0 .175-.009.253-.009.044 0 .087-.008.122-.008.088-.01.166-.01.254-.018.034 0 .078-.009.113-.009.114-.009.227-.026.34-.035h.018l.358-.053c.035-.009.061-.009.096-.018.087-.017.175-.026.262-.044.035-.009.07-.017.113-.017l.262-.053c.035-.009.061-.009.096-.018l.34-.08c.612-.352.812-.687.786-.995.07-1.137-.21-3.199-.637-6.239-.358-2.564-.742-3.216-1.947-3.683-.872-.326-1.58-.353-2.147-.088-.533.343-.925 1.56-.952 2.899-.087 4.512.062 6.9.358 7.472.158.45.454.785.882.996.087 0 .183.009.27.009h.28c.122 0 .244 0 .367-.009h.113z"/></svg><svg fill="none" viewBox="0 0 28 28" id="menu-offer" xmlns="http://www.w3.org/2000/svg"><path d="M2.009 13.98c0-.123-.009-.238-.009-.361C2 6.649 7.595 1 14.5 1S27 6.649 27 13.619v.414c0 .07-.009.132-.009.203 0 .044-.008.08-.008.123 0 .062-.01.124-.01.185 0 .044-.008.088-.008.132-.009.062-.009.115-.017.177a.688.688 0 01-.018.132c-.009.053-.009.114-.017.167-.009.044-.009.088-.018.133l-.026.167c-.009.044-.009.088-.017.132-.01.053-.018.115-.027.168-.008.044-.017.088-.017.123-.009.062-.026.132-.035.194-.017.07-.026.14-.044.211-.008.053-.026.106-.034.159-.01.053-.027.097-.035.15-.01.044-.018.088-.035.132-.018.053-.026.106-.044.158-.009.044-.026.08-.035.124-.017.053-.026.106-.044.158-.008.036-.026.08-.034.115-.018.053-.035.106-.053.167-.009.036-.026.07-.035.106-.017.053-.035.115-.06.168-.01.026-.018.061-.036.088-.017.061-.043.123-.06.185-.01.017-.018.044-.027.062-.122.317-.253.625-.393.925 0 .008-.009.017-.009.017l-.104.212c-.01.018-.018.026-.018.044-.035.07-.07.132-.105.203-.008.017-.017.026-.017.044-.035.07-.07.132-.113.202-.01.01-.01.018-.018.036-.044.07-.079.14-.122.211 0 0 0 .009-.009.009-.314.529-.672 1.04-1.056 1.516-.053.07-.114.132-.166.202-1.501-1.938-2.33-4.45-2.61-7.067 0-.881.454-1.366.75-1.771 1.354-1.507 2.384-2.556 2.585-3.129.305-.66.21-1.101-.254-1.34-.392-.193-.768-.008-1.37 1.102-.436.617-1.117 1.181-1.999 1.666-.75.317-1.013.123-.803-.582.236-.326.445-.89.777-1.471.305-.538.27-1.049-.149-1.27-.523-.272-1.449.089-2.13.961-.47.6-.602 1.357-.375 1.798.245.582.175 1.066-.2 1.445-1.004.74-1.93.917-2.785.881-.952-.035-1.598-.308-1.955-1.004-.236-.9-.41-1.172-.655-1.771-.253-.617-.472-1.27-1.484-2.054-.41-.335-.498-.66-.28-1.119.158-.29.41-.696.751-1.216.367-.617.402-1.145.105-1.419-.367-.29-.934-.22-1.685.203-.89.679-1.248 1.428-1.082 2.256.323 1.031-.061 1.295-.925 2.15-.358.432-.55 1.251-.576 2.459.008.907-.123 1.71-.376 2.405-.506 1.41-.27 2.3.079 3.552.515 1.859.27 4.943-.192 6.415-.096-.062-.184-.132-.28-.203-.008-.009-.026-.017-.035-.026-.078-.062-.157-.124-.244-.185-.009-.01-.026-.018-.035-.027l-.262-.211h-.008a8.977 8.977 0 01-.533-.476l-.017-.018c-.079-.07-.149-.14-.227-.22l-.044-.044-.21-.212-.034-.035c-.236-.255-.463-.52-.681-.793-.009-.018-.026-.026-.035-.044l-.175-.229c-.017-.018-.026-.035-.043-.062-.053-.079-.114-.158-.166-.229-.009-.018-.026-.035-.035-.044-.131-.194-.262-.388-.384-.582a.067.067 0 01-.018-.035c-.052-.088-.104-.167-.148-.255-.018-.027-.026-.053-.044-.07-.043-.08-.087-.15-.122-.23-.017-.026-.026-.053-.044-.08a3.233 3.233 0 01-.122-.246c-.009-.018-.017-.044-.026-.062a8.293 8.293 0 01-.288-.634.312.312 0 00-.035-.08 2.7 2.7 0 01-.096-.237c-.009-.036-.026-.062-.035-.097-.026-.08-.061-.15-.087-.23-.009-.035-.026-.061-.035-.096-.026-.088-.061-.177-.087-.265l-.027-.07c-.035-.115-.07-.22-.104-.335-.01-.018-.01-.035-.018-.053l-.078-.282c-.01-.035-.018-.07-.027-.106l-.052-.238-.026-.114a2.273 2.273 0 01-.044-.238.45.45 0 01-.017-.115l-.053-.29c0-.018-.008-.036-.008-.053l-.053-.353c0-.035-.008-.062-.008-.097l-.027-.255c0-.044-.008-.088-.008-.124-.01-.079-.01-.158-.018-.238 0-.044-.009-.088-.009-.132-.008-.08-.008-.167-.008-.247v-.176zm18.802 5.684c-.428-.405-.777-.326-.873.353-.183 1.313-.026 2.66.42 4.01.078.228.235.325.453.307.35-.202.69-.414 1.021-.652.01-.008.018-.008.018-.017.105-.08.21-.15.314-.23.166-.334.218-.599.14-.784-.35-1.277-.847-2.273-1.493-2.987zm-10.065 4.97c.114-1.93-.034-3.63-.462-5.085-.384-.625-.533-.414-.707.177-.393 2.52-.245 4.441.28 5.41.209.08.427.159.645.23.14-.142.218-.38.244-.732zm4.234 1.357c.087 0 .175-.009.253-.009.044 0 .087-.008.122-.008.088-.01.166-.01.254-.018.034 0 .078-.009.113-.009.114-.009.227-.026.34-.035h.018l.358-.053c.035-.009.061-.009.096-.018.087-.017.175-.026.262-.044.035-.009.07-.017.113-.017l.262-.053c.035-.009.061-.009.096-.018l.34-.08c.612-.352.812-.687.786-.995.07-1.137-.21-3.199-.637-6.239-.358-2.564-.742-3.216-1.947-3.683-.872-.326-1.58-.353-2.147-.088-.533.343-.925 1.56-.952 2.899-.087 4.512.062 6.9.358 7.472.158.45.454.785.882.996.087 0 .183.009.27.009h.28c.122 0 .244 0 .367-.009h.113z"/></svg><svg viewBox="0 0 22 21" id="menu-phone" xmlns="http://www.w3.org/2000/svg"><path fill-rule="evenodd" clip-rule="evenodd" d="M5.57.983C5.223.089 4.933.06 4.382.03c-.174 0-.406-.03-.61-.03-.696 0-1.45.208-1.885.685C1.335 1.25 0 2.59 0 5.33c0 2.74 1.944 5.39 2.205 5.747.261.357 3.8 6.074 9.255 8.367 4.265 1.816 5.542 1.638 6.5 1.43 1.421-.328 3.191-1.4 3.655-2.68.436-1.31.436-2.412.32-2.65-.146-.239-.494-.358-1.045-.656-.551-.268-3.192-1.637-3.714-1.816-.493-.179-.957-.12-1.334.417-.523.744-1.045 1.518-1.451 1.965-.32.357-.87.417-1.306.208-.61-.268-2.292-.863-4.352-2.769-1.596-1.459-2.698-3.305-3.017-3.841-.32-.566-.03-.893.232-1.191.26-.357.522-.596.812-.923.261-.328.435-.506.61-.864.174-.357.058-.744-.088-1.042-.174-.208-1.247-2.948-1.711-4.05z"/></svg><svg fill="none" viewBox="0 0 28 28" id="menu-questions" xmlns="http://www.w3.org/2000/svg"><path d="M22.865 9.916C22.865 5.002 18.893 1 13.96 1S5.055 5.002 5.055 9.916c0 0-1.265 5.446 8.348 16.515 0 0 .33.329.557.329.228 0 .557-.33.557-.33 9.613-11.068 8.348-16.514 8.348-16.514zm-8.905 5.268a5.261 5.261 0 01-5.262-5.268 5.261 5.261 0 1110.524 0 5.261 5.261 0 01-5.262 5.268z"/></svg><svg fill="none" viewBox="0 0 75 30" id="midea" xmlns="http://www.w3.org/2000/svg"><path fill-rule="evenodd" clip-rule="evenodd" d="M33.947 25.345l-2.412-14.788h-3.15l.283 2.27c-.114 3.946-1.334 7.494-3.463 10.134l-1.731-12.404H20.35c-1.05 10.871-4.626 13.596-9.764 14.873 6.018.256 9.14-2.923 10.786-7.01l1.079 7.095a12.076 12.076 0 01-5.762 2.1C9.367 28.355 2.072 24.04 0 17.03.681 24.294 7.01 30 14.675 30c7.436 0 13.595-5.365 14.589-12.29l.965 7.663h3.718v-.028zm40.731-7.493c-.227-2.47-2.157-3.435-4.484-3.35-1.788.057-3.775.994-4.485 3.293l1.22.369c1.05-2.64 5.337-2.526 5.422.198v.426c-.511-.284-1.277-.425-2.384-.397-2.697 0-4.315 1.618-4.428 3.576-.114 1.987 1.277 3.577 4.002 3.577 1.306 0 2.186-.37 2.782-.937v.766h2.327v-7.521h.028zm-4.144 2.242c.71 0 1.363.085 1.817.426v2.668c-.426.312-1.079.51-1.987.568-1.448 0-2.441-.824-2.441-1.817 0-1.022 1.164-1.845 2.611-1.845zm-12.063-5.563c3.009 0 5.45 2.27 5.45 5.563 0 .227 0 .426-.029.624h-8.004c.483 1.732 1.788 2.527 3.946 2.47 1.476-.057 2.27-.681 2.668-1.306h1.22c-.426 2.072-1.873 3.633-4.797 3.662-3.661 0-5.904-2.356-5.904-5.45 0-3.066 2.441-5.563 5.45-5.563zm.17 2.1c1.505 0 2.243.908 2.612 2.186H56.03c.37-1.278 1.107-2.186 2.611-2.186zM2.583 19.64s-3.264-4.655-.454-10.956C3.889 4.653 7.068 1.673 11.41.509c7.182-1.93 14.902 1.76 17.457 8.856 0 0-4.088-6.926-13.34-6.415-8.63.483-14.59 8.317-12.944 16.69zm43.683-2.98c.88 0 1.703.397 2.27 1.05v4.541a3.047 3.047 0 01-2.27 1.022c-1.731 0-3.122-1.476-3.122-3.293 0-1.845 1.419-3.32 3.122-3.32zm2.27-6.16h2.754v14.845h-2.753v-.993c-.937.823-2.13 1.334-3.378 1.334-2.838 0-4.967-2.498-4.797-5.592.17-3.094 2.3-5.592 5.45-5.592 1.022 0 1.958.34 2.725.88V10.5zM35.65 14.445h2.697v10.9H35.65v-10.9zm0-3.945h2.697v2.697H35.65V10.5z" fill="#C1CBD6"/></svg><svg fill="none" viewBox="0 0 37 32" id="money" xmlns="http://www.w3.org/2000/svg"><path d="M15.632 18.73c0 1.437 1.25 2.599 2.798 2.599 1.55 0 2.8-1.162 2.8-2.599 0-1.437-1.488-2.061-2.8-2.724-1.311-.662-2.798-1.287-2.798-2.724 0-1.437 1.25-2.598 2.798-2.598 1.55 0 2.8 1.162 2.8 2.598M18.418 10.659V8.921M18.418 23.078v-1.736" stroke="#2580D2" stroke-width="1.5" stroke-miterlimit="10" stroke-linecap="round"/><path d="M10.671 3.162c-4.336 2.636-7.247 7.397-7.247 12.844H1l4.41 6.81 4.411-6.81H7.297c0-6.147 4.986-11.133 11.12-11.133a11.07 11.07 0 019.11 4.748M19.38 1.025c-.325-.013-.637-.025-.962-.025a14.87 14.87 0 00-6.148 1.324M25.565 2.812a14.617 14.617 0 00-4.248-1.525M29.55 5.935a14.77 14.77 0 00-2.523-2.224M26.177 28.838c4.335-2.636 7.247-7.396 7.247-12.844h2.424l-4.41-6.81-4.412 6.81h2.512c0 6.147-4.986 11.133-11.12 11.133a11.11 11.11 0 01-9.122-4.748M17.468 30.975c.313.025.637.025.95.025 2.187 0 4.273-.475 6.147-1.312M11.27 29.188a14.612 14.612 0 004.249 1.525M7.297 26.064c.75.838 1.6 1.575 2.524 2.225" stroke="#2580D2" stroke-width="1.5" stroke-miterlimit="10" stroke-linejoin="round"/></svg><svg fill="none" viewBox="0 0 164 35" id="nav-logo" xmlns="http://www.w3.org/2000/svg"><path d="M30.578 4.232c-1.72-1.732-4.639-1.963-8.05-.938 2.169-.346 3.975 0 5.146 1.17 3.193 3.205.303 11.305-6.446 18.09C14.48 29.34 6.43 32.242 3.236 29.037 1.011 26.8 1.748 22.18 4.681 17.285.042 23.867-1.432 30.452 1.545 33.44c3.787 3.811 13.368.36 21.374-7.696 8.02-8.07 11.445-17.7 7.66-21.513z" fill="#212121"/><path d="M32.442 3.9c1.07 1.329 1.387 3.119 1.04 5.184 1.084-3.047 1.027-5.718-.447-7.378-3.05-3.465-11.07-1.473-18.527 4.36C22.037 1.388 29.538.306 32.442 3.9z" fill="#2580D2"/><path d="M42.746 23.912c2.01 0 3.526.36 4.567 1.068 1.04.707 1.56 1.747 1.56 3.133 0 .996-.158 1.906-.49 2.758-.333.852-.868 1.573-1.59 2.194-.723.621-1.662 1.098-2.818 1.43-1.156.346-2.544.505-4.177.505H22.601l4.495-4.75h14.003c.766 0 1.33-.13 1.69-.39.348-.26.521-.65.521-1.184 0-.736-.578-1.097-1.734-1.097H31.503c-2.095 0-3.642-.405-4.61-1.213-.983-.808-1.46-1.891-1.46-3.234 0-.939.16-1.805.492-2.613.332-.794.867-1.502 1.59-2.094.722-.592 1.662-1.068 2.803-1.386 1.142-.332 2.515-.49 4.148-.49h16.04l-4.551 4.793H33.136c-.78 0-1.33.115-1.69.346-.348.231-.52.62-.52 1.17 0 .693.592 1.053 1.762 1.053h10.058z" fill="#212121"/><path d="M5.78 12.433h8.078L11.675 26.8l6.446-3.941 1.488-10.425h6.764l1.3-4.808H9.74l-3.96 4.808z" fill="#fff"/><path d="M91.897 31.066c-.985-.54-1.78-1.27-2.351-2.222-.572-.952-.858-2.031-.858-3.237s.286-2.286.858-3.238c.572-.952 1.366-1.682 2.35-2.222.986-.54 2.13-.793 3.368-.793 1.049 0 2.002.19 2.86.54.857.38 1.556.888 2.128 1.587l-1.81 1.65c-.827-.952-1.843-1.428-3.05-1.428-.763 0-1.43.158-2.002.508-.604.317-1.049.793-1.366 1.364a4.246 4.246 0 00-.508 2c0 .762.158 1.428.508 2 .317.603.794 1.047 1.366 1.364.603.318 1.27.508 2.001.508 1.208 0 2.224-.476 3.05-1.428l1.811 1.65a5.787 5.787 0 01-2.16 1.62c-.858.38-1.811.539-2.86.539-1.239.031-2.35-.223-3.335-.762zM111.435 29.416v2.253h-9.372V19.576h9.15v2.254h-6.354v2.634h5.623v2.19h-5.623v2.793h6.576v-.031zM121.761 20.084c.794.35 1.398.857 1.811 1.523.413.667.635 1.429.635 2.35 0 .888-.222 1.65-.635 2.316-.413.667-1.049 1.175-1.811 1.524-.794.349-1.716.54-2.796.54h-2.446v3.332h-2.796V19.576h5.242c1.08-.032 2.002.159 2.796.508zm-1.049 5.396c.445-.35.668-.889.668-1.556 0-.666-.223-1.206-.668-1.555-.444-.349-1.08-.54-1.906-.54h-2.287v4.19h2.287c.826 0 1.493-.158 1.906-.54zM136.152 26.4c.382.508.604 1.111.604 1.841 0 1.08-.413 1.904-1.207 2.508-.826.603-1.97.888-3.495.888h-5.972V19.544h5.654c1.398 0 2.51.286 3.304.826.795.54 1.176 1.3 1.176 2.317 0 .603-.159 1.142-.445 1.587-.286.444-.731.825-1.271 1.079.699.222 1.271.571 1.652 1.047zm-7.307-1.84h2.606c.603 0 1.08-.128 1.397-.382.318-.254.477-.603.477-1.11 0-.477-.159-.826-.477-1.08-.317-.254-.762-.38-1.366-.38h-2.605v2.951h-.032zm5.052 3.459c0-1.016-.667-1.492-1.97-1.492h-3.082v3.047h3.082c1.334 0 1.97-.508 1.97-1.555zM138.979 19.544h2.796v7.872l5.782-7.872h2.637v12.093h-2.764v-7.84l-5.782 7.872h-2.637V19.544h-.032zM155.563 31.066c-.985-.54-1.779-1.27-2.351-2.222-.572-.952-.858-2.031-.858-3.237s.286-2.286.858-3.238c.572-.952 1.366-1.682 2.351-2.222.985-.54 2.129-.793 3.368-.793 1.048 0 2.001.19 2.859.54.858.38 1.557.888 2.129 1.587l-1.811 1.65c-.826-.952-1.843-1.428-3.05-1.428-.763 0-1.43.158-2.002.508-.603.317-1.048.793-1.366 1.364a4.254 4.254 0 00-.508 2c0 .762.159 1.428.508 2 .318.603.795 1.047 1.366 1.364a4.258 4.258 0 002.002.508c1.207 0 2.224-.476 3.05-1.428l1.811 1.65a5.79 5.79 0 01-2.161 1.62c-.858.38-1.811.539-2.859.539-1.239.031-2.351-.223-3.336-.762z" fill="#212121"/><path d="M68.706 21.83H64.83v9.807h-2.764V21.83H58.19v-2.286h10.516v2.286zM72.677 31.066c-.985-.54-1.78-1.27-2.352-2.222-.571-.952-.857-2.031-.857-3.237s.286-2.286.858-3.238c.571-.952 1.366-1.682 2.35-2.222.985-.54 2.129-.793 3.368-.793 1.048 0 2.002.19 2.86.54.857.38 1.556.888 2.128 1.587l-1.811 1.65c-.826-.952-1.843-1.428-3.05-1.428-.762 0-1.43.158-2.001.508-.604.317-1.049.793-1.366 1.364a4.246 4.246 0 00-.509 2c0 .762.16 1.428.509 2 .317.603.794 1.047 1.366 1.364.603.318 1.27.508 2.001.508 1.207 0 2.224-.476 3.05-1.428l1.81 1.65a5.787 5.787 0 01-2.16 1.62c-.857.38-1.81.539-2.859.539-1.239.031-2.35-.223-3.335-.762zM82.144 25.702h4.892v2.158h-4.892v-2.158z" fill="#fff"/></svg><svg fill="none" viewBox="0 0 41 42" id="offer-1-step" xmlns="http://www.w3.org/2000/svg"><path d="M16.652 21.87l-6.087 6.086-2.608-2.608-2.61 2.608 5.218 5.218 8.696-8.696-2.609-2.609z" stroke="#2580D2" stroke-width="2" stroke-miterlimit="10" stroke-linecap="round" stroke-linejoin="round"/><path d="M29.696 33.174V41H1V1h28.696v13.913M7.087 8.826h15.652M7.087 12.304h15.652M7.087 15.783h9.565" stroke="#2580D2" stroke-width="2" stroke-miterlimit="10" stroke-linecap="round" stroke-linejoin="round"/><path d="M16.51 37.272a16.991 16.991 0 014.544-8.196l13.848-13.848a2.073 2.073 0 012.924 0l.728.729c.805.804.805 2.12 0 2.923L24.706 32.728a16.99 16.99 0 01-8.195 4.544z" stroke="#2580D2" stroke-width="2" stroke-miterlimit="10" stroke-linecap="round" stroke-linejoin="round"/><path d="M32.717 17.413l4.38 4.38c.805.805.805 2.12 0 2.924l-4.38 4.38M24.598 25.522l3.652 3.652" stroke="#2580D2" stroke-width="2" stroke-miterlimit="10" stroke-linecap="round" stroke-linejoin="round"/></svg><svg fill="none" viewBox="0 0 42 30" id="offer-2-step" xmlns="http://www.w3.org/2000/svg"><path d="M32.313 1s-3.128 2.805-3.468 2.856c-.952.153-5.202-1.853-6.069-2.057-.866-.221-9.434 2.516-10.08 3.536-.63 1.037 1.904 3.468 4.335 3.162 2.43-.306 6.069-1.615 7.122-.544 1.717 1.717 6.698 6.953 9.061 9.027C35.186 18.73 41 9.704 41 9.704M21.808 26.363l-2.822-2.856M26.482 24.817l-4.93-5.321M30.715 22.352l-5.848-6.086M11.88 26.346c.68.68 1.785.68 2.465 0l1.547-1.547c.663-.663.493-1.734-.272-2.498-.765-.765-1.836-.935-2.5-.272.664-.663.494-1.735-.271-2.5-.765-.764-1.836-.934-2.5-.271.664-.663.494-1.734-.271-2.5-.765-.764-1.836-.934-2.5-.271.664-.663.494-1.734-.271-2.5-.765-.764-1.836-.934-2.5-.271l-1.546 1.547c-.68.68-.68 1.785 0 2.465l8.619 8.618z" stroke="#2580D2" stroke-width="2" stroke-miterlimit="10" stroke-linecap="round" stroke-linejoin="round"/><path d="M15.042 25.632l.544.544 1.326 1.326c2.023 2.023 3.927.544 4.896-1.139 1.852.952 3.927-.102 4.675-1.547 2.345 1.156 4.402-1.24 4.232-2.464 2.533-.154 4.25-3.043 2.5-5.372M1 10.57l1.853 1.922c.204.68.663 1.41 1.139 1.989M12.832 5.199L9.704 2.07M7.545 16.47l-2.72 2.822M7.545 16.47l-2.72 2.822M10.333 19.24l-2.737 2.823M13.104 22.012l-2.737 2.821" stroke="#2580D2" stroke-width="2" stroke-miterlimit="10" stroke-linecap="round" stroke-linejoin="round"/></svg><svg fill="none" viewBox="0 0 30 30" id="phone" xmlns="http://www.w3.org/2000/svg"><path fill-rule="evenodd" clip-rule="evenodd" d="M15 30c8.284 0 15-6.716 15-15 0-8.284-6.716-15-15-15C6.716 0 0 6.716 0 15c0 8.284 6.716 15 15 15zM9.54 7.023c.444.024.679.047.96.75.114.263.272.644.442 1.051.392.94.843 2.023.94 2.137.118.234.212.539.071.82-.114.227-.227.363-.378.543l-.114.137a10.27 10.27 0 01-.225.238c-.148.153-.29.3-.431.489l-.002.002c-.21.234-.443.491-.186.935.258.422 1.149 1.875 2.438 3.023 1.502 1.355 2.757 1.869 3.348 2.11l.167.07c.352.164.797.117 1.055-.164.277-.297.62-.777.975-1.272l.197-.275c.305-.422.68-.469 1.078-.328.31.103 1.537.71 2.346 1.11.296.145.535.263.654.32.114.06.217.11.31.156.268.132.447.22.534.36.093.187.093 1.054-.258 2.085-.375 1.008-1.805 1.852-2.953 2.11-.774.164-1.805.304-5.25-1.125-4.101-1.68-6.862-5.695-7.395-6.47-.04-.057-.067-.097-.082-.116l-.002-.003C7.559 15.423 6 13.344 6 11.196c0-2.134 1.056-3.19 1.51-3.643l.013-.014C7.875 7.164 8.484 7 9.047 7c.085 0 .177.006.265.012.081.006.16.011.227.011z" fill="#2580D2"/></svg><svg fill="none" viewBox="0 0 32 30" id="pig" xmlns="http://www.w3.org/2000/svg"><path d="M10.024 11.435c-1.189-1.717-4.888-2.774-5.31-2.232-.304.383.647 2.047 1.294 3.17a6.211 6.211 0 00-2.153 2.602c-.568.264-1.294.41-2.338.397-.911 0-.502 2.51.33 4.094.767 1.453 5.68 4.439 6.328 4.544v4.36h1.954l1.308-2.603c1.216.37 3.197.647 4.57.647 1.52 0 3.052-.145 4.545-.594l1.32 2.55h1.955l.859-4.994c1.611-1.545 2.404-3.645 2.404-6.09 0-4.887-5.627-8.48-11.69-8.48-2.55 0-4.742.74-6.46 1.586M24.475 17.3c0-2.747-3.752-5.865-7.82-5.865M6.88 15.345h1.295M12.428 7.525a3.983 3.983 0 01-.99-2.615A3.918 3.918 0 0115.347 1a3.91 3.91 0 012.918 6.512M27.09 17.3l1.189-.793a.697.697 0 011.057.37.7.7 0 001.162.278l.502-.502" stroke="#2580D2" stroke-width="1.5" stroke-miterlimit="10" stroke-linecap="round" stroke-linejoin="round"/></svg><svg fill="none" viewBox="0 0 102 43" id="proseo" xmlns="http://www.w3.org/2000/svg"><path d="M58.566 25.198c-1.806 0-3.526-.602-4.644-1.118l-.86 3.44c1.032.602 3.182 1.118 5.246 1.118 5.074 0 7.482-2.666 7.482-5.762 0-2.58-1.548-4.3-4.816-5.504-2.408-.946-3.44-1.462-3.44-2.58 0-.946.86-1.806 2.666-1.806s3.182.516 3.87.86l.946-3.354c-1.118-.516-2.666-.946-4.73-.946-4.386 0-7.052 2.408-7.052 5.59 0 2.666 1.978 4.386 5.074 5.504 2.236.774 3.096 1.462 3.096 2.58.086 1.204-.946 1.978-2.838 1.978zm22.532-.258h-7.654v-4.386h6.794v-3.44h-6.794v-3.87h7.224v-3.44H69.23V28.38h11.868v-3.44zm20.382-6.02c0-5.16-3.096-9.374-8.858-9.374-5.504 0-9.03 4.128-9.03 9.718 0 5.246 3.182 9.46 8.772 9.46 5.418 0 9.116-3.698 9.116-9.804zm-8.858 6.45c-2.838 0-4.558-2.58-4.558-6.192s1.634-6.278 4.472-6.278c2.924 0 4.472 2.838 4.472 6.192 0 3.526-1.548 6.278-4.386 6.278zM41.28 4.3l7.998 4.988-.086-4.3L41.194 0l-7.74 5.074.086 4.3L41.28 4.3zm.172 29.756l-7.998-4.988.086 4.3 7.998 4.988 7.74-5.074-.086-4.3-7.74 5.074zM58.566 38.958h1.548v2.064c-.172.086-.602.172-1.118.172-1.806 0-3.096-1.204-3.096-3.182 0-2.15 1.376-3.182 3.268-3.182 1.118 0 1.72.172 2.322.43l.43-1.806c-.516-.258-1.462-.516-2.752-.516-3.182 0-5.59 1.892-5.59 5.16 0 1.462.516 2.752 1.376 3.526.946.86 2.236 1.29 3.956 1.29 1.29 0 2.58-.344 3.268-.516v-5.16H58.48l.086 1.72zM69.488 38.27c.86-.344 1.72-1.204 1.72-2.494 0-.86-.344-1.548-.946-2.064-.688-.516-1.72-.774-3.182-.774-1.204 0-2.236.086-2.924.172v9.718h2.236v-3.87h.688c.946 0 1.29.344 1.548 1.548.258 1.204.516 1.978.688 2.322h2.236c-.172-.344-.516-1.634-.774-2.752-.172-.946-.602-1.548-1.29-1.806zm-2.236-.86h-.86v-2.666c.172 0 .43-.086 1.032-.086 1.032 0 1.634.43 1.634 1.376 0 .774-.688 1.376-1.806 1.376zM77.486 32.852c-2.924 0-4.816 2.236-4.816 5.16 0 2.838 1.72 4.988 4.644 4.988 2.838 0 4.816-1.978 4.816-5.16 0-2.752-1.634-4.988-4.644-4.988zm-.086 8.342c-1.462 0-2.408-1.376-2.408-3.268s.86-3.354 2.408-3.354 2.408 1.548 2.408 3.268c0 1.978-.86 3.354-2.408 3.354zM89.698 38.7c0 1.72-.602 2.58-1.806 2.58-1.118 0-1.806-.86-1.806-2.58v-5.676H83.85v5.504c0 3.096 1.462 4.472 3.956 4.472 2.58 0 4.128-1.462 4.128-4.472v-5.504h-2.236V38.7zM100.104 33.712c-.688-.516-1.634-.774-3.01-.774s-2.322.086-3.01.172v9.718h2.236v-3.526c.172 0 .43.086.774.086 1.29 0 2.408-.344 3.182-1.032.602-.516.946-1.376.946-2.322 0-.946-.43-1.806-1.118-2.322zm-3.01 3.956c-.344 0-.516 0-.774-.086v-2.924c.172-.086.43-.086.946-.086 1.118 0 1.72.516 1.72 1.462 0 1.032-.688 1.634-1.892 1.634zM11.352 11.18C10.148 10.15 8.256 9.72 5.676 9.72S1.29 9.89 0 10.063V28.38h4.128v-6.622c.344.086.86.086 1.462.086 2.494 0 4.644-.602 6.02-1.978 1.118-1.032 1.72-2.58 1.72-4.386s-.774-3.354-1.978-4.3zM5.59 18.578c-.602 0-1.032 0-1.376-.086v-5.504c.344-.086.86-.172 1.72-.172 2.064 0 3.268 1.032 3.268 2.752 0 1.892-1.376 3.01-3.612 3.01zM26.574 19.695c1.634-.688 3.268-2.322 3.268-4.644 0-1.72-.602-3.01-1.72-3.87-1.29-1.032-3.268-1.462-6.02-1.462-2.236 0-4.214.172-5.59.344V28.38h4.128v-7.31h1.29c1.72 0 2.494.688 3.01 3.01.516 2.322 1.032 3.784 1.29 4.3h4.3c-.344-.688-.946-3.096-1.548-5.246-.344-1.72-1.118-2.924-2.408-3.44zM22.36 18.06h-1.634V12.9c.344-.086.86-.172 1.892-.172 1.892 0 3.096.86 3.096 2.58 0 1.72-1.204 2.752-3.354 2.752zM41.624 9.546c-5.504 0-9.03 4.128-9.03 9.718 0 5.246 3.182 9.46 8.772 9.46 5.418 0 9.116-3.698 9.116-9.804 0-5.16-3.096-9.374-8.858-9.374zm-.086 15.824c-2.838 0-4.558-2.58-4.558-6.192s1.634-6.278 4.472-6.278c2.924 0 4.472 2.838 4.472 6.192.086 3.526-1.548 6.278-4.386 6.278z" fill="#fff"/></svg><svg fill="none" viewBox="0 0 200 30" id="quantex" xmlns="http://www.w3.org/2000/svg"><path d="M21.404 13.383c-.333 2.387-1.022 4.448-2.067 6.182-1.033 1.722-2.353 3.105-3.96 4.15l3.357 3.323L14.826 30l-4.442-4.322c-.643.057-1.125.08-1.447.069-1.687-.012-3.186-.396-4.494-1.154-1.297-.758-2.325-1.848-3.083-3.272-.757-1.424-1.2-3.054-1.326-4.89-.091-1.344.006-2.87.293-4.581.287-1.722.798-3.33 1.533-4.822C2.96 4.79 4.453 3.05 6.336 1.811c1.883-1.252 4-1.854 6.354-1.809 1.7.035 3.192.43 4.478 1.189 1.285.746 2.313 1.842 3.082 3.289.78 1.435 1.234 3.053 1.36 4.856.07.998.04 2.014-.086 3.048l-.12.998zm-5.7-4.185c-.092-1.504-.42-2.612-.982-3.323-.55-.712-1.343-1.097-2.376-1.154-1.665-.058-3.02.597-4.064 1.963-1.045 1.366-1.745 3.392-2.101 6.079-.218 1.607-.298 2.881-.241 3.822.115 2.905 1.24 4.397 3.375 4.478 1.55.08 2.847-.523 3.892-1.808 1.056-1.298 1.78-3.215 2.17-5.752.264-1.78.373-3.214.327-4.305zM52.979.347l-2.79 16.359c-.402 2.836-1.573 5.069-3.513 6.699-1.929 1.63-4.363 2.422-7.301 2.376-1.826-.034-3.41-.425-4.753-1.17-1.343-.759-2.336-1.82-2.98-3.187-.63-1.377-.843-2.944-.636-4.7L33.796.346h5.923L36.947 16.74a7.874 7.874 0 00-.035 1.636c.057.85.322 1.51.792 1.98.482.471 1.16.724 2.032.758 2.526.08 4.047-1.383 4.564-4.39L47.09.346h5.889zM73.757 20.735h-8.008l-2.221 4.684h-6.492L70.312.347h5.545l4.633 25.072h-6.13l-.603-4.684zm-5.804-4.666h5.2l-1.101-8.645-4.099 8.645zM109.912 25.42h-5.7L98.219 9.593 95.464 25.42h-5.89L93.915.347h5.752l5.975 15.825L108.379.347h5.89l-4.357 25.072zM142.985 5.014h-7.301l-3.53 20.405h-5.907l3.547-20.405h-7.18l.826-4.667h20.354l-.809 4.667zM166.07 14.795h-9.212l-1.051 5.975h10.901l-.81 4.65h-16.789L153.448.346h16.824l-.809 4.667h-10.918l-.93 5.286h9.23l-.775 4.495zM187.227 8.647l5.27-8.3h6.991l-8.92 12.674 4.908 12.398h-6.527l-2.755-8.455-5.407 8.455h-7.043l9.126-12.88L178.118.347h6.457l2.652 8.3z" fill="#C1CBD6"/></svg><svg fill="none" viewBox="0 0 24 32" id="reward" xmlns="http://www.w3.org/2000/svg"><path d="M8.87 12.087l1.969 1.957 3.935-4.566" stroke="#2580D2" stroke-width="1.5" stroke-miterlimit="10" stroke-linecap="round" stroke-linejoin="round"/><path d="M14.372 2.052a3.602 3.602 0 002.55 1.051c1.992 0 3.607 1.606 3.607 3.587 0 .954.378 1.867 1.058 2.536a3.568 3.568 0 010 5.07 3.561 3.561 0 00-1.058 2.535c0 1.982-1.615 3.588-3.607 3.588-.96 0-1.878.375-2.55 1.051a3.617 3.617 0 01-5.1 0 3.603 3.603 0 00-2.55-1.051c-1.992 0-3.607-1.607-3.607-3.588 0-.953-.377-1.866-1.057-2.535a3.568 3.568 0 010-5.07A3.561 3.561 0 003.115 6.69c0-1.98 1.615-3.587 3.608-3.587.959 0 1.877-.375 2.55-1.051a3.617 3.617 0 015.1 0z" stroke="#2580D2" stroke-width="1.5" stroke-miterlimit="10" stroke-linecap="round" stroke-linejoin="round"/><path d="M16.356 20.467l4.362 8.063-3.468-.905L16.102 31l-3.558-6.57M8.141 20.712l-4.23 7.818 3.468-.905L8.527 31l2.369-4.37M11.822 17.956c3.442 0 6.231-2.773 6.231-6.195s-2.79-6.196-6.23-6.196c-3.442 0-6.232 2.774-6.232 6.196 0 3.422 2.79 6.195 6.231 6.195z" stroke="#2580D2" stroke-width="1.5" stroke-miterlimit="10" stroke-linecap="round" stroke-linejoin="round"/></svg><svg fill="none" viewBox="0 0 21 13" id="scroll-top" xmlns="http://www.w3.org/2000/svg"><path d="M1 11.655L10.333 2 20 12" stroke="#000" stroke-width="2"/></svg><svg fill="none" viewBox="0 0 20 20" id="watch" xmlns="http://www.w3.org/2000/svg"><path d="M10 0C4.5 0 0 4.5 0 10s4.5 10 10 10 10-4.5 10-10S15.5 0 10 0zm3.667 13.917l-.334.333a.654.654 0 01-.916 0l-3.75-3.333c-.25-.25-.417-.667-.417-1.084l.333-5.916c0-.334.334-.584.667-.584h.417c.333 0 .666.25.666.584l.25 4.916c0 .334.25.834.417 1.084l2.583 3c.334.333.334.75.084 1z" fill="#2580D2"/></svg><svg fill="none" viewBox="0 0 30 30" id="woman-logo" xmlns="http://www.w3.org/2000/svg"><path d="M5.48 24.73C2.39 26.476 1 24.28 1 24.28c2.195-1.881 1.971-3.09 2.016-4.525.09-1.523-.09-1.881-.538-4.032C.821 2.732 15.471 3 15.471 3h.448s9.677.09 10.573 8.513l.09.717c.224 1.657.269 1.97.314 3.45.09 1.836-.314 2.598-.448 4.032-.09 1.433-.224 2.643 1.926 4.525 0 0-1.389 2.195-4.48.448" stroke="#2580D2" stroke-width="1.5" stroke-miterlimit="10" stroke-linecap="round" stroke-linejoin="round"/><path d="M16.502 23.475c6.989 0 7.481-5.735 7.481-5.735s.045-1.21-.537-1.837" stroke="#2580D2" stroke-width="1.5" stroke-miterlimit="10" stroke-linecap="round" stroke-linejoin="round"/><path d="M15.964 23.52c0 .403-.538.761-1.165.761s-1.165-.358-1.165-.761c0-.404.538-.762 1.165-.762s1.165.358 1.165.762z" fill="#2580D2" stroke="#2580D2" stroke-width="1.5" stroke-miterlimit="10"/><path d="M6.959 14.156s6.317 1.344 8.781-4.973c.358-.896.403-.985 1.3-.09 2.105 2.196 5.555 3.182 5.555 3.182l.224.09s.761 2.867.313 5.824c0 0-1.568 9.811-8.378 9.811h-.179C7.81 28 6.6 18.19 6.6 18.19" stroke="#2580D2" stroke-width="1.5" stroke-miterlimit="10" stroke-linecap="round" stroke-linejoin="round"/><path d="M11.752 16.89c0 .178-.134.357-.358.357a.353.353 0 01-.358-.358c0-.18.134-.358.358-.358.18 0 .358.179.358.358zM18.563 16.89c0 .178-.135.357-.359.357a.353.353 0 01-.358-.358c0-.18.134-.358.358-.358.18 0 .358.179.358.358z" fill="#2580D2" stroke="#2580D2" stroke-width="1.5" stroke-miterlimit="10"/></svg></svg>