<svg width="317" height="164" viewBox="0 0 317 164" fill="none" xmlns="http://www.w3.org/2000/svg">
<path d="M78.1476 138.547C64.7701 140.016 -9.08141 184.077 14.7417 198.397C39.6642 213.268 78.1476 138.547 78.1476 138.547ZM216.321 98.1571C246.009 126.43 294.021 137.262 294.021 110.641C294.204 84.0207 216.321 98.1571 216.321 98.1571ZM193.048 93.2002C193.048 93.2002 166.11 63.4587 152.549 38.1234C152.549 38.1234 142.47 68.0484 132.757 90.0792C122.862 112.11 122.862 112.11 122.862 112.11C122.862 112.11 134.956 106.051 158.78 100.177C182.786 94.3017 193.048 93.2002 193.048 93.2002ZM141.37 -5.57095C141.37 -5.57095 154.198 -44.8591 154.015 -65.0539C153.832 -85.2488 147.235 -88.0026 141.37 -88.0026C135.506 -88.0026 127.993 -81.7606 127.993 -58.4447C128.176 -35.3124 136.972 -10.3443 141.37 -5.57095ZM157.497 24.7213C170.508 52.9941 206.609 89.5284 206.609 89.5284C206.609 89.5284 218.337 86.4074 266.35 85.3059C314.546 84.2043 316.561 111.376 316.928 113.579C317.111 115.965 319.127 137.445 280.644 138.914C242.344 140.383 202.577 100.36 202.577 100.36C202.577 100.36 186.268 102.93 172.707 106.235C159.146 109.54 115.715 121.473 115.715 121.473C115.715 121.473 102.887 144.972 74.2993 182.425C45.7116 219.877 13.8254 217.123 4.66267 204.639C-5.96608 190.135 2.28036 175.815 22.2551 157.089C42.413 138.363 88.7764 122.758 88.7764 122.758C88.7764 122.758 98.3056 106.051 111.866 73.7397C125.61 41.6116 135.873 9.2998 135.873 9.2998C135.873 9.2998 122.312 -21.5432 119.746 -47.7965C116.814 -76.9873 120.113 -96.8149 142.653 -96.9985C165.01 -97.1821 171.974 -80.2919 172.707 -51.1011C173.44 -21.7268 157.497 24.7213 157.497 24.7213Z" fill="white"/>
</svg>
