<svg width="360" height="218" viewBox="0 0 360 218" fill="none" xmlns="http://www.w3.org/2000/svg">
<g opacity="0.15">
<mask id="mask0" mask-type="alpha" maskUnits="userSpaceOnUse" x="0" y="0" width="360" height="218">
<rect width="360" height="218" fill="#2580D2"/>
</mask>
<g mask="url(#mask0)">
<path d="M2.18316 146.573C-4.69552 147.331 -42.6696 170.072 -30.4199 177.463C-17.6048 185.138 2.18316 146.573 2.18316 146.573ZM73.2315 125.726C88.4965 140.319 113.184 145.909 113.184 132.17C113.279 118.43 73.2315 125.726 73.2315 125.726ZM61.2645 123.168C61.2645 123.168 47.4129 107.817 40.44 94.7411C40.44 94.7411 35.2574 110.186 30.2633 121.557C25.1749 132.928 25.1749 132.928 25.1749 132.928C25.1749 132.928 31.394 129.801 43.6437 126.769C55.9877 123.736 61.2645 123.168 61.2645 123.168ZM34.692 72.1892C34.692 72.1892 41.288 51.9114 41.1938 41.4883C41.0996 31.0651 37.7073 29.6438 34.692 29.6438C31.6767 29.6438 27.8133 32.8655 27.8133 44.8995C27.9076 56.8387 32.4305 69.7255 34.692 72.1892ZM42.9841 87.8239C49.6744 102.416 68.2374 121.273 68.2374 121.273C68.2374 121.273 74.268 119.662 98.9559 119.093C123.738 118.525 124.775 132.549 124.963 133.686C125.057 134.918 126.094 146.004 106.306 146.762C86.6119 147.52 66.1644 126.863 66.1644 126.863C66.1644 126.863 57.778 128.19 50.8051 129.895C43.8322 131.601 21.5 137.76 21.5 137.76C21.5 137.76 14.904 149.889 0.204369 169.219C-14.4953 188.549 -30.8911 187.128 -35.6025 180.685C-41.0677 173.199 -36.8274 165.808 -26.5565 156.143C-16.1914 146.478 7.64843 138.424 7.64843 138.424C7.64843 138.424 12.5483 129.801 19.5212 113.124C26.5884 96.5414 31.8652 79.8644 31.8652 79.8644C31.8652 79.8644 24.8923 63.9454 23.5731 50.3953C22.0654 35.3292 23.7615 25.0955 35.3516 25.0008C46.8475 24.906 50.4282 33.6235 50.8051 48.6897C51.182 63.8507 42.9841 87.8239 42.9841 87.8239Z" fill="white"/>
</g>
</g>
</svg>
