<svg width="21" height="30" viewBox="0 0 21 30" fill="none" xmlns="http://www.w3.org/2000/svg">
<path d="M20.8893 10.3835C20.8893 4.66077 16.245 0 10.4767 0C4.70842 0 0.064195 4.66077 0.064195 10.3835C0.064195 10.3835 -1.41486 16.7257 9.82595 29.6165C9.82595 29.6165 10.2105 30 10.4767 30C10.743 30 11.1275 29.6165 11.1275 29.6165C22.3683 16.7257 20.8893 10.3835 20.8893 10.3835ZM10.4767 16.5192C7.07491 16.5192 4.32387 13.7758 4.32387 10.3835C4.32387 6.99115 7.07491 4.24779 10.4767 4.24779C13.8786 4.24779 16.6296 6.99115 16.6296 10.3835C16.6296 13.7758 13.8786 16.5192 10.4767 16.5192Z" fill="#2580D2"/>
</svg>
