<svg width="234" height="51" viewBox="0 0 234 51" fill="none" xmlns="http://www.w3.org/2000/svg">
<path d="M43.6164 7.03393C41.1635 4.5627 36.9997 4.2332 32.1352 5.69534C35.2271 5.2011 37.8036 5.69534 39.4733 7.36342C44.0287 11.9352 39.9061 23.4882 30.28 33.1672C20.6539 42.8462 9.17266 46.9855 4.61727 42.4137C1.44292 39.2217 2.49416 32.6317 6.67853 25.6505C0.06187 35.0412 -2.04062 44.4319 2.20559 48.6947C7.6061 54.1314 21.2723 49.2096 32.6917 37.7184C44.1317 26.2066 49.0169 12.4706 43.6164 7.03393Z" fill="#212121"/>
<path d="M46.2754 6.56027C47.8007 8.45488 48.2542 11.0085 47.7595 13.9534C49.3054 9.60812 49.223 5.79831 47.1205 3.43005C42.7712 -1.51241 31.3312 1.32951 20.6951 9.64931C31.4343 2.97699 42.1322 1.43247 46.2754 6.56027Z" fill="#2580D2"/>
<path d="M60.9723 35.103C63.8375 35.103 66.0018 35.6178 67.4859 36.6269C68.97 37.636 69.7121 39.1187 69.7121 41.0957C69.7121 42.5167 69.4853 43.8141 69.0113 45.0291C68.5372 46.2441 67.7745 47.2738 66.7439 48.1593C65.7132 49.0448 64.3734 49.7244 62.7244 50.1981C61.0754 50.6923 59.0966 50.9188 56.7673 50.9188H32.2383L38.6488 44.1436H58.6225C59.715 44.1436 60.5188 43.9582 61.0342 43.5875C61.5289 43.2168 61.7762 42.6608 61.7762 41.8989C61.7762 40.8486 60.9517 40.3337 59.3027 40.3337H44.9357C41.9468 40.3337 39.7413 39.7571 38.3602 38.6039C36.9586 37.4506 36.2784 35.9061 36.2784 33.9909C36.2784 32.6523 36.5051 31.4167 36.9792 30.2635C37.4533 29.1308 38.216 28.1218 39.2466 27.2774C40.2772 26.4331 41.617 25.7535 43.2454 25.3004C44.8738 24.8268 46.832 24.6003 49.1613 24.6003H72.0413L65.5483 31.4373H47.2649C46.1518 31.4373 45.3685 31.6021 44.8532 31.9316C44.3585 32.2611 44.1112 32.8171 44.1112 33.5996C44.1112 34.5881 44.9563 35.103 46.6259 35.103H60.9723Z" fill="#212121"/>
<path d="M8.24512 18.7311H19.7676L16.6551 39.2217L25.8483 33.5996L27.9714 18.7311H37.6182L39.4733 11.8734H13.893L8.24512 18.7311Z" fill="#2580D2"/>
<path d="M131.078 45.3075C129.673 44.5379 128.54 43.4966 127.724 42.1385C126.909 40.7803 126.501 39.2411 126.501 37.5208C126.501 35.8004 126.909 34.2612 127.724 32.903C128.54 31.5449 129.673 30.5036 131.078 29.734C132.482 28.9643 134.114 28.6022 135.881 28.6022C137.376 28.6022 138.736 28.8738 139.959 29.3718C141.183 29.9151 142.18 30.6394 142.995 31.6354L140.412 33.9895C139.234 32.6314 137.784 31.9523 136.062 31.9523C134.975 31.9523 134.023 32.1787 133.207 32.6766C132.346 33.1294 131.712 33.8084 131.259 34.6233C130.806 35.4835 130.534 36.4342 130.534 37.4755C130.534 38.562 130.76 39.5127 131.259 40.3276C131.712 41.1878 132.392 41.8216 133.207 42.2743C134.068 42.727 135.02 42.9986 136.062 42.9986C137.784 42.9986 139.234 42.3196 140.412 40.9614L142.995 43.3156C142.18 44.3115 141.137 45.0812 139.914 45.6244C138.69 46.1677 137.331 46.394 135.836 46.394C134.068 46.4393 132.482 46.0771 131.078 45.3075Z" fill="#212121"/>
<path d="M158.946 42.9534V46.1677H145.578V28.9191H158.629V32.1334H149.566V35.891H157.586V39.0147H149.566V42.9987H158.946V42.9534Z" fill="#212121"/>
<path d="M173.673 29.6434C174.806 30.1414 175.667 30.8658 176.256 31.8165C176.845 32.7672 177.162 33.8537 177.162 35.1666C177.162 36.4342 176.845 37.5207 176.256 38.4714C175.667 39.4221 174.761 40.1465 173.673 40.6445C172.54 41.1425 171.226 41.4141 169.686 41.4141H166.196V46.1677H162.209V28.9191H169.686C171.226 28.8738 172.54 29.1454 173.673 29.6434ZM172.178 37.3396C172.812 36.8416 173.129 36.072 173.129 35.1213C173.129 34.1706 172.812 33.401 172.178 32.903C171.543 32.405 170.637 32.1334 169.459 32.1334H166.196V38.1093H169.459C170.637 38.1093 171.589 37.8829 172.178 37.3396Z" fill="#212121"/>
<path d="M194.2 38.6526C194.744 39.3769 195.061 40.2371 195.061 41.2784C195.061 42.8176 194.472 43.9947 193.339 44.8548C192.161 45.715 190.53 46.1225 188.355 46.1225H179.836V28.8738H187.902C189.895 28.8738 191.481 29.2813 192.614 30.0509C193.747 30.8205 194.291 31.9071 194.291 33.3558C194.291 34.2159 194.064 34.9856 193.656 35.6194C193.249 36.2532 192.614 36.7964 191.844 37.1586C192.841 37.4755 193.656 37.9735 194.2 38.6526ZM183.778 36.0268H187.494C188.355 36.0268 189.034 35.8457 189.488 35.4835C189.941 35.1214 190.167 34.6234 190.167 33.899C190.167 33.22 189.941 32.7219 189.488 32.3598C189.034 31.9976 188.4 31.8165 187.539 31.8165H183.823V36.0268H183.778ZM190.983 40.9614C190.983 39.5127 190.031 38.8337 188.173 38.8337H183.778V43.1798H188.173C190.077 43.1798 190.983 42.4554 190.983 40.9614Z" fill="#212121"/>
<path d="M198.233 28.8738H202.221V40.1013L210.468 28.8738H214.229V46.1224H210.287V34.9403L202.04 46.1677H198.278V28.8738H198.233Z" fill="#212121"/>
<path d="M221.887 45.3075C220.482 44.5379 219.349 43.4966 218.534 42.1385C217.718 40.7803 217.31 39.2411 217.31 37.5208C217.31 35.8004 217.718 34.2612 218.534 32.903C219.349 31.5449 220.482 30.5036 221.887 29.734C223.292 28.9643 224.923 28.6022 226.69 28.6022C228.186 28.6022 229.545 28.8738 230.769 29.3718C231.992 29.9151 232.989 30.6394 233.805 31.6354L231.222 33.9895C230.044 32.6314 228.593 31.9523 226.872 31.9523C225.784 31.9523 224.832 32.1787 224.017 32.6766C223.156 33.1294 222.521 33.8084 222.068 34.6233C221.615 35.4835 221.343 36.4342 221.343 37.4755C221.343 38.562 221.57 39.5127 222.068 40.3276C222.521 41.1878 223.201 41.8216 224.017 42.2743C224.878 42.727 225.829 42.9986 226.872 42.9986C228.593 42.9986 230.044 42.3196 231.222 40.9614L233.805 43.3156C232.989 44.3115 231.947 45.0812 230.723 45.6244C229.5 46.1677 228.14 46.394 226.645 46.394C224.878 46.4393 223.292 46.0771 221.887 45.3075Z" fill="#212121"/>
<path d="M97.9989 32.1334H92.4706V46.1225H88.5283V32.1334H83V28.8738H97.9989V32.1334Z" fill="#2580D2"/>
<path d="M103.663 45.3075C102.258 44.5379 101.125 43.4966 100.31 42.1385C99.494 40.7803 99.0862 39.2411 99.0862 37.5208C99.0862 35.8004 99.494 34.2612 100.31 32.903C101.125 31.5449 102.258 30.5036 103.663 29.734C105.068 28.9643 106.699 28.6022 108.466 28.6022C109.962 28.6022 111.321 28.8738 112.544 29.3718C113.768 29.9151 114.765 30.6394 115.58 31.6354L112.998 33.9895C111.819 32.6314 110.369 31.9523 108.647 31.9523C107.56 31.9523 106.608 32.1787 105.793 32.6766C104.932 33.1294 104.297 33.8084 103.844 34.6233C103.391 35.4835 103.119 36.4342 103.119 37.4755C103.119 38.562 103.346 39.5127 103.844 40.3276C104.297 41.1878 104.977 41.8216 105.793 42.2743C106.654 42.727 107.605 42.9986 108.647 42.9986C110.369 42.9986 111.819 42.3196 112.998 40.9614L115.58 43.3156C114.765 44.3115 113.723 45.0812 112.499 45.6244C111.276 46.1677 109.916 46.394 108.421 46.394C106.654 46.4393 105.068 46.0771 103.663 45.3075Z" fill="#2580D2"/>
<path d="M117.167 37.6566H124.145V40.735H117.167V37.6566Z" fill="#2580D2"/>
</svg>
