<svg width="30" height="30" viewBox="0 0 30 30" fill="none" xmlns="http://www.w3.org/2000/svg">
<path fill-rule="evenodd" clip-rule="evenodd" d="M15 30C23.2843 30 30 23.2843 30 15C30 6.71573 23.2843 0 15 0C6.71573 0 0 6.71573 0 15C0 23.2843 6.71573 30 15 30ZM9.53906 7.02344C9.98438 7.04688 10.2188 7.07031 10.5 7.77344C10.6135 8.03597 10.7722 8.41666 10.9421 8.82445C11.3335 9.76362 11.7848 10.8465 11.8828 10.9609C12 11.1953 12.0938 11.5 11.9531 11.7812C11.8395 12.0085 11.7258 12.144 11.5751 12.3237C11.5393 12.3663 11.5014 12.4115 11.4609 12.4609C11.3837 12.5459 11.3091 12.6232 11.2361 12.6987C11.0876 12.8524 10.9461 12.9989 10.8047 13.1875L10.8025 13.19C10.5921 13.4237 10.3603 13.6813 10.6172 14.125C10.875 14.5469 11.7656 16 13.0547 17.1484C14.5575 18.5031 15.8119 19.0167 16.4034 19.2589C16.4668 19.2848 16.5226 19.3077 16.5703 19.3281C16.9219 19.4922 17.3672 19.4453 17.625 19.1641C17.9019 18.8673 18.2456 18.387 18.5998 17.8921C18.6652 17.8006 18.7311 17.7086 18.7969 17.6172C19.1016 17.1953 19.4766 17.1484 19.875 17.2891C20.1841 17.3921 21.412 17.9986 22.2214 18.3983C22.5165 18.5441 22.756 18.6624 22.875 18.7188C22.9888 18.7787 23.092 18.8294 23.1844 18.8749C23.4534 19.0072 23.6315 19.0948 23.7188 19.2344C23.8125 19.4219 23.8125 20.2891 23.4609 21.3203C23.0859 22.3281 21.6562 23.1719 20.5078 23.4297C19.7344 23.5938 18.7031 23.7344 15.2578 22.3047C11.1566 20.6249 8.39553 16.6102 7.86278 15.8355C7.82315 15.7779 7.79585 15.7382 7.78125 15.7188L7.77897 15.7157C7.55928 15.4228 6 13.344 6 11.1953C6 9.06167 7.05563 8.00662 7.50922 7.55327C7.51403 7.54847 7.51877 7.54373 7.52344 7.53906C7.875 7.16406 8.48438 7 9.04688 7C9.13207 7 9.22358 7.00632 9.31156 7.0124C9.39302 7.01802 9.47146 7.02344 9.53906 7.02344Z" fill="#2580D2"/>
</svg>
