<svg width="34" height="32" viewBox="0 0 34 32" fill="none" xmlns="http://www.w3.org/2000/svg">
<path d="M23.5521 31L15.4003 27.596C14.6099 27.259 14.2486 26.349 14.5761 25.5738L14.6664 25.3604C15.0051 24.574 15.9197 24.2145 16.6987 24.5403L20.402 26.0794L18.9907 22.6754L16.089 15.6427C15.7616 14.8563 16.1455 13.9464 16.9358 13.6206L17.06 13.5756C17.8504 13.2498 18.7649 13.6318 19.081 14.4182L21.294 19.7882L27.1765 18.4401C27.1765 18.4401 29.1185 18.0693 30.0895 20.4061L32.2686 27.1691" stroke="#2580D2" stroke-width="1.5" stroke-miterlimit="10" stroke-linecap="round" stroke-linejoin="round"/>
<path d="M8.23077 13.2049C8.23077 14.4856 9.34855 15.5192 10.7373 15.5192C12.1148 15.5192 13.2438 14.4856 13.2438 13.2049C13.2438 11.9242 11.9115 11.3625 10.7373 10.7783C9.55178 10.1829 8.21948 9.62118 8.21948 8.34047C8.21948 7.05977 9.33726 6.02621 10.7147 6.02621C12.0922 6.02621 13.2213 7.05977 13.2213 8.34047" stroke="#2580D2" stroke-width="1.5" stroke-miterlimit="10" stroke-linecap="round"/>
<path d="M10.7146 6.01498V4.43095" stroke="#2580D2" stroke-width="1.5" stroke-miterlimit="10" stroke-linecap="round"/>
<path d="M10.7146 17.1144V15.5304" stroke="#2580D2" stroke-width="1.5" stroke-miterlimit="10" stroke-linecap="round"/>
<path d="M15.0841 19.4399C14.5648 19.6983 14.0228 19.9005 13.447 20.069C8.26458 21.5407 2.85634 18.5524 1.37726 13.3959C0.620788 10.7671 1.03854 8.07085 2.3031 5.86893" stroke="#2580D2" stroke-width="1.5" stroke-miterlimit="10" stroke-linecap="round" stroke-linejoin="round"/>
<path d="M4.42578 3.32999C5.45323 2.45371 6.69521 1.77966 8.08396 1.37522C13.2664 -0.0964652 18.6746 2.89185 20.1537 8.04838C20.5602 9.48637 20.6279 10.9356 20.4021 12.3174" stroke="#2580D2" stroke-width="1.5" stroke-miterlimit="10" stroke-linecap="round" stroke-linejoin="round"/>
</svg>
