<svg width="32" height="32" viewBox="0 0 32 32" fill="none" xmlns="http://www.w3.org/2000/svg">
<path d="M30.3194 16.0055V19.4084H22.1416V11.9111H28.2777" stroke="#2580D2" stroke-width="1.5" stroke-miterlimit="10" stroke-linecap="round" stroke-linejoin="round"/>
<path d="M30.3194 23.5028H22.1416V31.0001H30.3194V23.5028Z" stroke="#2580D2" stroke-width="1.5" stroke-miterlimit="10" stroke-linecap="round" stroke-linejoin="round"/>
<path d="M24.1833 15.325L26.2251 17.3667L31 11.9111" stroke="#2580D2" stroke-width="1.5" stroke-miterlimit="10" stroke-linecap="round" stroke-linejoin="round"/>
<path d="M30.3194 5.0944V8.49726H22.1416V1H28.2777" stroke="#2580D2" stroke-width="1.5" stroke-miterlimit="10" stroke-linecap="round" stroke-linejoin="round"/>
<path d="M24.1833 4.41383L26.2251 6.45554L31 1" stroke="#2580D2" stroke-width="1.5" stroke-miterlimit="10" stroke-linecap="round" stroke-linejoin="round"/>
<path d="M11.9111 14.6334C14.9627 14.6334 17.3667 12.405 17.3667 9.17783V6.45554C17.3667 3.22832 14.9627 1 11.9111 1C8.85952 1 6.45557 3.22832 6.45557 6.45554V9.17783C6.45557 12.416 8.85952 14.6334 11.9111 14.6334Z" stroke="#2580D2" stroke-width="1.5" stroke-miterlimit="10" stroke-linecap="round" stroke-linejoin="round"/>
<path d="M19.4083 18.5302C17.0154 17.2898 13.8869 16.686 11.9111 16.686C8.32162 16.686 1 18.6729 1 22.8222V28.2777" stroke="#2580D2" stroke-width="1.5" stroke-miterlimit="10" stroke-linecap="round" stroke-linejoin="round"/>
</svg>
