<svg width="255" height="172" viewBox="0 0 255 172" fill="none" xmlns="http://www.w3.org/2000/svg">
<path d="M188.353 99.5293H219.676C238.647 99.5293 254.088 84.0881 254.088 65.1176V15.7059C254.088 7.61764 247.47 1 239.382 1H15.7059C7.61764 1 1 7.61764 1 15.7059V64.9705C1 84.0881 16.4412 99.5293 35.4117 99.5293H63.3529" stroke="#2580D2" stroke-width="1.5" stroke-miterlimit="10"/>
<path d="M20.5588 81.294C20.5588 84.5293 23.2059 87.0293 26.2941 87.0293H228.647C231.882 87.0293 234.382 84.3822 234.382 81.294V72.1763C234.382 68.941 231.735 66.441 228.647 66.441H26.2941C23.0588 66.441 20.5588 69.0881 20.5588 72.1763V81.294V81.294Z" stroke="#2580D2" stroke-width="1.5" stroke-miterlimit="10"/>
<path d="M239.823 21.1471C239.823 15.2647 235.117 10.5588 229.235 10.5588C223.353 10.5588 218.647 15.2647 218.647 21.1471C218.647 27.0294 223.353 31.7353 229.235 31.7353C235.117 31.7353 239.823 26.8823 239.823 21.1471Z" stroke="#2580D2" stroke-width="1.5" stroke-miterlimit="10"/>
<path d="M231.588 54.0881H23.5" stroke="#2580D2" stroke-width="1.5" stroke-miterlimit="10"/>
<path d="M76.8823 92.9119C74.5294 97.3236 72.3235 102.324 72.3235 111.441C72.3235 121.441 74.9705 126.588 77.6176 131.441C79.9705 135.853 82.1764 140.118 82.1764 148.647C82.1764 157.177 79.9705 161.441 77.6176 165.853C76.7352 167.471 75.8529 169.088 75.1176 171" stroke="#2580D2" stroke-width="1.5" stroke-miterlimit="10"/>
<path d="M110.559 92.9119C108.206 97.3236 106 102.324 106 111.441C106 121.441 108.647 126.588 111.294 131.441C113.647 135.853 115.853 140.118 115.853 148.647C115.853 157.177 113.647 161.441 111.294 165.853C110.412 167.471 109.53 169.088 108.794 171" stroke="#2580D2" stroke-width="1.5" stroke-miterlimit="10"/>
<path d="M143.794 92.9119C141.441 97.3236 139.235 102.324 139.235 111.441C139.235 121.441 141.882 126.588 144.529 131.441C146.882 135.853 149.088 140.118 149.088 148.647C149.088 157.177 146.882 161.441 144.529 165.853C143.647 167.471 142.765 169.088 142.029 171" stroke="#2580D2" stroke-width="1.5" stroke-miterlimit="10"/>
<path d="M176.882 92.9119C174.529 97.3236 172.323 102.324 172.323 111.441C172.323 121.441 174.97 126.588 177.617 131.441C179.97 135.853 182.176 140.118 182.176 148.647C182.176 157.177 179.97 161.441 177.617 165.853C176.735 167.471 175.853 169.088 175.117 171" stroke="#2580D2" stroke-width="1.5" stroke-miterlimit="10"/>
<path d="M32.4833 13.1431C31.6125 12.2658 30.1344 12.1488 28.4075 12.6679C29.5051 12.4924 30.4198 12.6679 31.0125 13.26C32.6296 14.883 31.1661 18.9843 27.7489 22.4204C24.3316 25.8564 20.2558 27.3259 18.6386 25.7029C17.5117 24.5697 17.8849 22.2303 19.3704 19.752C17.0214 23.0857 16.2751 26.4193 17.7825 27.9327C19.6996 29.8627 24.5511 28.1154 28.605 24.036C32.6662 19.9494 34.4005 15.0731 32.4833 13.1431Z" fill="#2580D2"/>
<path d="M33.4274 12.975C33.9689 13.6476 34.1299 14.5541 33.9543 15.5995C34.5031 14.057 34.4738 12.7045 33.7275 11.8638C32.1835 10.1092 28.1223 11.1181 24.3464 14.0716C28.1588 11.7029 31.9566 11.1546 33.4274 12.975Z" fill="#2580D2"/>
<path d="M38.6447 23.1076C39.6618 23.1076 40.4301 23.2904 40.957 23.6486C41.4839 24.0068 41.7473 24.5332 41.7473 25.235C41.7473 25.7395 41.6668 26.2 41.4985 26.6314C41.3302 27.0627 41.0594 27.4282 40.6936 27.7426C40.3277 28.057 39.8521 28.2982 39.2667 28.4664C38.6813 28.6418 37.9788 28.7222 37.1519 28.7222H28.4441L30.7198 26.317H37.8105C38.1983 26.317 38.4837 26.2512 38.6666 26.1196C38.8422 25.988 38.9301 25.7906 38.9301 25.5202C38.9301 25.1473 38.6374 24.9645 38.052 24.9645H32.9517C31.8906 24.9645 31.1077 24.7598 30.6174 24.3504C30.1198 23.941 29.8783 23.3927 29.8783 22.7128C29.8783 22.2376 29.9588 21.799 30.1271 21.3896C30.2954 20.9875 30.5662 20.6293 30.932 20.3295C31.2979 20.0298 31.7735 19.7886 32.3516 19.6277C32.9297 19.4596 33.6249 19.3792 34.4518 19.3792H42.5742L40.2692 21.8063H33.7785C33.3834 21.8063 33.1053 21.8648 32.9224 21.9818C32.7468 22.0987 32.659 22.2961 32.659 22.5739C32.659 22.9248 32.959 23.1076 33.5517 23.1076H38.6447Z" fill="#2580D2"/>
<path d="M19.9265 17.2957H24.017L22.912 24.5698L26.1756 22.574L26.9293 17.2957H30.3539L31.0125 14.8612H21.9315L19.9265 17.2957Z" fill="#2580D2"/>
<path d="M63.532 26.7307C63.0333 26.4575 62.6311 26.0878 62.3416 25.6057C62.052 25.1235 61.9072 24.5771 61.9072 23.9664C61.9072 23.3557 62.052 22.8092 62.3416 22.3271C62.6311 21.8449 63.0333 21.4753 63.532 21.2021C64.0306 20.9289 64.6097 20.8003 65.2371 20.8003C65.768 20.8003 66.2506 20.8967 66.6849 21.0735C67.1192 21.2664 67.4731 21.5235 67.7627 21.8771L66.8458 22.7128C66.4275 22.2307 65.9127 21.9896 65.3015 21.9896C64.9154 21.9896 64.5776 22.0699 64.288 22.2467C63.9824 22.4074 63.7572 22.6485 63.5963 22.9378C63.4354 23.2432 63.3389 23.5807 63.3389 23.9503C63.3389 24.336 63.4193 24.6735 63.5963 24.9628C63.7572 25.2682 63.9985 25.4932 64.288 25.6539C64.5937 25.8146 64.9315 25.911 65.3015 25.911C65.9127 25.911 66.4275 25.67 66.8458 25.1878L67.7627 26.0235C67.4731 26.3771 67.1031 26.6503 66.6688 26.8432C66.2345 27.0361 65.7519 27.1164 65.221 27.1164C64.5937 27.1325 64.0306 27.0039 63.532 26.7307Z" fill="#2580D2"/>
<path d="M73.4252 25.8945V27.0356H68.6797V20.9124H73.3126V22.0534H70.0953V23.3874H72.9426V24.4963H70.0953V25.9106H73.4252V25.8945Z" fill="#2580D2"/>
<path d="M78.6534 21.1694C79.0555 21.3462 79.3612 21.6033 79.5703 21.9408C79.7794 22.2783 79.892 22.6641 79.892 23.1301C79.892 23.5801 79.7794 23.9658 79.5703 24.3033C79.3612 24.6408 79.0394 24.898 78.6534 25.0748C78.2512 25.2516 77.7847 25.348 77.2378 25.348H75.9991V27.0355H74.5835V20.9123H77.2378C77.7847 20.8962 78.2512 20.9926 78.6534 21.1694ZM78.1225 23.9016C78.3477 23.7248 78.4603 23.4516 78.4603 23.1141C78.4603 22.7766 78.3477 22.5033 78.1225 22.3265C77.8973 22.1498 77.5756 22.0533 77.1573 22.0533H75.9991V24.1748H77.1573C77.5756 24.1748 77.9134 24.0944 78.1225 23.9016Z" fill="#2580D2"/>
<path d="M85.9405 24.3678C86.1335 24.625 86.2461 24.9303 86.2461 25.3C86.2461 25.8464 86.037 26.2643 85.6348 26.5696C85.2166 26.875 84.6375 27.0196 83.8653 27.0196H80.8411V20.8964H83.7044C84.4123 20.8964 84.9753 21.041 85.3774 21.3142C85.7796 21.5874 85.9726 21.9732 85.9726 22.4874C85.9726 22.7928 85.8922 23.066 85.7474 23.291C85.6026 23.516 85.3774 23.7089 85.104 23.8375C85.4579 23.95 85.7474 24.1267 85.9405 24.3678ZM82.2406 23.4357H83.5597C83.8653 23.4357 84.1066 23.3714 84.2675 23.2428C84.4283 23.1142 84.5088 22.9374 84.5088 22.6803C84.5088 22.4392 84.4283 22.2624 84.2675 22.1339C84.1066 22.0053 83.8814 21.941 83.5758 21.941H82.2567V23.4357H82.2406ZM84.7983 25.1875C84.7983 24.6732 84.4605 24.4321 83.801 24.4321H82.2406V25.975H83.801C84.4766 25.975 84.7983 25.7178 84.7983 25.1875Z" fill="#2580D2"/>
<path d="M87.3723 20.8964H88.7879V24.8821L91.7156 20.8964H93.0508V27.0196H91.6513V23.0499L88.7236 27.0357H87.3884V20.8964H87.3723Z" fill="#2580D2"/>
<path d="M95.7693 26.7302C95.2706 26.457 94.8684 26.0873 94.5789 25.6052C94.2893 25.123 94.1445 24.5766 94.1445 23.9659C94.1445 23.3552 94.2893 22.8087 94.5789 22.3266C94.8684 21.8445 95.2706 21.4748 95.7693 21.2016C96.2679 20.9284 96.847 20.7998 97.4744 20.7998C98.0053 20.7998 98.4879 20.8962 98.9222 21.073C99.3565 21.2659 99.7104 21.523 100 21.8766L99.0831 22.7123C98.6648 22.2302 98.15 21.9891 97.5388 21.9891C97.1527 21.9891 96.8149 22.0695 96.5253 22.2462C96.2197 22.407 95.9945 22.648 95.8336 22.9373C95.6727 23.2427 95.5762 23.5802 95.5762 23.9498C95.5762 24.3355 95.6567 24.673 95.8336 24.9623C95.9945 25.2677 96.2358 25.4927 96.5253 25.6534C96.831 25.8141 97.1688 25.9106 97.5388 25.9106C98.15 25.9106 98.6648 25.6695 99.0831 25.1873L100 26.0231C99.7104 26.3766 99.3404 26.6498 98.9061 26.8427C98.4718 27.0356 97.9892 27.1159 97.4583 27.1159C96.831 27.132 96.2679 27.0034 95.7693 26.7302Z" fill="#2580D2"/>
<path d="M51.7892 22.0535H49.8267V27.0196H48.4271V22.0535H46.4646V20.8964H51.7892V22.0535Z" fill="#2580D2"/>
<path d="M53.7998 26.7302C53.3011 26.457 52.8989 26.0873 52.6094 25.6052C52.3198 25.123 52.175 24.5766 52.175 23.9659C52.175 23.3552 52.3198 22.8087 52.6094 22.3266C52.8989 21.8445 53.3011 21.4748 53.7998 21.2016C54.2985 20.9284 54.8776 20.7998 55.5049 20.7998C56.0358 20.7998 56.5184 20.8962 56.9527 21.073C57.387 21.2659 57.7409 21.523 58.0305 21.8766L57.1136 22.7123C56.6953 22.2302 56.1806 21.9891 55.5693 21.9891C55.1832 21.9891 54.8454 22.0695 54.5558 22.2462C54.2502 22.407 54.025 22.648 53.8641 22.9373C53.7033 23.2427 53.6067 23.5802 53.6067 23.9498C53.6067 24.3355 53.6872 24.673 53.8641 24.9623C54.025 25.2677 54.2663 25.4927 54.5558 25.6534C54.8615 25.8141 55.1993 25.9106 55.5693 25.9106C56.1806 25.9106 56.6953 25.6695 57.1136 25.1873L58.0305 26.0231C57.7409 26.3766 57.371 26.6498 56.9366 26.8427C56.5023 27.0356 56.0197 27.1159 55.4888 27.1159C54.8615 27.132 54.2985 27.0034 53.7998 26.7302Z" fill="#2580D2"/>
<path d="M58.5938 24.0143H61.0711V25.1071H58.5938V24.0143Z" fill="#2580D2"/>
</svg>
