<svg width="245" height="30" viewBox="0 0 245 30" fill="none" xmlns="http://www.w3.org/2000/svg">
<path d="M57.4085 29.3461L45.3429 29.3488L44.9297 29.3435L44.4898 29.3255L44.0392 29.2941L43.5786 29.2508L43.1074 29.1882L42.6281 29.1102L42.1416 29.0115L41.6497 28.8929L41.1551 28.7529L40.6605 28.5896L40.1633 28.4003L39.6661 28.185L39.1735 27.9384L38.6896 27.6638L38.211 27.3585L37.7425 27.0186L37.2865 26.6427L36.8466 26.2361L36.4247 25.7928L36.0248 25.3129L35.6475 24.795L35.2929 24.2452L34.9703 23.6573L34.6737 23.0354L34.4105 22.3742L34.1758 21.6797L33.9785 20.9505L33.8119 20.184L33.6839 19.3801L33.588 18.5403L33.5333 17.6645L33.512 16.7646V0.63454H40.4732V16.7753L40.4832 17.3552L40.5166 17.8818L40.5666 18.367L40.6345 18.8149L40.7179 19.2242L40.8138 19.6007L40.9232 19.94L41.0405 20.2479L41.1684 20.5259L41.3011 20.7772L41.441 21.0025L41.5877 21.2051L41.7377 21.3864L41.895 21.549L42.0529 21.7003L42.2196 21.8316L42.3915 21.9543L42.5715 22.0656L42.7555 22.1636L42.9487 22.2542L43.146 22.3349L43.352 22.4049L43.5606 22.4675L43.7739 22.5215L43.9925 22.5682L44.2165 22.6048L44.4378 22.6355L44.6617 22.6588L44.8857 22.6748L45.1096 22.6875L45.3283 22.6928L45.5382 22.6955H50.3986L50.8205 22.6928H57.4092L57.4085 29.3461ZM216.987 6.84263L216.711 6.77798L216.416 6.72665L216.103 6.68733L215.776 6.664L215.437 6.656L214.917 6.672L214.454 6.72066L214.032 6.79397L213.652 6.89195L213.308 7.0106L212.998 7.1479L212.717 7.30121L212.46 7.47251L212.222 7.65647L212.007 7.85643L211.804 8.07105L211.619 8.29901L211.447 8.54296L211.291 8.80224L211.144 9.07219L211.015 9.34946L210.9 9.63674L210.797 9.93001L210.705 10.2253L210.627 10.5232L210.559 10.8192L210.502 11.1091L210.458 11.3917L210.421 11.6637L210.393 11.9236L210.373 12.1696L210.356 12.3969L210.349 12.6021L210.343 12.7861L210.341 12.9467L210.338 13.0867V29.3935H203.38V0.647204H210.153V1.4897L210.421 1.33507L210.697 1.18176L210.978 1.04179L211.262 0.909818L211.548 0.787842L211.84 0.675865L212.132 0.572552L212.426 0.479237L212.722 0.395921L213.019 0.323269L213.319 0.256615L213.618 0.19996L213.92 0.15197L214.222 0.113977L214.524 0.0853163L214.826 0.0626541L215.128 0.0513231L215.433 0.0459908L215.981 0.0566553L216.517 0.0853163L217.039 0.13464L217.545 0.20196L218.038 0.287276L218.512 0.391255L218.972 0.507232L219.415 0.642538L219.845 0.789842L220.259 0.950477L220.657 1.12444L221.036 1.3084L221.402 1.5057L221.752 1.71099L222.086 1.92295L222.404 2.1429L222.705 2.36886L222.994 2.60215L223.267 2.83743L223.525 3.07738L223.77 3.31734L223.999 3.55796L224.083 3.65127L224.129 3.59995L224.398 3.32733L224.676 3.06605L224.96 2.8121L225.254 2.57082L225.554 2.33753L225.86 2.11491L226.173 1.90495L226.493 1.70233L226.819 1.51303L227.152 1.33507L227.487 1.16643L227.831 1.0078L228.178 0.860495L228.528 0.725855L228.885 0.601213L229.245 0.489902L229.609 0.388589L229.975 0.29794L230.345 0.219956L230.718 0.15197L231.093 0.0986469L231.47 0.0546557L231.85 0.0253283L232.233 0.0079984L232.616 0L233.058 0.0079984L233.511 0.0313271L233.977 0.0719856L234.45 0.13464L234.934 0.211958L235.426 0.310605L235.922 0.43258L236.421 0.577884L236.924 0.743851L237.425 0.937812L237.928 1.15843L238.428 1.40439L238.925 1.68166L239.412 1.98827L239.894 2.32487L240.363 2.69213L240.817 3.09471L241.257 3.52996L241.679 4.00187L242.08 4.50443L242.458 5.04366L242.812 5.61688L243.14 6.22342L243.437 6.86529L243.705 7.54249L243.939 8.25235L244.142 8.9962L244.311 9.77671L244.444 10.5912L244.54 11.4377L244.597 12.3222L244.618 13.2267V29.3935H237.657V13.2167L237.644 12.6328L237.613 12.1042L237.561 11.6117L237.491 11.1511L237.402 10.7259L237.301 10.3313L237.187 9.96601L237.059 9.63141L236.924 9.32347L236.777 9.04086L236.624 8.78091L236.463 8.54296L236.293 8.32567L236.119 8.12571L235.939 7.94374L235.755 7.77778L235.562 7.62514L235.367 7.48517L235.167 7.35853L234.96 7.24455L234.75 7.14124L234.536 7.04992L234.323 6.96994L234.102 6.89662L233.883 6.83463L233.665 6.78531L233.449 6.74132L233.235 6.70999L233.024 6.68466L232.818 6.66667L232.621 6.65867L232.428 6.65334L232.282 6.656L232.136 6.66133L231.99 6.672L231.844 6.68733L231.702 6.70533L231.558 6.72799L231.415 6.75665L231.275 6.78798L231.134 6.8213L230.996 6.85796L230.861 6.89929L230.723 6.94661L230.59 6.99327L230.457 7.04459L230.33 7.09658L230.203 7.15657L230.077 7.21656L229.957 7.27588L229.838 7.33987L229.721 7.40785L229.609 7.47451L229.502 7.54516L229.393 7.61714L229.291 7.69046L229.098 7.84043L229.01 7.91575L228.924 7.99373L228.844 8.06839L228.768 8.14637L228.695 8.22102L228.632 8.29434L228.523 8.42898L228.422 8.55829L228.33 8.69026L228.244 8.82357L228.164 8.95554L228.091 9.08952L228.023 9.22682L227.961 9.36413L227.904 9.50143L227.849 9.64474L227.8 9.78738L227.756 9.93268L227.714 10.0793L227.678 10.2306L227.646 10.3806L227.615 10.5339L227.588 10.6892L227.568 10.8498L227.547 11.0078L227.532 11.1684L227.519 11.3317L227.505 11.4984L227.498 11.661L227.49 11.8296L227.485 11.9956L227.48 12.3382V12.5082L227.477 12.6795V12.8508L227.48 13.0241V29.3935H220.519V13.2087L220.514 12.7994L220.495 12.4102L220.467 12.0323L220.428 11.6657L220.378 11.3117L220.319 10.9718L220.248 10.6425L220.167 10.3259L220.079 10.0227L219.98 9.73539L219.871 9.46077L219.753 9.20149L219.628 8.95488L219.495 8.72426L219.355 8.5063L219.207 8.30234L219.05 8.10971L218.889 7.93108L218.72 7.76511L218.54 7.61181L218.353 7.47051L218.156 7.3372L217.947 7.21589L217.726 7.10724L217.494 7.00593L217.247 6.91795L216.987 6.84263ZM185.03 6.664L184.598 6.69733L184.177 6.74998L183.765 6.8193L183.365 6.91262L182.977 7.02126L182.597 7.1479L182.23 7.29321L181.873 7.45651L181.527 7.63647L181.194 7.83043L180.87 8.04306L180.564 8.26835L180.264 8.50897L179.981 8.76625L179.707 9.03819L179.447 9.3208L179.202 9.62074L178.971 9.93268L178.752 10.2559L178.552 10.5959L178.362 10.9458L178.19 11.3057L178.033 11.679L177.895 12.0656L177.773 12.4595L177.666 12.8661L177.581 13.2833L177.511 13.7086L177.461 14.1438L177.433 14.5904L177.422 15.041L177.433 15.4942L177.461 15.9375L177.511 16.3741L177.581 16.7986L177.666 17.2132L177.77 17.6178L177.895 18.0111L178.033 18.395L178.19 18.7656L178.362 19.1255L178.549 19.4734L178.752 19.8074L178.968 20.132L179.2 20.4406L179.445 20.7385L179.702 21.0211L179.975 21.2877L180.259 21.5424L180.559 21.783L180.868 22.0089L181.188 22.2156L181.522 22.4102L181.868 22.5895L182.225 22.7495L182.591 22.8921L182.971 23.0187L183.363 23.128L183.763 23.2194L184.174 23.2913L184.598 23.344L185.03 23.374L185.474 23.3847L185.919 23.374L186.351 23.344L186.775 23.2907L187.186 23.2194L187.587 23.128L187.977 23.0194L188.358 22.8928L188.724 22.7501L189.082 22.5895L189.427 22.4095L189.761 22.2156L190.081 22.0089L190.39 21.783L190.69 21.5424L190.973 21.2884L191.244 21.0218L191.504 20.7385L191.75 20.4406L191.981 20.132L192.197 19.8074L192.4 19.4734L192.587 19.1262L192.759 18.7656L192.915 18.395L193.054 18.0117L193.175 17.6178L193.282 17.2132L193.369 16.7986L193.439 16.3741L193.488 15.9375L193.517 15.4942L193.527 15.041L193.517 14.5877L193.488 14.1438L193.439 13.7086L193.368 13.2833L193.282 12.8661L193.175 12.4595L193.054 12.0649L192.915 11.6783L192.759 11.3057L192.587 10.9458L192.4 10.5959L192.197 10.2559L191.978 9.93268L191.747 9.62141L191.502 9.3208L191.242 9.03819L190.968 8.76625L190.685 8.50897L190.388 8.26835L190.075 8.03973L189.755 7.83043L189.422 7.63581L189.076 7.45651L188.72 7.29321L188.352 7.1479L187.972 7.02126L187.585 6.91262L187.183 6.8193L186.772 6.74998L186.35 6.69733L185.919 6.664L185.474 6.65334L185.03 6.664ZM186.257 0.0639872L187.03 0.119309L187.79 0.212624L188.54 0.339265L189.274 0.4999L189.992 0.697194L190.697 0.927148L191.385 1.18976L192.054 1.48237L192.705 1.80631L193.335 2.16423L193.946 2.54749L194.534 2.96007L195.102 3.39999L195.644 3.86989L196.165 4.36179L196.659 4.88036L197.125 5.42225L197.567 5.98747L197.981 6.57535L198.366 7.18523L198.723 7.8171L199.049 8.46564L199.342 9.13351L199.605 9.8207L199.834 10.5232L200.032 11.2431L200.193 11.9776L200.324 12.7241L200.415 13.486L200.469 14.2585L200.488 15.041L200.469 15.8262L200.415 16.5987L200.321 17.3585L200.193 18.1077L200.029 18.8409L199.831 19.5588L199.6 20.2613L199.335 20.9478L199.038 21.6143L198.71 22.2629L198.354 22.8921L197.966 23.5013L197.553 24.0878L197.107 24.6497L196.637 25.1916L196.141 25.7069L195.623 26.2001L195.079 26.6633L194.511 27.1019L193.92 27.5145L193.311 27.8944L192.681 28.2477L192.03 28.5716L191.361 28.8649L190.677 29.1235L189.974 29.3515L189.255 29.5481L188.524 29.7087L187.779 29.8367L187.022 29.9267L186.254 29.9813L185.474 30L184.695 29.9813L183.927 29.9267L183.17 29.8367L182.425 29.7087L181.694 29.5488L180.975 29.3515L180.275 29.1235L179.588 28.8649L178.919 28.5716L178.27 28.247L177.638 27.8951L177.029 27.5145L176.438 27.1019L175.87 26.6633L175.326 26.1994L174.806 25.7069L174.312 25.1916L173.843 24.6497L173.4 24.0878L172.983 23.5013L172.596 22.8921L172.239 22.2629L171.911 21.6143L171.614 20.9478L171.351 20.2613L171.118 19.5588L170.92 18.8402L170.756 18.107L170.628 17.3585L170.535 16.5987L170.48 15.8262L170.459 15.041L170.48 14.2585L170.535 13.4853L170.625 12.7241L170.753 11.9776L170.917 11.2438L171.115 10.5232L171.343 9.8207L171.606 9.13351L171.9 8.46564L172.227 7.8171L172.583 7.18523L172.968 6.57535L173.381 5.98747L173.825 5.42225L174.29 4.88036L174.784 4.36246L175.306 3.86656L175.847 3.39999L176.415 2.96007L177.006 2.54749L177.615 2.16423L178.248 1.80631L178.898 1.48237L179.564 1.18976L180.255 0.927148L180.956 0.697194L181.678 0.4999L182.41 0.339932L183.159 0.211958L183.919 0.118643L184.692 0.0639872L185.474 0.0459908L186.257 0.0639872ZM168.158 18.4963L166.796 21.3731L166.598 21.7676L166.387 22.1609L166.163 22.5582L165.924 22.9521L165.672 23.3453L165.403 23.7399L165.117 24.1312L164.817 24.5178L164.503 24.901L164.173 25.2776L163.823 25.6475L163.456 26.0108L163.073 26.3654L162.673 26.7107L162.254 27.0453L161.817 27.3659L161.361 27.6745L160.887 27.9671L160.395 28.247L159.882 28.5096L159.353 28.7529L158.804 28.9789L158.237 29.1828L157.652 29.3701L157.05 29.5301L156.428 29.6707L155.788 29.7867L155.132 29.88L154.455 29.9453L153.762 29.9867L153.049 30L152.164 29.9787L151.3 29.9167L150.454 29.81L149.631 29.6681L148.832 29.4834L148.056 29.2635L147.307 29.0042L146.577 28.7109L145.878 28.3843L145.204 28.0271L144.557 27.6378L143.936 27.2179L143.345 26.772L142.783 26.3007L142.246 25.8035L141.742 25.2843L141.265 24.743L140.82 24.1805L140.403 23.5999L140.015 23.0041L139.659 22.3895L139.333 21.765L139.037 21.1251L138.772 20.4739L138.534 19.81L138.331 19.1395L138.157 18.4623L138.014 17.7758L137.904 17.0859L137.824 16.3914L137.776 15.6942L137.758 14.9943L137.774 14.3411L137.824 13.6853L137.899 13.0301L138.008 12.3709L138.146 11.713L138.316 11.0598L138.514 10.4093L138.743 9.76405L139.003 9.12418L139.292 8.49363L139.609 7.87176L139.958 7.26188L140.335 6.664L140.744 6.08078L141.184 5.51223L141.653 4.96301L142.153 4.43245L142.681 3.92388L143.241 3.43731L143.829 2.97474L144.446 2.53949L145.094 2.13291L145.769 1.75698L146.473 1.41505L147.205 1.10645L147.965 0.8345L148.752 0.59788L149.561 0.401253L150.399 0.24795L151.261 0.137306L152.146 0.0666533L153.046 0.0459908L153.661 0.0566553L154.265 0.0879824L154.858 0.139305L155.444 0.214624L156.021 0.307938L156.589 0.422582L157.149 0.554556L157.698 0.709858L158.237 0.883157L158.765 1.07512L159.283 1.28774L159.789 1.51636L160.283 1.76431L160.767 2.02893L161.238 2.3142L161.694 2.61414L162.139 2.93141L162.571 3.26335L162.991 3.61261L163.394 3.97854L163.785 4.35646L164.159 4.75372L164.521 5.1603L164.865 5.58288L165.195 6.01813L165.51 6.46671L165.81 6.92795L166.093 7.40252L166.359 7.88709L166.609 8.38499L166.843 8.89289L168.071 11.819H160.519L159.796 10.4792L159.583 10.124L159.361 9.79471L159.132 9.4921L158.901 9.20683L158.661 8.94421L158.42 8.70426L158.172 8.47764L157.922 8.27101L157.669 8.08172L157.415 7.90575L157.157 7.74712L156.902 7.59981L156.644 7.46717L156.389 7.3472L156.131 7.24189L155.878 7.14324L155.628 7.05792L155.384 6.9846L155.145 6.91795L154.91 6.86063L154.686 6.81397L154.468 6.77531L154.26 6.74132L154.059 6.71532L153.875 6.69533L153.703 6.67866L153.541 6.66933L153.395 6.66133L153.265 6.656L153.151 6.65334H153.067L152.591 6.664L152.14 6.69733L151.7 6.74932L151.271 6.82464L150.855 6.91528L150.449 7.0266L150.055 7.1559L149.673 7.30387L149.3 7.47051L148.942 7.65114L148.598 7.84843L148.262 8.06039L147.942 8.28901L147.634 8.53229L147.341 8.78891L147.059 9.06152L146.791 9.3468L146.539 9.64474L146.301 9.95334L146.077 10.2766L145.87 10.6112L145.678 10.9565L145.503 11.3137L145.344 11.6817L145.201 12.0576L145.076 12.4468L144.969 12.8428L144.88 13.2474L144.813 13.6626L144.761 14.0818L144.732 14.5124L144.722 14.9477L144.732 15.3989L144.766 15.8388L144.818 16.2721L144.894 16.6947L144.987 17.1092L145.102 17.5132L145.235 17.9104L145.386 18.2937L145.555 18.6703L145.74 19.0322L145.942 19.3855L146.161 19.7274L146.395 20.054L146.645 20.3726L146.908 20.6759L147.185 20.9638L147.476 21.2418L147.78 21.5004L148.096 21.749L148.421 21.9796L148.759 22.1949L149.108 22.3922L149.467 22.5755L149.834 22.7388L150.211 22.8868L150.597 23.0167L150.988 23.1254L151.388 23.2187L151.794 23.288L152.208 23.3413L152.627 23.374L153.062 23.3847L153.322 23.3793L153.591 23.3693L153.859 23.3487L154.122 23.3193L154.384 23.2813L154.644 23.2367L154.903 23.1847L155.158 23.1227L155.407 23.0561L155.657 22.9781L155.902 22.8948L156.144 22.8041L156.381 22.7035L156.615 22.5968L156.847 22.4835L157.073 22.3609L157.295 22.2316L157.514 22.0942L157.727 21.9489L157.935 21.7956L158.141 21.6377L158.341 21.469L158.534 21.2957L158.724 21.1138L158.908 20.9251L159.088 20.7279L159.26 20.5259L159.427 20.3133L159.591 20.0933L159.744 19.8674L159.895 19.6321L160.567 18.4963H168.158ZM119.336 6.664L118.918 6.69533L118.506 6.74665L118.097 6.8193L117.698 6.90995L117.309 7.0186L116.926 7.14524L116.551 7.29321L116.187 7.45651L115.83 7.63647L115.484 7.8351L115.148 8.04839L114.825 8.27834L114.51 8.5223L114.211 8.78358L113.922 9.05886L113.649 9.3468L113.389 9.6494L113.141 9.96601L112.909 10.2946L112.691 10.6372L112.491 10.9891L112.306 11.3577L112.139 11.733L111.99 12.1222L111.858 12.5222L111.743 12.9341L111.65 13.354L111.576 13.7839L111.522 14.2238L111.488 14.6757L111.477 15.1343L111.488 15.5802L111.522 16.0161L111.579 16.4427L111.654 16.8606L111.751 17.2672L111.866 17.6671L112.001 18.0531L112.154 18.4283L112.326 18.7949L112.514 19.1522L112.72 19.4948L112.941 19.8287L113.177 20.1473L113.43 20.4559L113.696 20.7512L113.976 21.0338L114.271 21.3004L114.575 21.557L114.895 21.7956L115.226 22.0216L115.567 22.2316L115.919 22.4235L116.281 22.6015L116.65 22.7608L117.028 22.9028L117.413 23.0294L117.806 23.136L118.204 23.224L118.61 23.294L119.022 23.344L119.435 23.374L119.855 23.3847L120.284 23.374L120.705 23.344L121.122 23.2887L121.528 23.2187L121.926 23.128L122.317 23.0167L122.697 22.8901L123.069 22.7441L123.431 22.5815L123.785 22.4029L124.129 22.2056L124.459 21.9923L124.779 21.7676L125.086 21.5237L125.384 21.2671L125.667 20.9971L125.935 20.7125L126.193 20.4166L126.433 20.1093L126.659 19.7867L126.873 19.4548L127.068 19.1135L127.248 18.7576L127.409 18.395L127.554 18.0217L127.682 17.6411L127.791 17.2492L127.882 16.85L127.956 16.4434L128.004 16.0315L128.036 15.6089L128.049 15.1783L128.038 14.7304L128.007 14.2865L127.955 13.8539L127.882 13.4266L127.791 13.0087L127.684 12.5988L127.556 12.2009L127.411 11.8116L127.25 11.4324L127.07 11.0658L126.875 10.7099L126.665 10.3653L126.438 10.0307L126.195 9.71206L125.941 9.40612L125.67 9.11284L125.386 8.8329L125.092 8.56895L124.782 8.32034L124.459 8.08705L124.126 7.86843L123.783 7.66713L123.429 7.48317L123.061 7.31454L122.684 7.1639L122.296 7.03126L121.898 6.92062L121.489 6.82464L121.072 6.75198L120.646 6.69733L120.209 6.664L119.763 6.65334L119.336 6.664ZM114.604 0.821169L115.398 0.589882L116.217 0.396587L117.064 0.245951L117.938 0.13464L118.839 0.0666533L119.745 0.0466573H119.992L120.24 0.0513231L120.505 0.0593215L120.783 0.0726521L121.078 0.0879824L121.385 0.113977L121.705 0.145304L122.036 0.183297L122.377 0.229954L122.73 0.289942L123.093 0.357262L123.465 0.437246L123.843 0.530561L124.227 0.637206L124.618 0.758515L125.014 0.893821L125.415 1.04712L125.818 1.21509L126.224 1.40439L126.633 1.60968L127.039 1.8343L127.445 2.08358L127.851 2.3502L128.049 2.49617V0.644538H134.822V29.3935H128.049V27.3225L127.963 27.3892L127.635 27.6298L127.294 27.8638L126.941 28.0897L126.567 28.3097L126.185 28.519L125.784 28.7189L125.37 28.9056L124.941 29.0848L124.498 29.2481L124.041 29.3988L123.567 29.5328L123.08 29.6527L122.577 29.756L122.062 29.8414L121.53 29.9114L120.987 29.9607L120.427 29.9893L119.849 30L119.066 29.9813L118.287 29.9293L117.519 29.8394L116.765 29.7167L116.02 29.5594L115.291 29.3675L114.578 29.1442L113.878 28.8876L113.198 28.5996L112.534 28.281L111.889 27.9311L111.264 27.5525L110.663 27.1432L110.08 26.708L109.523 26.2441L108.99 25.7508L108.478 25.233L107.998 24.6884L107.542 24.1205L107.113 23.5273L106.714 22.9134L106.347 22.2729L106.008 21.6143L105.704 20.9331L105.43 20.2333L105.194 19.5148L104.991 18.7789L104.822 18.0244L104.688 17.2552L104.592 16.4687L104.536 15.6709L104.517 14.8597L104.53 14.2145L104.574 13.566L104.647 12.9154L104.752 12.2649L104.881 11.6143L105.042 10.9665L105.232 10.3213L105.454 9.6834L105.704 9.04886L105.982 8.42365L106.292 7.80644L106.631 7.19989L107.003 6.60668L107.401 6.02679L107.834 5.46357L108.296 4.91702L108.788 4.38779L109.311 3.88189L109.869 3.40065L110.455 2.94141L111.072 2.50817L111.717 2.10758L112.397 1.73632L113.102 1.39639L113.839 1.09045L114.604 0.821169ZM74.0425 6.84263L73.7639 6.77798L73.4693 6.72665L73.16 6.68733L72.8294 6.664L72.4915 6.656L71.9729 6.672L71.507 6.72066L71.0878 6.79397L70.7079 6.89195L70.3646 7.0106L70.0547 7.1479L69.7714 7.30121L69.5134 7.47251L69.2788 7.65647L69.0602 7.85643L68.8596 8.07105L68.6723 8.29901L68.503 8.54296L68.3443 8.80224L68.201 9.06885L68.0711 9.34946L67.9537 9.63674L67.8498 9.93001L67.7585 10.2253L67.6805 10.5232L67.6152 10.8192L67.5578 11.1091L67.5112 11.3917L67.4745 11.6637L67.4485 11.9236L67.4285 12.1696L67.4119 12.3969L67.4019 12.6021L67.3965 12.7861L67.3939 12.9467V29.3935H60.4346V0.647204H67.2099V1.4897L67.4752 1.33507L67.7538 1.18176L68.0324 1.04179L68.3163 0.909818L68.6056 0.787842L68.8942 0.675865L69.1862 0.572552L69.4828 0.481904L69.776 0.395921L70.074 0.323269L70.3726 0.256615L70.6745 0.19996L70.9745 0.15197L71.2757 0.113977L71.5777 0.0853163L71.8803 0.0626541L72.1822 0.0513231L72.4868 0.0459908L73.0361 0.0566553L73.5726 0.0853163L74.0952 0.13464L74.6004 0.20196L75.0923 0.287276L75.5689 0.391255L76.0268 0.507232L76.472 0.642538L76.8986 0.789842L77.3125 0.950477L77.7111 1.12444L78.0911 1.3084L78.4583 1.5057L78.8069 1.71099L79.1402 1.92295L79.4581 2.1429L79.7627 2.36886L80.048 2.60215L80.3219 2.83743L80.5819 3.07738L80.8238 3.31734L81.0558 3.55796L81.1391 3.65127L81.1838 3.59995L81.4517 3.32733L81.7303 3.06605L82.0169 2.8121L82.3082 2.57082L82.6075 2.33753L82.9141 2.11491L83.2274 1.90495L83.5473 1.70233L83.8752 1.51303L84.2058 1.33507L84.5418 1.16643L84.885 1.0078L85.2343 0.860495L85.5856 0.725855L85.9388 0.601213L86.2987 0.489902L86.6627 0.388589L87.0299 0.29794L87.3999 0.219956L87.7745 0.15197L88.1497 0.0986469L88.527 0.0546557L88.9069 0.0253283L89.2868 0.0079984L89.6694 0L90.112 0.0079984L90.5679 0.0313271L91.0311 0.0719856L91.5077 0.13464L91.9889 0.211958L92.4815 0.310605L92.9781 0.43258L93.4753 0.577884L93.9779 0.743851L94.4831 0.937812L94.985 1.15843L95.4849 1.40439L95.9795 1.68166L96.4687 1.98827L96.9486 2.32487L97.4165 2.69213L97.8724 3.09471L98.3123 3.52996L98.7336 4.00187L99.1342 4.50443L99.5114 5.04366L99.866 5.61688L100.194 6.22342L100.491 6.86529L100.759 7.54249L100.996 8.25235L101.199 8.9962L101.366 9.77671L101.498 10.5912L101.594 11.4377L101.652 12.3222L101.673 13.2267V29.3935H94.7117V13.2167L94.7017 12.6328L94.6677 12.1042L94.6157 11.6097L94.5451 11.1511L94.4585 10.7225L94.3578 10.3293L94.2405 9.96267L94.1158 9.62941L93.9779 9.3208L93.8319 9.03819L93.6786 8.77824L93.5166 8.54029L93.3473 8.32234L93.176 8.12571L92.9961 7.94374L92.8094 7.77644L92.6195 7.62248L92.4209 7.48517L92.2209 7.35853L92.0143 7.24455L91.807 7.14124L91.5937 7.04992L91.3771 6.96727L91.1584 6.89662L90.9398 6.83463L90.7212 6.78531L90.5052 6.74132L90.2893 6.70999L90.078 6.68466L89.8727 6.66667L89.6747 6.65867L89.4828 6.65334L89.3361 6.656L89.1908 6.66133L89.0442 6.672L88.9022 6.68733L88.7556 6.70733L88.613 6.72799L88.4723 6.75665L88.329 6.78798L88.1884 6.8213L88.0504 6.85796L87.9151 6.89929L87.7798 6.94394L87.6445 6.99327L87.5145 7.04193L87.3865 7.09658L87.2599 7.1539L87.1339 7.21389L87.0119 7.27588L86.892 7.33987L86.7773 7.40519L86.6653 7.47517L86.556 7.54516L86.4494 7.61714L86.3487 7.69046L86.2488 7.76511L86.1554 7.84043L86.0675 7.91575L85.9808 7.99373L85.9008 8.06839L85.8248 8.14637L85.7515 8.22102L85.6869 8.29434L85.5776 8.42898L85.4762 8.55829L85.3849 8.69026L85.2983 8.82357L85.2183 8.95754L85.145 9.09285L85.0777 9.22682L85.013 9.36413L84.9557 9.5041L84.9037 9.64407L84.8537 9.79004L84.8097 9.93468L84.7677 10.08L84.7317 10.2306L84.6691 10.5366L84.6224 10.8472L84.6011 11.0078L84.5858 11.1684L84.5598 11.495L84.5518 11.6637L84.5451 11.8296L84.5391 11.9956L84.5338 12.3382V29.3935H77.5732V13.2087L77.5678 12.7968L77.5492 12.4075L77.5232 12.0323L77.4845 11.6637L77.4352 11.3117L77.3725 10.9691L77.3046 10.6399L77.2246 10.3233L77.1332 10.02L77.0339 9.73272L76.9253 9.46077L76.808 9.19883L76.6833 8.95221L76.5527 8.72159L76.4121 8.50363L76.2641 8.29901L76.1075 8.10771L75.9435 7.93108L75.7742 7.76511L75.5942 7.61181L75.4076 7.46717L75.2096 7.3372L75.0037 7.21589L74.7824 7.10724L74.5491 7.00593L74.3031 6.91795L74.0425 6.84263ZM14.8197 6.664L14.4005 6.69533L13.9872 6.74665L13.5806 6.8193L13.1827 6.90995L12.7921 7.0186L12.4089 7.14524L12.0343 7.29321L11.6697 7.45651L11.3131 7.63647L10.9665 7.8351L10.6305 8.04839L10.3079 8.27834L9.99334 8.5223L9.6934 8.78358L9.40545 9.05886L9.13151 9.34613L8.87156 9.64874L8.62494 9.96534L8.39232 10.2939L8.17637 10.6365L7.97307 10.9885L7.79111 11.3571L7.62181 11.7323L7.47317 12.1216L7.34053 12.5215L7.22656 12.9334L7.13257 13.3533L7.05926 13.7832L7.0046 14.2232L6.97127 14.6751L6.96128 15.1336L6.97127 15.5795L7.0046 16.0155L7.06259 16.442L7.13791 16.86L7.23389 17.2665L7.34853 17.6665L7.48384 18.0524L7.63714 18.4276L7.80911 18.7942L7.9964 19.1515L8.20303 19.4941L8.42365 19.828L8.66027 20.1466L8.91288 20.4552L9.17883 20.7505L9.46011 21.0331L9.75338 21.2997L10.0613 21.5564L10.3786 21.795L10.7092 22.0209L11.0498 22.2309L11.4017 22.4228L11.7636 22.6008L12.1329 22.7601L12.5108 22.9021L12.8961 23.0287L13.2893 23.1354L13.6873 23.2234L14.0938 23.2933L14.5044 23.3433L14.921 23.3733L15.3376 23.384L15.7668 23.3733L16.1888 23.3433L16.6053 23.288L17.0119 23.218L17.4092 23.1274L17.7998 23.0161L18.1824 22.8894L18.5523 22.7435L18.9169 22.5808L19.2681 22.4022L19.6121 22.2049L19.942 21.9916L20.2626 21.767L20.5699 21.523L20.8665 21.2664L21.1504 20.9965L21.4184 20.7145L21.6763 20.4159L21.9156 20.1086L22.1449 19.786L22.3555 19.4541L22.5508 19.1128L22.7308 18.7569L22.8921 18.3943L23.0381 18.0211L23.1647 17.6405L23.274 17.2486L23.366 16.8493L23.4353 16.4427L23.4873 16.0308L23.5186 15.6082L23.5293 15.1776L23.5186 14.7297L23.4873 14.2858L23.438 13.8532L23.366 13.426L23.274 13.0081L23.1654 12.5981L23.0407 12.2002L22.8941 11.811L22.7308 11.4317L22.5535 11.0651L22.3582 10.7092L22.1476 10.3646L21.921 10.03L21.679 9.71139L21.4237 9.40545L21.1531 9.11218L20.8692 8.83223L20.5746 8.56829L20.2646 8.31967L19.942 8.08638L19.6087 7.86776L19.2655 7.66647L18.9116 7.4825L18.5443 7.31387L18.167 7.16323L17.7791 7.03059L17.3805 6.91995L16.9719 6.82397L16.556 6.75132L16.1288 6.69666L15.6915 6.66333L15.2463 6.65267L14.8197 6.664ZM10.0873 0.821169L10.8805 0.589882L11.701 0.396587L12.5468 0.245951L13.4213 0.13464L14.3198 0.0666533L15.2283 0.0466573H15.4749L15.7229 0.0513231L15.9888 0.0593215L16.2667 0.0726521L16.5614 0.0879824L16.868 0.113977L17.1879 0.145304L17.5185 0.183297L17.8598 0.229954L18.2137 0.289942L18.5756 0.357262L18.9482 0.437246L19.3255 0.530561L19.7101 0.637206L20.1006 0.758515L20.4992 0.893821L20.8978 1.04712L21.3011 1.21509L21.7097 1.40439L22.1162 1.60968L22.5222 1.8343L22.9288 2.08358L23.334 2.3502L23.532 2.49617V0.644538H30.3053V29.3935H23.532V27.3225L23.446 27.3892L23.118 27.6298L22.7774 27.8638L22.4235 28.0897L22.0503 28.3097L21.6683 28.519L21.2671 28.7189L20.8538 28.9056L20.4272 29.0848L19.9813 29.2481L19.5234 29.3988L19.0522 29.5328L18.563 29.6527L18.0631 29.756L17.5445 29.8414L17.0159 29.9114L16.4694 29.9607L15.9128 29.9893L15.3349 30L14.5484 29.9813L13.7699 29.9293L13.0054 29.8394L12.2476 29.7167L11.5057 29.5594L10.7738 29.3675L10.0607 29.1442L9.36346 28.8876L8.6816 28.5996L8.01773 28.281L7.37519 27.9311L6.74998 27.5525L6.1461 27.1432L5.56555 26.708L5.00567 26.2441L4.47244 25.7508L3.96187 25.233L3.48064 24.6884L3.02473 24.1205L2.59815 23.5273L2.19956 22.9134L1.82963 22.2729L1.49437 21.6143L1.18776 20.9331L0.916483 20.2333L0.676531 19.5148L0.473905 18.7789L0.304606 18.0244L0.171299 17.2552L0.0779844 16.4687L0.0179964 15.6709L0 14.8597L0.0159968 14.2145L0.0573219 13.566L0.133307 12.9154L0.23462 12.2649L0.36726 11.6143L0.528561 10.9665L0.717857 10.3233L0.937812 9.6834L1.1871 9.04886L1.46571 8.42365L1.77498 7.80644L2.11624 7.19989L2.48617 6.60668L2.88409 6.02679L3.31667 5.46357L3.77991 4.91702L4.27115 4.38779L4.79771 3.88189L5.35226 3.40065L5.93748 2.94141L6.55469 2.5115L7.19989 2.10758L7.87976 1.73632L8.58495 1.39639L9.32214 1.09045L10.0873 0.821169Z" fill="#C1CBD6"/>
</svg>
