<svg width="27" height="32" viewBox="0 0 27 32" fill="none" xmlns="http://www.w3.org/2000/svg">
<path d="M19.913 22.5217C23.1547 22.5217 25.7826 19.8938 25.7826 16.6522C25.7826 13.4105 23.1547 10.7826 19.913 10.7826C16.6714 10.7826 14.0435 13.4105 14.0435 16.6522C14.0435 19.8938 16.6714 22.5217 19.913 22.5217Z" stroke="#2580D2" stroke-width="1.5" stroke-miterlimit="10" stroke-linecap="round" stroke-linejoin="round"/>
<path d="M17.3044 16.6522L19.261 18.6087L22.5218 14.6957" stroke="#2580D2" stroke-width="1.5" stroke-miterlimit="10" stroke-linecap="round" stroke-linejoin="round"/>
<path d="M22.5218 21.9103V31L19.9131 29.0434L17.3044 31V21.9103" stroke="#2580D2" stroke-width="1.5" stroke-miterlimit="10" stroke-linecap="round" stroke-linejoin="round"/>
<path d="M15.3478 26.4348H1V1H20.5652V8.82609" stroke="#2580D2" stroke-width="1.5" stroke-miterlimit="10" stroke-linecap="round" stroke-linejoin="round"/>
<path d="M5.56519 6.21741H16" stroke="#2580D2" stroke-width="1.5" stroke-miterlimit="10" stroke-linecap="round" stroke-linejoin="round"/>
<path d="M5.56519 8.82605H16" stroke="#2580D2" stroke-width="1.5" stroke-miterlimit="10" stroke-linecap="round" stroke-linejoin="round"/>
<path d="M5.56519 11.4347H13.3913" stroke="#2580D2" stroke-width="1.5" stroke-miterlimit="10" stroke-linecap="round" stroke-linejoin="round"/>
<path d="M5.56519 14.0435H12.0869" stroke="#2580D2" stroke-width="1.5" stroke-miterlimit="10" stroke-linecap="round" stroke-linejoin="round"/>
<path d="M5.56519 16.6522H11.4348" stroke="#2580D2" stroke-width="1.5" stroke-miterlimit="10" stroke-linecap="round" stroke-linejoin="round"/>
<path d="M5.56519 21.8695H8.82606" stroke="#2580D2" stroke-width="1.5" stroke-miterlimit="10" stroke-linecap="round" stroke-linejoin="round"/>
</svg>
