<svg width="152" height="30" viewBox="0 0 152 30" fill="none" xmlns="http://www.w3.org/2000/svg">
<path fill-rule="evenodd" clip-rule="evenodd" d="M17.6368 0C25.4079 0 32.0308 4.31172 34.3704 10.2651H15.4335L7.40791 27.2066C2.92969 24.4822 7.04437e-08 20.0239 7.04437e-08 15.0004C-0.000862618 6.73846 7.92207 0 17.6368 0Z" fill="#C1CBD6"/>
<path fill-rule="evenodd" clip-rule="evenodd" d="M35.1167 13.0026C35.2202 13.6565 35.2745 14.3233 35.2745 14.9997C35.2745 23.2617 27.3516 30.0001 17.6369 30.0001C16.3032 30.0001 15.0039 29.8724 13.7539 29.6309L18.3374 19.1604C19.3053 16.9511 17.9612 14.7961 15.6044 13.0017H35.1167V13.0026Z" fill="#C1CBD6"/>
<path fill-rule="evenodd" clip-rule="evenodd" d="M73.3373 5.51782H55.8678C51.2671 5.51782 45.4768 10.1763 44.4174 14.6019L43.6858 17.6593C42.1606 24.0285 46.1428 28.1392 50.1732 28.1392H63.8865C66.07 28.1392 68.4424 25.4753 68.9669 23.3358L71.1521 14.4259L59.0952 14.5139L57.3991 17.6593H62.9013C63.808 17.6593 63.3534 19.4994 63.0566 20.3673L62.0697 23.2487C61.7462 24.1959 60.8792 25.3467 59.8914 25.3467H53.3402C50.5865 25.3467 50.1318 20.2569 50.8513 17.5722L51.6709 14.5148C52.5197 11.3453 56.2595 8.40092 59.511 8.40092H72.6126L73.3373 5.51782ZM151.615 5.51782H138.072C133.472 5.51782 127.681 10.1763 126.621 14.6019L125.89 17.6593C124.364 24.0285 128.347 28.1392 132.377 28.1392H146.09L146.828 25.3657H135.482V25.3424C132.809 25.2665 132.35 20.3293 133.035 17.6472H148.584L149.269 14.9194H133.764L133.874 14.5139C134.723 11.3444 138.462 8.40006 141.714 8.40006H150.89C151.131 7.43989 151.374 6.47886 151.615 5.51782ZM126.468 5.51782H112.924C108.323 5.51782 102.532 10.1763 101.474 14.6019L100.741 17.6593C99.2154 24.0285 103.199 28.1392 107.229 28.1392H120.942L121.679 25.3657H110.333V25.3424C107.662 25.2665 107.202 20.3293 107.886 17.6472H123.434L124.12 14.9194H108.617L108.725 14.5139C109.574 11.3444 113.314 8.40006 116.565 8.40006H125.741C125.984 7.43989 126.224 6.47886 126.468 5.51782ZM76.8743 5.51782L71.285 28.053L78.5341 28.141L83.2504 8.31379H92.2483C93.4595 8.31379 94.122 10.3541 93.9081 11.5454C93.664 12.9033 92.2302 14.9953 90.0648 14.9953H83.448L90.5885 28.0538H98.7116L92.9471 17.7473C96.7015 17.2047 100.513 14.3656 100.722 10.4084C100.821 8.49669 98.8548 5.51955 95.5455 5.51955H76.8743V5.51782Z" fill="#C1CBD6"/>
</svg>
