<svg width="170" height="71" viewBox="0 0 170 71" fill="none" xmlns="http://www.w3.org/2000/svg">
<path d="M0.0247597 36.6484C0.0247597 36.3 0 35.9766 0 35.6283C0 15.9481 15.871 0 35.4559 0C55.0408 0 70.9117 15.9481 70.9117 35.6283C70.9117 35.9268 70.9117 36.2005 70.9117 36.4991C70.9117 36.5986 70.9117 36.6981 70.9117 36.7976C70.9117 36.9967 70.887 37.1708 70.887 37.3699C70.887 37.4943 70.8622 37.5938 70.8622 37.7182C70.8622 37.8924 70.8375 38.0665 70.8375 38.2407C70.8375 38.3651 70.8127 38.4895 70.8127 38.6139C70.7879 38.788 70.7879 38.9373 70.7632 39.1115C70.7632 39.2359 70.7384 39.3603 70.7137 39.4847C70.6889 39.634 70.6889 39.8081 70.6641 39.9574C70.6394 40.0818 70.6394 40.2062 70.6146 40.3306C70.5899 40.4799 70.5651 40.6541 70.5403 40.8033C70.5156 40.9277 70.5156 41.0521 70.4908 41.1765C70.4661 41.3258 70.4413 41.5 70.4165 41.6493C70.3918 41.7737 70.367 41.8981 70.367 41.9976C70.3423 42.1717 70.2927 42.3708 70.268 42.5449C70.2185 42.744 70.1937 42.943 70.1442 43.1421C70.1194 43.2913 70.0699 43.4406 70.0452 43.5899C70.0204 43.7392 69.9709 43.8636 69.9461 44.0129C69.9214 44.1373 69.8966 44.2617 69.8471 44.3861C69.7976 44.5353 69.7728 44.6846 69.7233 44.8339C69.6985 44.9583 69.649 45.0578 69.6242 45.1822C69.5747 45.3315 69.55 45.4808 69.5004 45.6301C69.4757 45.7296 69.4262 45.854 69.4014 45.9535C69.3519 46.1028 69.3024 46.2521 69.2528 46.4262C69.2281 46.5258 69.1786 46.6253 69.1538 46.7248C69.1043 46.8741 69.0548 47.0482 68.9805 47.1975C68.9557 47.2722 68.931 47.3717 68.8814 47.4463C68.8319 47.6205 68.7576 47.7946 68.7081 47.9688C68.6834 48.0186 68.6586 48.0932 68.6339 48.143C68.2872 49.0386 67.9158 49.9094 67.5197 50.7554C67.5197 50.7802 67.4949 50.8051 67.4949 50.8051C67.3959 51.0042 67.2968 51.2032 67.1978 51.4022C67.173 51.452 67.1483 51.4769 67.1483 51.5266C67.0492 51.7257 66.9502 51.8998 66.8512 52.0989C66.8264 52.1486 66.8016 52.1735 66.8016 52.2233C66.7026 52.4223 66.6036 52.5965 66.4798 52.7955C66.455 52.8204 66.455 52.8453 66.4302 52.8951C66.3064 53.0941 66.2074 53.2931 66.0836 53.4922C66.0836 53.4922 66.0836 53.5171 66.0588 53.5171C65.1675 55.0099 64.1523 56.4529 63.0629 57.7964C62.9144 57.9955 62.741 58.1696 62.5925 58.3687C58.3338 52.8951 55.9816 45.8042 55.1893 38.4148C55.1893 35.9268 56.4768 34.5584 57.3187 33.414C61.1564 29.1595 64.0781 26.1987 64.6475 24.5815C65.5141 22.7155 65.2418 21.4715 63.9295 20.7997C62.8153 20.2524 61.7507 20.7749 60.0422 23.9098C58.8043 25.6514 56.873 27.2437 54.3723 28.6121C52.2429 29.5078 51.5001 28.9604 52.0944 26.97C52.7629 26.0494 53.3571 24.4571 54.298 22.815C55.1646 21.2973 55.0655 19.8543 53.8771 19.2323C52.3915 18.461 49.767 19.4811 47.8357 21.9442C46.4987 23.6361 46.1273 25.7758 46.771 27.0198C47.4643 28.6619 47.2662 30.0303 46.2016 31.1001C43.3542 33.19 40.7297 33.6876 38.3032 33.5881C35.6044 33.4886 33.7722 32.7173 32.7571 30.7518C32.0886 28.214 31.5934 27.4427 30.9001 25.7509C30.1821 24.0093 29.5631 22.1682 26.6909 19.9538C25.5272 19.0084 25.2796 18.0878 25.8986 16.7941C26.3443 15.973 27.0623 14.8285 28.028 13.3606C29.0679 11.619 29.1669 10.1262 28.3251 9.35491C27.2852 8.53387 25.6758 8.73291 23.5465 9.92715C21.021 11.8429 20.0058 13.9577 20.4763 16.2965C21.3924 19.2074 20.3029 19.9538 17.8517 22.3672C16.8366 23.5863 16.2919 25.9002 16.2176 29.3087C16.2424 31.8714 15.871 34.1355 15.1529 36.101C13.7169 40.0818 14.3854 42.5947 15.3758 46.1277C16.8366 51.3774 16.1433 60.0854 14.8311 64.2404C14.5587 64.0662 14.3111 63.8672 14.0387 63.6681C14.014 63.6432 13.9645 63.6184 13.9397 63.5935C13.7169 63.4193 13.494 63.2452 13.2464 63.071C13.2217 63.0461 13.1722 63.0212 13.1474 62.9964C12.8998 62.7973 12.6522 62.5983 12.4046 62.3992C12.4046 62.3992 12.4046 62.3992 12.3798 62.3992C11.8599 61.9763 11.3647 61.5284 10.8695 61.0557C10.8447 61.0308 10.82 61.006 10.82 61.006C10.5971 60.8069 10.3991 60.6079 10.1762 60.384C10.1267 60.3342 10.102 60.3093 10.0524 60.2596C9.85435 60.0605 9.65628 59.8615 9.4582 59.6624C9.43344 59.6376 9.38392 59.5878 9.35916 59.5629C8.69065 58.8414 8.0469 58.095 7.42791 57.3237C7.40315 57.2739 7.35363 57.2491 7.32887 57.1993C7.15555 56.9754 7.00699 56.7763 6.83367 56.5524C6.78415 56.5027 6.75939 56.4529 6.70988 56.3783C6.56132 56.1543 6.388 55.9304 6.23944 55.7314C6.21468 55.6816 6.16516 55.6319 6.1404 55.607C5.76901 55.0596 5.39761 54.5123 5.05098 53.9649C5.02622 53.94 5.00146 53.8903 5.00146 53.8654C4.8529 53.6166 4.70434 53.3927 4.58054 53.1439C4.53102 53.0692 4.50626 52.9946 4.45674 52.9448C4.33294 52.7209 4.20915 52.5219 4.11011 52.2979C4.06059 52.2233 4.03583 52.1487 3.98631 52.074C3.86251 51.8501 3.73871 51.6013 3.63967 51.3774C3.61491 51.3276 3.59015 51.253 3.56539 51.2032C3.26828 50.6061 2.99592 50.0338 2.74833 49.4118C2.72357 49.3372 2.69881 49.2626 2.64929 49.1879C2.55025 48.964 2.45121 48.7401 2.37693 48.5162C2.35217 48.4166 2.30265 48.342 2.27789 48.2425C2.20361 48.0186 2.10457 47.8195 2.03029 47.5956C2.00553 47.4961 1.95602 47.4214 1.93126 47.3219C1.85698 47.0731 1.75794 46.8243 1.68366 46.5755C1.6589 46.5009 1.63414 46.4511 1.60938 46.3765C1.51034 46.053 1.4113 45.7545 1.31226 45.431C1.2875 45.3813 1.2875 45.3315 1.26274 45.2817C1.18846 45.0081 1.11419 44.7593 1.03991 44.4856C1.01515 44.3861 0.990387 44.2865 0.965628 44.187C0.916108 43.9631 0.866589 43.7392 0.81707 43.5153C0.79231 43.4157 0.76755 43.2913 0.742791 43.1918C0.693271 42.9679 0.643752 42.744 0.618992 42.5201C0.594232 42.4205 0.569473 42.321 0.569473 42.1966C0.519953 41.9229 0.470434 41.6493 0.420915 41.3756C0.420915 41.3258 0.396155 41.2761 0.396155 41.2263C0.346636 40.9029 0.297116 40.5545 0.247597 40.2311C0.247597 40.1316 0.222837 40.0569 0.222837 39.9574C0.198077 39.7086 0.173318 39.4598 0.148558 39.2359C0.148558 39.1115 0.123798 38.9871 0.123798 38.8876C0.0990387 38.6636 0.0990387 38.4397 0.0742791 38.2158C0.0742791 38.0914 0.0495194 37.967 0.0495194 37.8426C0.0247597 37.6187 0.0247597 37.3699 0.0247597 37.146C0.0247597 36.8723 0.0247597 36.7479 0.0247597 36.6484ZM53.3571 52.696C52.1439 51.5515 51.1535 51.7755 50.8812 53.6912C50.3612 57.3983 50.8069 61.205 52.0696 65.0117C52.2925 65.6585 52.7381 65.9322 53.3571 65.8825C54.3475 65.3102 55.3131 64.7131 56.254 64.0413C56.2788 64.0164 56.3035 64.0164 56.3035 63.9916C56.6006 63.7677 56.8978 63.5686 57.1949 63.3447C57.6653 62.3992 57.8139 61.6528 57.591 61.1304C56.6006 57.5227 55.1893 54.7113 53.3571 52.696ZM24.8092 66.7284C25.1311 61.2796 24.7102 56.4778 23.4969 52.3726C22.4075 50.6061 21.9866 51.2032 21.4914 52.8702C20.3772 59.9859 20.7981 65.4097 22.2837 68.1465C22.878 68.3705 23.4969 68.5944 24.1159 68.7934C24.5121 68.3953 24.7349 67.7236 24.8092 66.7284ZM36.8177 70.5599C37.0653 70.5599 37.3128 70.535 37.5357 70.535C37.6595 70.535 37.7833 70.5101 37.8823 70.5101C38.1299 70.4853 38.3528 70.4853 38.6003 70.4604C38.6994 70.4604 38.8232 70.4355 38.9222 70.4355C39.2441 70.4106 39.566 70.3609 39.8879 70.336C39.9126 70.336 39.9374 70.336 39.9374 70.336C40.284 70.2862 40.6059 70.2365 40.9525 70.1867C41.0516 70.1618 41.1258 70.1618 41.2249 70.1369C41.4725 70.0872 41.7201 70.0623 41.9677 70.0126C42.0667 69.9877 42.1657 69.9628 42.2895 69.9628C42.5371 69.913 42.7847 69.8633 43.0323 69.8135C43.1314 69.7886 43.2057 69.7886 43.3047 69.7637C43.6266 69.6891 43.9484 69.6145 44.2703 69.5398C46.0035 68.5446 46.573 67.5992 46.4987 66.7284C46.6968 63.5189 45.9045 57.6969 44.6912 49.1133C43.6761 41.8732 42.5867 40.0321 39.1698 38.7134C36.6939 37.7928 34.6883 37.7182 33.0789 38.4646C31.5686 39.4349 30.4544 42.8684 30.3801 46.6502C30.1325 59.3888 30.5535 66.1313 31.3953 67.7485C31.841 69.0173 32.6828 69.9628 33.896 70.5599C34.1436 70.5599 34.416 70.5848 34.6636 70.5848C34.9359 70.5848 35.1835 70.5848 35.4559 70.5848C35.8025 70.5848 36.1491 70.5848 36.4958 70.5599C36.5948 70.5599 36.6939 70.5599 36.8177 70.5599ZM123.13 15.6496C123.13 15.0773 122.932 14.6544 122.511 14.3558C122.065 14.0324 121.347 13.8084 120.382 13.6592C119.688 13.5596 118.97 13.4352 118.302 13.2611C117.609 13.0869 116.965 12.8381 116.42 12.4898C115.851 12.1415 115.405 11.6439 115.058 11.0468C114.712 10.4496 114.538 9.65347 114.538 8.70803C114.538 7.86211 114.712 7.1157 115.034 6.46882C115.355 5.84682 115.801 5.29946 116.346 4.8765C116.89 4.45353 117.509 4.15497 118.203 3.93105C118.896 3.73201 119.589 3.63249 120.307 3.63249C121.372 3.63249 122.362 3.75689 123.303 3.98081C124.244 4.22961 125.111 4.6277 125.928 5.19994L126.126 5.32434L124.467 8.08603L124.244 7.93675C123.576 7.4889 122.907 7.19034 122.239 7.01618C121.57 6.84202 120.926 6.7425 120.357 6.7425C119.441 6.7425 118.772 6.91666 118.401 7.26498C118.029 7.61331 117.856 8.03627 117.856 8.55875C117.856 8.85731 117.906 9.10611 118.029 9.28027C118.153 9.47931 118.351 9.62859 118.648 9.77787C118.946 9.92715 119.342 10.0764 119.837 10.176C120.332 10.3004 120.926 10.4248 121.62 10.5492C122.214 10.6487 122.808 10.798 123.402 10.997C123.997 11.196 124.541 11.4697 125.012 11.8429C125.482 12.2161 125.878 12.7137 126.175 13.286C126.472 13.8831 126.596 14.6295 126.596 15.5003C126.596 16.3462 126.423 17.0926 126.076 17.7395C125.73 18.3864 125.259 18.9337 124.665 19.3816C124.096 19.8294 123.402 20.1529 122.635 20.3768C121.867 20.6007 121.05 20.7251 120.208 20.7251C119.119 20.7251 117.98 20.5509 116.841 20.2275C115.677 19.9041 114.588 19.2821 113.597 18.4113L113.424 18.262L115.43 15.6496L115.628 15.8237C116.296 16.4457 117.039 16.8936 117.831 17.1673C118.624 17.4409 119.465 17.5653 120.357 17.5653C121.199 17.5653 121.892 17.3912 122.412 17.0429C122.907 16.7941 123.13 16.3213 123.13 15.6496ZM104.659 50.5563L111.617 66.1313H104.214L98.0979 51.5764H92.007V66.1313H85.3962V30.3288H100.599C102.109 30.3288 103.545 30.5776 104.882 31.0503C106.219 31.5231 107.408 32.2197 108.398 33.0905C109.388 33.9613 110.181 35.0809 110.75 36.3747C111.32 37.6684 111.592 39.1364 111.592 40.7038C111.592 43.0177 110.948 45.0578 109.71 46.7746C108.497 48.4664 106.789 49.7353 104.659 50.5563ZM92.007 45.6052H99.4349C101.02 45.6052 102.332 45.1822 103.347 44.3363C104.337 43.5153 104.857 42.2713 104.857 40.7038C104.857 39.1364 104.387 37.967 103.446 37.2952C102.48 36.5737 101.218 36.2254 99.6577 36.2254H92.0318V45.6052H92.007ZM115.95 66.1561H139.967V60.0854H122.536V51.0539H137.392V45.1822H122.536V36.4493H139.967V30.3786H115.95V66.1561ZM107.383 3.80665L113.721 20.6505H110.205L108.918 17.0429H103.248L101.936 20.6505H95.1762L90.7195 13.2113L88.3673 15.9481V20.6505H85.0743V3.80665H88.3921V11.3453L90.7442 8.45923L94.6563 3.78177H98.6674L92.9479 10.574L98.6921 19.9538L104.783 3.78177H107.383V3.80665ZM106.07 8.40947L105.229 11.0716L104.238 14.1319H107.927L106.07 8.40947ZM170 47.6205C170 50.0836 169.926 52.2482 169.802 54.0893C169.653 55.9304 169.307 57.5725 168.713 58.9907C168.118 60.3342 167.375 61.4787 166.459 62.3992C165.543 63.3198 164.528 64.0413 163.389 64.6136C162.25 65.1609 161.012 65.559 159.7 65.8078C158.388 66.0566 157.001 66.1561 155.565 66.1561H143.408V30.3288H156.432C159.081 30.3288 161.507 30.8513 163.662 31.8714C165.816 32.9163 167.499 34.6331 168.613 37.0216C169.257 38.3153 169.653 39.8828 169.802 41.6741C169.926 43.4406 170 45.431 170 47.6205ZM159.403 59.4634C160.368 59.0653 161.161 58.4931 161.73 57.7715C162.3 57.05 162.745 56.1543 162.993 55.1094C163.265 54.0395 163.389 52.8702 163.389 51.5764V44.9832C163.389 41.9229 162.721 39.7086 161.384 38.4148C160.047 37.1211 158.115 36.4493 155.639 36.4493H149.969V60.1103H155.738C157.224 60.0605 158.437 59.8615 159.403 59.4634ZM146.033 3.80665H142.715V20.6505H146.033V3.80665ZM140.561 6.84202C140.858 7.51378 141.006 8.30995 141.006 9.18075C141.006 9.87739 140.858 10.5243 140.61 11.1463C140.338 11.7683 139.967 12.3156 139.471 12.7884C138.976 13.2611 138.382 13.6343 137.713 13.9328C137.02 14.2065 136.277 14.3558 135.435 14.3558H131.969V20.6505H128.651V3.80665H135.237C136.03 3.80665 136.773 3.93105 137.466 4.15497C138.159 4.37889 138.778 4.72722 139.323 5.15018C139.818 5.59802 140.264 6.17026 140.561 6.84202ZM131.969 11.2956H135.237C136.005 11.2956 136.574 11.0716 136.995 10.6487C137.416 10.2008 137.614 9.70323 137.614 9.10611C137.614 8.33483 137.391 7.78747 136.971 7.43914C136.525 7.06594 135.906 6.89178 135.163 6.89178H131.969V11.2956Z" fill="white"/>
</svg>
