<svg width="64" height="30" viewBox="0 0 64 30" fill="none" xmlns="http://www.w3.org/2000/svg">
<g clip-path="url(#clip0)">
<path fill-rule="evenodd" clip-rule="evenodd" d="M15.019 0C6.73004 0 0 6.73004 0 15.019C0 23.308 6.73004 30.038 15.019 30.038C23.308 30.038 30.038 23.308 30.038 15.019C30 6.73004 23.308 0 15.019 0ZM18.6692 20.3042V21.4449H15.5513H14.4106V8.55513H15.5513V20.3042H18.6692ZM27.5665 15.019C27.5665 21.9392 21.9392 27.5665 15.019 27.5665C8.09886 27.5665 2.47148 21.9392 2.47148 15.019C2.47148 8.09886 8.09886 2.47148 15.019 2.47148C15.2091 2.47148 15.3992 2.47148 15.5513 2.47148V3.61217C15.3612 3.61217 15.1711 3.61217 15.019 3.61217C8.70722 3.61217 3.61217 8.70722 3.61217 15.019C3.61217 21.3308 8.70722 26.4259 15.019 26.4259C21.1407 26.4259 26.1597 21.597 26.4259 15.5133V15.4753H18.6692V14.3346H27.5285C27.5665 14.5627 27.5665 14.7909 27.5665 15.019ZM12.0913 10.2662C12.0913 11.2548 11.2928 12.0152 10.3422 12.0152C9.35361 12.0152 8.59316 11.2167 8.59316 10.2662C8.59316 9.27757 9.39163 8.51711 10.3422 8.51711C11.2928 8.47909 12.0913 9.27757 12.0913 10.2662ZM41.711 19.1255H48.1749V22.3574H37.4525V7.52852H41.4068V18.8213V19.1255H41.711ZM63.0038 13.9924V22.3574H59.7338V21.5589V20.5703C59.7338 20.5703 58.8973 22.7376 55.2852 22.7376C53.6502 22.7376 52.1673 22.1673 51.1027 21.0646C49.7338 19.6958 48.9734 17.4905 48.9734 14.9049C48.9734 12.4715 49.6958 10.4563 51.0646 9.12547C52.3574 7.8327 54.2586 7.14829 56.5019 7.14829C58.403 7.14829 59.962 7.64259 61.2167 8.59316C62.3574 9.5057 62.8137 10.3802 63.0418 12.0913H58.8593C58.6312 10.9125 57.6806 10.1521 56.3878 10.1521C54.3726 10.1521 53.1559 11.9772 53.1559 15.019C53.1559 16.8441 53.6122 18.289 54.4487 19.1255C54.981 19.6578 55.7034 19.962 56.4639 19.962C59.5817 19.962 59.5437 16.654 59.5437 16.654H59.1635H56.5399V14.0304H63.0038V13.9924Z" fill="#C1CBD6"/>
</g>
<defs>
<clipPath id="clip0">
<rect width="63.0038" height="30" fill="white"/>
</clipPath>
</defs>
</svg>
