<svg width="32" height="32" viewBox="0 0 32 32" fill="none" xmlns="http://www.w3.org/2000/svg">
<path d="M31 15.9493C31 24.2673 24.2639 30.9524 15.9969 30.9524C7.67893 30.9524 0.942871 24.2673 0.942871 15.9493C0.942871 7.68234 7.67893 0.946289 15.9459 0.946289C24.2639 0.946289 31 7.68234 31 15.9493Z" stroke="#2580D2" stroke-width="1.5" stroke-miterlimit="10"/>
<path d="M12.782 11.1524C12.782 11.1524 16.9155 11.7137 18.1912 8.60083C18.1912 8.60083 19.5691 11.1524 21.5593 11.1524" stroke="#2580D2" stroke-width="1.5" stroke-miterlimit="10" stroke-linecap="round" stroke-linejoin="round"/>
<path d="M12.8842 18.8071C12.8842 19.5726 12.8842 21.2056 12.8842 21.2056C12.8842 21.2056 13.0372 22.2262 7.01562 23.7571" stroke="#2580D2" stroke-width="1.5" stroke-miterlimit="10" stroke-linecap="round" stroke-linejoin="round"/>
<path d="M19.059 18.8071C19.059 19.5726 19.059 21.2056 19.059 21.2056C19.059 21.2056 18.9059 22.2262 24.9275 23.7571" stroke="#2580D2" stroke-width="1.5" stroke-miterlimit="10" stroke-linecap="round" stroke-linejoin="round"/>
<path d="M17.8343 19.1643C18.6508 18.9602 19.059 18.603 19.059 18.603C20.4368 17.6334 21.3043 14.5205 21.5595 12.3772C21.9167 9.21331 21.5085 5.386 15.9461 5.23291H15.8951C10.3327 5.33497 9.9245 9.16228 10.2817 12.3772C10.5369 14.5205 11.4044 17.6334 12.7822 18.603C12.7822 18.603 13.1905 18.9602 14.007 19.1643" stroke="#2580D2" stroke-width="1.5" stroke-miterlimit="10" stroke-linecap="round" stroke-linejoin="round"/>
</svg>
