<svg width="27" height="27" viewBox="0 0 27 27" fill="none" xmlns="http://www.w3.org/2000/svg">
<path d="M1.00873 13.9803C1.00873 13.8569 1 13.7423 1 13.619C1 6.64857 6.59532 1 13.5 1C20.4047 1 26 6.64857 26 13.619C26 13.7247 26 13.8216 26 13.9274C26 13.9626 26 13.9979 26 14.0331C26 14.1036 25.9913 14.1653 25.9913 14.2358C25.9913 14.2799 25.9825 14.3151 25.9825 14.3592C25.9825 14.4209 25.9738 14.4826 25.9738 14.5442C25.9738 14.5883 25.9651 14.6324 25.9651 14.6764C25.9564 14.7381 25.9564 14.791 25.9476 14.8527C25.9476 14.8967 25.9389 14.9408 25.9302 14.9848C25.9214 15.0377 25.9214 15.0994 25.9127 15.1523C25.904 15.1963 25.904 15.2404 25.8953 15.2845C25.8865 15.3373 25.8778 15.399 25.8691 15.4519C25.8603 15.4959 25.8603 15.54 25.8516 15.5841C25.8429 15.6369 25.8341 15.6986 25.8254 15.7515C25.8167 15.7956 25.808 15.8396 25.808 15.8749C25.7992 15.9366 25.7818 16.0071 25.773 16.0687C25.7556 16.1392 25.7469 16.2097 25.7294 16.2802C25.7207 16.3331 25.7032 16.386 25.6945 16.4388C25.6858 16.4917 25.6683 16.5358 25.6596 16.5886C25.6508 16.6327 25.6421 16.6768 25.6247 16.7208C25.6072 16.7737 25.5985 16.8266 25.581 16.8794C25.5723 16.9235 25.5548 16.9588 25.5461 17.0028C25.5286 17.0557 25.5199 17.1086 25.5024 17.1614C25.4937 17.1967 25.4763 17.2407 25.4675 17.276C25.4501 17.3289 25.4326 17.3817 25.4152 17.4434C25.4064 17.4787 25.389 17.5139 25.3802 17.5492C25.3628 17.602 25.3453 17.6637 25.3191 17.7166C25.3104 17.743 25.3017 17.7783 25.2842 17.8047C25.2668 17.8664 25.2406 17.9281 25.2231 17.9898C25.2144 18.0074 25.2057 18.0338 25.1969 18.0515C25.0747 18.3687 24.9438 18.6771 24.8041 18.9767C24.8041 18.9855 24.7954 18.9944 24.7954 18.9944C24.7605 19.0649 24.7256 19.1354 24.6906 19.2059C24.6819 19.2235 24.6732 19.2323 24.6732 19.2499C24.6383 19.3204 24.6034 19.3821 24.5684 19.4526C24.5597 19.4702 24.551 19.479 24.551 19.4967C24.5161 19.5671 24.4811 19.6288 24.4375 19.6993C24.4288 19.7081 24.4288 19.717 24.42 19.7346C24.3764 19.8051 24.3415 19.8756 24.2978 19.9461C24.2978 19.9461 24.2978 19.9549 24.2891 19.9549C23.9749 20.4836 23.617 20.9947 23.2329 21.4706C23.1805 21.5411 23.1194 21.6027 23.067 21.6732C21.5656 19.7346 20.7364 17.2231 20.4571 14.6059C20.4571 13.7247 20.911 13.24 21.2078 12.8347C22.5608 11.3278 23.5908 10.2792 23.7916 9.70638C24.0971 9.04547 24.0011 8.60486 23.5384 8.36694C23.1456 8.17307 22.7703 8.35812 22.1679 9.46845C21.7315 10.0853 21.0506 10.6493 20.169 11.1339C19.4183 11.4512 19.1564 11.2573 19.3659 10.5523C19.6016 10.2263 19.8111 9.66232 20.1428 9.08072C20.4483 8.54318 20.4134 8.03208 19.9944 7.81177C19.4707 7.5386 18.5454 7.89989 17.8645 8.77229C17.3932 9.37152 17.2622 10.1294 17.4892 10.57C17.7336 11.1516 17.6638 11.6362 17.2884 12.0152C16.2846 12.7554 15.3593 12.9316 14.5038 12.8964C13.5524 12.8611 12.9064 12.5879 12.5485 11.8918C12.3129 10.9929 12.1383 10.7198 11.8939 10.1205C11.6407 9.5037 11.4225 8.8516 10.4099 8.06732C9.99965 7.73246 9.91236 7.40641 10.1306 6.94818C10.2877 6.65738 10.5409 6.25203 10.8813 5.73211C11.2479 5.11526 11.2828 4.58653 10.986 4.31336C10.6194 4.02256 10.052 4.09306 9.30133 4.51604C8.41096 5.19457 8.05307 5.9436 8.21892 6.77194C8.5419 7.80296 8.15782 8.06732 7.29365 8.9221C6.93575 9.35389 6.74372 10.1734 6.71753 11.3807C6.72626 12.2883 6.59532 13.0902 6.34218 13.7864C5.83589 15.1963 6.07158 16.0864 6.42074 17.3377C6.93575 19.197 6.69134 22.2813 6.2287 23.7529C6.13268 23.6912 6.04539 23.6207 5.94937 23.5502C5.94064 23.5414 5.92318 23.5326 5.91446 23.5238C5.83589 23.4621 5.75733 23.4004 5.67004 23.3387C5.66131 23.3299 5.64386 23.3211 5.63513 23.3123C5.54784 23.2418 5.46054 23.1713 5.37325 23.1008C5.37325 23.1008 5.37325 23.1008 5.36453 23.1008C5.18122 22.951 5.00663 22.7924 4.83205 22.625C4.82332 22.6161 4.8146 22.6073 4.8146 22.6073C4.73603 22.5368 4.6662 22.4663 4.58764 22.387C4.57018 22.3694 4.56145 22.3606 4.54399 22.343C4.47416 22.2725 4.40433 22.202 4.3345 22.1315C4.32577 22.1227 4.30831 22.105 4.29958 22.0962C4.0639 21.8407 3.83694 21.5763 3.61872 21.3031C3.60999 21.2855 3.59253 21.2767 3.5838 21.2591C3.5227 21.1798 3.47032 21.1093 3.40922 21.03C3.39176 21.0123 3.38303 20.9947 3.36557 20.9683C3.3132 20.889 3.2521 20.8097 3.19972 20.7392C3.19099 20.7215 3.17353 20.7039 3.1648 20.6951C3.03387 20.5012 2.90293 20.3074 2.78073 20.1135C2.772 20.1047 2.76327 20.0871 2.76327 20.0783C2.71089 19.9901 2.65852 19.9108 2.61487 19.8227C2.59742 19.7963 2.58869 19.7698 2.57123 19.7522C2.52758 19.6729 2.48394 19.6024 2.44902 19.5231C2.43156 19.4967 2.42284 19.4702 2.40538 19.4438C2.36173 19.3645 2.31809 19.2763 2.28317 19.197C2.27444 19.1794 2.26571 19.153 2.25698 19.1354C2.15223 18.9239 2.05622 18.7212 1.96892 18.5009C1.9602 18.4744 1.95147 18.448 1.93401 18.4216C1.89909 18.3423 1.86418 18.263 1.83799 18.1836C1.82926 18.1484 1.8118 18.122 1.80307 18.0867C1.77689 18.0074 1.74197 17.9369 1.71578 17.8576C1.70705 17.8223 1.6896 17.7959 1.68087 17.7607C1.65468 17.6725 1.61976 17.5844 1.59358 17.4963C1.58485 17.4699 1.57612 17.4522 1.56739 17.4258C1.53247 17.3112 1.49756 17.2055 1.46264 17.0909C1.45391 17.0733 1.45391 17.0557 1.44518 17.0381C1.41899 16.9411 1.39281 16.853 1.36662 16.7561C1.35789 16.7208 1.34916 16.6856 1.34043 16.6503C1.32297 16.571 1.30552 16.4917 1.28806 16.4124C1.27933 16.3772 1.2706 16.3331 1.26187 16.2978C1.24441 16.2185 1.22696 16.1392 1.21823 16.0599C1.2095 16.0247 1.20077 15.9894 1.20077 15.9454C1.18331 15.8484 1.16585 15.7515 1.14839 15.6546C1.14839 15.6369 1.13966 15.6193 1.13966 15.6017C1.12221 15.4871 1.10475 15.3638 1.08729 15.2492C1.08729 15.214 1.07856 15.1875 1.07856 15.1523C1.06983 15.0642 1.0611 14.976 1.05237 14.8967C1.05237 14.8527 1.04365 14.8086 1.04365 14.7734C1.03492 14.694 1.03492 14.6147 1.02619 14.5354C1.02619 14.4914 1.01746 14.4473 1.01746 14.4032C1.00873 14.3239 1.00873 14.2358 1.00873 14.1565C1.00873 14.0596 1.00873 14.0155 1.00873 13.9803ZM19.8111 19.6641C19.3834 19.2587 19.0342 19.338 18.9382 20.0166C18.7549 21.3296 18.912 22.6778 19.3572 24.0261C19.4358 24.2552 19.5929 24.3521 19.8111 24.3345C20.1603 24.1318 20.5007 23.9203 20.8324 23.6824C20.8411 23.6736 20.8499 23.6736 20.8499 23.6648C20.9546 23.5855 21.0594 23.515 21.1641 23.4357C21.33 23.1008 21.3823 22.8364 21.3038 22.6514C20.9546 21.3736 20.4571 20.3779 19.8111 19.6641ZM9.74651 24.6341C9.85999 22.7043 9.71159 21.0035 9.28387 19.5495C8.89979 18.9239 8.7514 19.1354 8.57682 19.7258C8.18401 22.246 8.3324 24.1671 8.85615 25.1364C9.06564 25.2157 9.28387 25.295 9.5021 25.3655C9.64176 25.2245 9.72032 24.9866 9.74651 24.6341ZM13.9801 25.9912C14.0674 25.9912 14.1547 25.9824 14.2332 25.9824C14.2769 25.9824 14.3205 25.9736 14.3554 25.9736C14.4427 25.9647 14.5213 25.9648 14.6086 25.9559C14.6435 25.9559 14.6872 25.9471 14.7221 25.9471C14.8355 25.9383 14.949 25.9207 15.0625 25.9119C15.0712 25.9119 15.08 25.9119 15.08 25.9119C15.2022 25.8943 15.3156 25.8766 15.4378 25.859C15.4728 25.8502 15.499 25.8502 15.5339 25.8414C15.6212 25.8238 15.7085 25.8149 15.7957 25.7973C15.8307 25.7885 15.8656 25.7797 15.9092 25.7797C15.9965 25.7621 16.0838 25.7444 16.1711 25.7268C16.206 25.718 16.2322 25.718 16.2671 25.7092C16.3806 25.6828 16.4941 25.6563 16.6075 25.6299C17.2186 25.2774 17.4193 24.9425 17.3932 24.6341C17.463 23.4974 17.1837 21.4353 16.7559 18.3951C16.398 15.8308 16.014 15.1787 14.8094 14.7117C13.9365 14.3856 13.2294 14.3592 12.662 14.6235C12.1295 14.9672 11.7367 16.1833 11.7105 17.5227C11.6233 22.0345 11.7716 24.4226 12.0684 24.9954C12.2256 25.4448 12.5223 25.7797 12.9501 25.9912C13.0374 25.9912 13.1334 26 13.2207 26C13.3167 26 13.404 26 13.5 26C13.6222 26 13.7444 26 13.8666 25.9912C13.9015 25.9912 13.9365 25.9912 13.9801 25.9912Z" stroke-width="1.5"/>
</svg>
