<svg width="28" height="28" viewBox="0 0 28 28" fill="none" xmlns="http://www.w3.org/2000/svg">
<path d="M2.00873 13.9803C2.00873 13.8569 2 13.7423 2 13.619C2 6.64857 7.59532 1 14.5 1C21.4047 1 27 6.64857 27 13.619C27 13.7247 27 13.8216 27 13.9274C27 13.9626 27 13.9979 27 14.0331C27 14.1036 26.9913 14.1653 26.9913 14.2358C26.9913 14.2799 26.9825 14.3151 26.9825 14.3592C26.9825 14.4209 26.9738 14.4826 26.9738 14.5442C26.9738 14.5883 26.9651 14.6324 26.9651 14.6764C26.9564 14.7381 26.9564 14.791 26.9476 14.8527C26.9476 14.8967 26.9389 14.9408 26.9302 14.9848C26.9214 15.0377 26.9214 15.0994 26.9127 15.1523C26.904 15.1963 26.904 15.2404 26.8953 15.2845C26.8865 15.3373 26.8778 15.399 26.8691 15.4519C26.8603 15.4959 26.8603 15.54 26.8516 15.5841C26.8429 15.6369 26.8341 15.6986 26.8254 15.7515C26.8167 15.7956 26.808 15.8396 26.808 15.8749C26.7992 15.9366 26.7818 16.0071 26.773 16.0687C26.7556 16.1392 26.7469 16.2097 26.7294 16.2802C26.7207 16.3331 26.7032 16.386 26.6945 16.4388C26.6858 16.4917 26.6683 16.5358 26.6596 16.5886C26.6508 16.6327 26.6421 16.6768 26.6247 16.7208C26.6072 16.7737 26.5985 16.8266 26.581 16.8794C26.5723 16.9235 26.5548 16.9588 26.5461 17.0028C26.5286 17.0557 26.5199 17.1086 26.5024 17.1614C26.4937 17.1967 26.4763 17.2407 26.4675 17.276C26.4501 17.3289 26.4326 17.3817 26.4152 17.4434C26.4064 17.4787 26.389 17.5139 26.3802 17.5492C26.3628 17.602 26.3453 17.6637 26.3191 17.7166C26.3104 17.743 26.3017 17.7783 26.2842 17.8047C26.2668 17.8664 26.2406 17.9281 26.2231 17.9898C26.2144 18.0074 26.2057 18.0338 26.1969 18.0515C26.0747 18.3687 25.9438 18.6771 25.8041 18.9767C25.8041 18.9855 25.7954 18.9944 25.7954 18.9944C25.7605 19.0649 25.7256 19.1354 25.6906 19.2059C25.6819 19.2235 25.6732 19.2323 25.6732 19.2499C25.6383 19.3204 25.6034 19.3821 25.5684 19.4526C25.5597 19.4702 25.551 19.479 25.551 19.4967C25.5161 19.5671 25.4811 19.6288 25.4375 19.6993C25.4288 19.7081 25.4288 19.717 25.42 19.7346C25.3764 19.8051 25.3415 19.8756 25.2978 19.9461C25.2978 19.9461 25.2978 19.9549 25.2891 19.9549C24.9749 20.4836 24.617 20.9947 24.2329 21.4706C24.1805 21.5411 24.1194 21.6027 24.067 21.6732C22.5656 19.7346 21.7364 17.2231 21.4571 14.6059C21.4571 13.7247 21.911 13.24 22.2078 12.8347C23.5608 11.3278 24.5908 10.2792 24.7916 9.70638C25.0971 9.04547 25.0011 8.60486 24.5384 8.36694C24.1456 8.17307 23.7703 8.35812 23.1679 9.46845C22.7315 10.0853 22.0506 10.6493 21.169 11.1339C20.4183 11.4512 20.1564 11.2573 20.3659 10.5523C20.6016 10.2263 20.8111 9.66232 21.1428 9.08072C21.4483 8.54318 21.4134 8.03208 20.9944 7.81177C20.4707 7.5386 19.5454 7.89989 18.8645 8.77229C18.3932 9.37152 18.2622 10.1294 18.4892 10.57C18.7336 11.1516 18.6638 11.6362 18.2884 12.0152C17.2846 12.7554 16.3593 12.9316 15.5038 12.8964C14.5524 12.8611 13.9064 12.5879 13.5485 11.8918C13.3129 10.9929 13.1383 10.7198 12.8939 10.1205C12.6407 9.5037 12.4225 8.8516 11.4099 8.06732C10.9997 7.73246 10.9124 7.40641 11.1306 6.94818C11.2877 6.65738 11.5409 6.25203 11.8813 5.73211C12.2479 5.11526 12.2828 4.58653 11.986 4.31336C11.6194 4.02256 11.052 4.09306 10.3013 4.51604C9.41096 5.19457 9.05307 5.9436 9.21892 6.77194C9.5419 7.80296 9.15782 8.06732 8.29365 8.9221C7.93575 9.35389 7.74372 10.1734 7.71753 11.3807C7.72626 12.2883 7.59532 13.0902 7.34218 13.7864C6.83589 15.1963 7.07158 16.0864 7.42074 17.3377C7.93575 19.197 7.69134 22.2813 7.2287 23.7529C7.13268 23.6912 7.04539 23.6207 6.94937 23.5502C6.94064 23.5414 6.92318 23.5326 6.91446 23.5238C6.83589 23.4621 6.75733 23.4004 6.67004 23.3387C6.66131 23.3299 6.64386 23.3211 6.63513 23.3123C6.54784 23.2418 6.46054 23.1713 6.37325 23.1008C6.37325 23.1008 6.37325 23.1008 6.36453 23.1008C6.18122 22.951 6.00663 22.7924 5.83205 22.625C5.82332 22.6161 5.8146 22.6073 5.8146 22.6073C5.73603 22.5368 5.6662 22.4663 5.58764 22.387C5.57018 22.3694 5.56145 22.3606 5.54399 22.343C5.47416 22.2725 5.40433 22.202 5.3345 22.1315C5.32577 22.1227 5.30831 22.105 5.29958 22.0962C5.0639 21.8407 4.83694 21.5763 4.61872 21.3031C4.60999 21.2855 4.59253 21.2767 4.5838 21.2591C4.5227 21.1798 4.47032 21.1093 4.40922 21.03C4.39176 21.0123 4.38303 20.9947 4.36557 20.9683C4.3132 20.889 4.2521 20.8097 4.19972 20.7392C4.19099 20.7215 4.17353 20.7039 4.1648 20.6951C4.03387 20.5012 3.90293 20.3074 3.78073 20.1135C3.772 20.1047 3.76327 20.0871 3.76327 20.0783C3.71089 19.9901 3.65852 19.9108 3.61487 19.8227C3.59742 19.7963 3.58869 19.7698 3.57123 19.7522C3.52758 19.6729 3.48394 19.6024 3.44902 19.5231C3.43156 19.4967 3.42284 19.4702 3.40538 19.4438C3.36173 19.3645 3.31809 19.2763 3.28317 19.197C3.27444 19.1794 3.26571 19.153 3.25698 19.1354C3.15223 18.9239 3.05622 18.7212 2.96892 18.5009C2.9602 18.4744 2.95147 18.448 2.93401 18.4216C2.89909 18.3423 2.86418 18.263 2.83799 18.1836C2.82926 18.1484 2.8118 18.122 2.80307 18.0867C2.77689 18.0074 2.74197 17.9369 2.71578 17.8576C2.70705 17.8223 2.6896 17.7959 2.68087 17.7607C2.65468 17.6725 2.61976 17.5844 2.59358 17.4963C2.58485 17.4699 2.57612 17.4522 2.56739 17.4258C2.53247 17.3112 2.49756 17.2055 2.46264 17.0909C2.45391 17.0733 2.45391 17.0557 2.44518 17.0381C2.41899 16.9411 2.39281 16.853 2.36662 16.7561C2.35789 16.7208 2.34916 16.6856 2.34043 16.6503C2.32297 16.571 2.30552 16.4917 2.28806 16.4124C2.27933 16.3772 2.2706 16.3331 2.26187 16.2978C2.24441 16.2185 2.22696 16.1392 2.21823 16.0599C2.2095 16.0247 2.20077 15.9894 2.20077 15.9454C2.18331 15.8484 2.16585 15.7515 2.14839 15.6546C2.14839 15.6369 2.13966 15.6193 2.13966 15.6017C2.12221 15.4871 2.10475 15.3638 2.08729 15.2492C2.08729 15.214 2.07856 15.1875 2.07856 15.1523C2.06983 15.0642 2.0611 14.976 2.05237 14.8967C2.05237 14.8527 2.04365 14.8086 2.04365 14.7734C2.03492 14.694 2.03492 14.6147 2.02619 14.5354C2.02619 14.4914 2.01746 14.4473 2.01746 14.4032C2.00873 14.3239 2.00873 14.2358 2.00873 14.1565C2.00873 14.0596 2.00873 14.0155 2.00873 13.9803ZM20.8111 19.6641C20.3834 19.2587 20.0342 19.338 19.9382 20.0166C19.7549 21.3296 19.912 22.6778 20.3572 24.0261C20.4358 24.2552 20.5929 24.3521 20.8111 24.3345C21.1603 24.1318 21.5007 23.9203 21.8324 23.6824C21.8411 23.6736 21.8499 23.6736 21.8499 23.6648C21.9546 23.5855 22.0594 23.515 22.1641 23.4357C22.33 23.1008 22.3823 22.8364 22.3038 22.6514C21.9546 21.3736 21.4571 20.3779 20.8111 19.6641ZM10.7465 24.6341C10.86 22.7043 10.7116 21.0035 10.2839 19.5495C9.89979 18.9239 9.7514 19.1354 9.57682 19.7258C9.18401 22.246 9.3324 24.1671 9.85615 25.1364C10.0656 25.2157 10.2839 25.295 10.5021 25.3655C10.6418 25.2245 10.7203 24.9866 10.7465 24.6341ZM14.9801 25.9912C15.0674 25.9912 15.1547 25.9824 15.2332 25.9824C15.2769 25.9824 15.3205 25.9736 15.3554 25.9736C15.4427 25.9647 15.5213 25.9648 15.6086 25.9559C15.6435 25.9559 15.6872 25.9471 15.7221 25.9471C15.8355 25.9383 15.949 25.9207 16.0625 25.9119C16.0712 25.9119 16.08 25.9119 16.08 25.9119C16.2022 25.8943 16.3156 25.8766 16.4378 25.859C16.4728 25.8502 16.499 25.8502 16.5339 25.8414C16.6212 25.8238 16.7085 25.8149 16.7957 25.7973C16.8307 25.7885 16.8656 25.7797 16.9092 25.7797C16.9965 25.7621 17.0838 25.7444 17.1711 25.7268C17.206 25.718 17.2322 25.718 17.2671 25.7092C17.3806 25.6828 17.4941 25.6563 17.6075 25.6299C18.2186 25.2774 18.4193 24.9425 18.3932 24.6341C18.463 23.4974 18.1837 21.4353 17.7559 18.3951C17.398 15.8308 17.014 15.1787 15.8094 14.7117C14.9365 14.3856 14.2294 14.3592 13.662 14.6235C13.1295 14.9672 12.7367 16.1833 12.7105 17.5227C12.6233 22.0345 12.7716 24.4226 13.0684 24.9954C13.2256 25.4448 13.5223 25.7797 13.9501 25.9912C14.0374 25.9912 14.1334 26 14.2207 26C14.3167 26 14.404 26 14.5 26C14.6222 26 14.7444 26 14.8666 25.9912C14.9015 25.9912 14.9365 25.9912 14.9801 25.9912Z" stroke-width="1.5"/>
</svg>
