<svg width="20" height="27" viewBox="0 0 20 27" fill="none" xmlns="http://www.w3.org/2000/svg">
<path d="M18.6541 9.6529C18.6541 4.88397 14.7291 1 9.85417 1C4.97922 1 1.05425 4.88397 1.05425 9.6529C1.05425 9.6529 -0.195735 14.9381 9.30417 25.6804C9.30417 25.6804 9.62917 26 9.85417 26C10.0792 26 10.4042 25.6804 10.4042 25.6804C19.9041 14.9381 18.6541 9.6529 18.6541 9.6529ZM9.85417 14.766C6.9792 14.766 4.65422 12.4798 4.65422 9.6529C4.65422 6.82596 6.9792 4.53982 9.85417 4.53982C12.7291 4.53982 15.0541 6.82596 15.0541 9.6529C15.0541 12.4798 12.7291 14.766 9.85417 14.766Z" stroke-width="1.5"/>
</svg>
