<svg width="28" height="28" viewBox="0 0 28 28" fill="none" xmlns="http://www.w3.org/2000/svg">
<path d="M22.8651 9.91595C22.8651 5.00205 18.8932 1 13.96 1C9.02678 1 5.0549 5.00205 5.0549 9.91595C5.0549 9.91595 3.78997 15.3618 13.4034 26.4307C13.4034 26.4307 13.7323 26.76 13.96 26.76C14.1877 26.76 14.5166 26.4307 14.5166 26.4307C24.13 15.3618 22.8651 9.91595 22.8651 9.91595ZM13.96 15.1845C11.0507 15.1845 8.6979 12.8288 8.6979 9.91595C8.6979 7.00307 11.0507 4.64743 13.96 4.64743C16.8693 4.64743 19.2221 7.00307 19.2221 9.91595C19.2221 12.8288 16.8693 15.1845 13.96 15.1845Z" stroke-width="1.5"/>
</svg>
