<svg width="27" height="24" viewBox="0 0 27 24" fill="none" xmlns="http://www.w3.org/2000/svg">
<path d="M2.27402 20.614H1" stroke-width="1.5" stroke-miterlimit="10" stroke-linecap="round"/>
<path d="M6.1543 20.5593V11.9444" stroke-width="1.5" stroke-miterlimit="10" stroke-linejoin="round"/>
<path d="M12.4997 20.5592V13.349H9.11768V20.5592" stroke-width="1.5" stroke-miterlimit="10" stroke-linejoin="round"/>
<path d="M13.5642 1H13.5677L24.585 10.6732L23.2739 12.1591L13.5659 3.64047L3.85888 12.1591L2.54688 10.6732L13.5642 1Z" stroke-width="1.5" stroke-miterlimit="10" stroke-linecap="round" stroke-linejoin="round"/>
<path d="M8.29877 3.6228V2.23587H6.20752V5.57953" stroke-width="1.5" stroke-miterlimit="10"/>
<path d="M14.9444 20.614H4.11182" stroke-width="1.5" stroke-miterlimit="10" stroke-linecap="round" stroke-linejoin="round"/>
<path d="M18.3033 14.7624C18.7734 14.3844 19.3238 14.0911 19.9396 13.9162C22.3993 13.213 24.9632 14.637 25.6647 17.0964C26.3671 19.5558 24.942 22.1185 22.4832 22.8208C20.0244 23.5231 17.4614 22.0991 16.7581 19.6406C16.4162 18.4418 16.5787 17.2183 17.1212 16.1971" stroke-width="1.5" stroke-miterlimit="10" stroke-linecap="round" stroke-linejoin="round"/>
<path d="M18.7556 18.084L20.4131 20.379L23.4682 16.728" stroke-width="1.5" stroke-miterlimit="10" stroke-linecap="round" stroke-linejoin="round"/>
</svg>
