<svg width="25" height="27" viewBox="0 0 25 27" fill="none" xmlns="http://www.w3.org/2000/svg">
<path d="M6.45772 7.11275H1.23999V1.68787H4.18677" stroke-width="1.5" stroke-miterlimit="10" stroke-linecap="round" stroke-linejoin="round"/>
<path d="M3.10742 3.73201L4.4126 5.18247L7.55729 1.12" stroke-width="1.5" stroke-miterlimit="10" stroke-linecap="round" stroke-linejoin="round"/>
<path d="M6.45772 16.4369H1.23999V11.012H4.18677" stroke-width="1.5" stroke-miterlimit="10" stroke-linecap="round" stroke-linejoin="round"/>
<path d="M3.10742 13.0561L4.4126 14.5066L7.55729 10.4441" stroke-width="1.5" stroke-miterlimit="10" stroke-linecap="round" stroke-linejoin="round"/>
<path d="M6.45772 25.76H1.23999V20.3351H4.89923" stroke-width="1.5" stroke-miterlimit="10" stroke-linecap="round" stroke-linejoin="round"/>
<path d="M23.6021 7.17116L21.8922 5.57229C21.2658 4.98557 20.2733 5.01921 19.6875 5.6455L8.21206 17.9091L6.31714 23.9306L12.1998 21.6391L23.6743 9.37653C24.2611 8.74925 24.2274 7.75787 23.6021 7.17116Z" stroke-width="1.5" stroke-miterlimit="10" stroke-linejoin="round"/>
<path d="M19.7981 7.97458L22.3807 10.3897" stroke-width="1.5" stroke-miterlimit="10" stroke-linejoin="round"/>
<path d="M8.70581 17.7132L12.3611 21.1326" stroke-width="1.5" stroke-miterlimit="10" stroke-linejoin="round"/>
<path d="M7.59766 20.3252L9.82902 22.4129" stroke-width="1.5" stroke-miterlimit="10" stroke-linejoin="round"/>
<path d="M18.5733 10.832L10.5344 19.4229" stroke-width="1.5" stroke-miterlimit="10" stroke-linejoin="round"/>
</svg>
