<svg width="22" height="28" viewBox="0 0 22 28" fill="none" xmlns="http://www.w3.org/2000/svg">
<path d="M17.7816 24.5082C17.7816 24.5082 11.8573 19.9186 11.6002 19.7044C11.3432 19.4921 10.8154 19.5038 10.5067 19.7414C10.126 20.0354 4.22119 24.5073 4.22119 24.5073" stroke-width="1.5" stroke-miterlimit="10" stroke-linecap="round" stroke-linejoin="round"/>
<path d="M12.5165 20.2876L21.0037 13.5257V26.3737C21.0037 26.99 20.4895 27.4973 19.8634 27.4973H2.14123C1.51414 27.4973 1 26.99 1 26.3737V13.5257L9.48717 20.2876" stroke-width="1.5" stroke-miterlimit="10" stroke-linejoin="round"/>
<path d="M19.0135 12.9162V0.999985H2.98853V12.9162" stroke-width="1.5" stroke-miterlimit="10" stroke-linejoin="round"/>
<path d="M7.98657 8.74812L10.0236 11.5677L13.7774 7.08127" stroke-width="1.5" stroke-miterlimit="10" stroke-linecap="round" stroke-linejoin="round"/>
<path d="M8.29336 4.07958C9.09864 3.64436 10.0218 3.39609 11.0013 3.39609C14.1465 3.39609 16.6987 5.94699 16.6987 9.09279C16.6987 12.2376 14.1475 14.7885 11.0013 14.7885C7.85517 14.7885 5.30396 12.2376 5.30396 9.09279C5.30396 7.78618 5.74409 6.5818 6.48316 5.62083" stroke-width="1.5" stroke-miterlimit="10" stroke-linecap="round" stroke-linejoin="round"/>
</svg>
