<svg width="23" height="27" viewBox="0 0 23 27" fill="none" xmlns="http://www.w3.org/2000/svg">
<path d="M3.18579 1L1 3.18579V21.765H17.3934V1H3.18579Z" stroke-width="1.5" stroke-miterlimit="10" stroke-linecap="round" stroke-linejoin="round"/>
<path d="M2.94671 23.4932L2.85791 24.3811L19.4904 26L21.5874 4.38114L19.1694 4.1489" stroke-width="1.5" stroke-miterlimit="10" stroke-linecap="round" stroke-linejoin="round"/>
<path d="M4.31293 2.61203V4.25137L2.67358 4.24454" stroke-width="1.5" stroke-miterlimit="10" stroke-linecap="round" stroke-linejoin="round"/>
<path d="M13.5683 12.4754C13.5683 12.6803 13.5478 12.8784 13.5205 13.0765L14.5861 14.0669L13.2746 16.3415L11.8811 15.918C11.5669 16.1639 11.2117 16.3688 10.8361 16.526L10.5082 17.9399H7.88524L7.55737 16.526C7.18169 16.3757 6.8265 16.1639 6.51229 15.918L5.11885 16.3415L3.80737 14.0669L4.87295 13.0765C4.84562 12.8784 4.82513 12.6803 4.82513 12.4754C4.82513 12.2705 4.84562 12.0724 4.87295 11.8743L3.80737 10.8839L5.11885 8.60929L6.51229 9.03278C6.8265 8.78688 7.18169 8.58196 7.55737 8.42486L7.88524 7.01093H10.5082L10.8361 8.42486C11.2117 8.57513 11.5669 8.78688 11.8811 9.03278L13.2746 8.60929L14.5861 10.8839L13.5205 11.8743C13.5478 12.0724 13.5683 12.2705 13.5683 12.4754Z" stroke-width="1.5" stroke-miterlimit="10" stroke-linecap="round" stroke-linejoin="round"/>
<path d="M9.19672 14.1147C10.1021 14.1147 10.8361 13.3808 10.8361 12.4754C10.8361 11.57 10.1021 10.8361 9.19672 10.8361C8.29133 10.8361 7.55737 11.57 7.55737 12.4754C7.55737 13.3808 8.29133 14.1147 9.19672 14.1147Z" stroke-width="1.5" stroke-miterlimit="10" stroke-linecap="round" stroke-linejoin="round"/>
</svg>
