<svg width="22" height="21" viewBox="0 0 22 21" fill="none" xmlns="http://www.w3.org/2000/svg">
<path fill-rule="evenodd" clip-rule="evenodd" d="M5.57064 0.982623C5.22248 0.0893293 4.93234 0.0595529 4.38108 0.0297764C4.207 0.0297764 3.97489 0 3.77179 0C3.07546 0 2.3211 0.208435 1.8859 0.684858C1.33463 1.25061 0 2.59055 0 5.32998C0 8.06942 1.94392 10.7195 2.20505 11.0768C2.46617 11.4342 6.00585 17.1512 11.4604 19.444C15.7255 21.2604 17.0021 21.0817 17.9595 20.8733C19.3812 20.5457 21.151 19.4738 21.6153 18.1934C22.0505 16.8832 22.0505 15.7815 21.9344 15.5433C21.7893 15.3051 21.4412 15.186 20.8899 14.8882C20.3387 14.6202 17.6984 13.2505 17.1762 13.0719C16.6829 12.8932 16.2187 12.9528 15.8415 13.4887C15.3193 14.2331 14.797 15.0073 14.3908 15.454C14.0717 15.8113 13.5204 15.8708 13.0852 15.6624C12.4759 15.3944 10.7931 14.7989 8.73315 12.8932C7.13739 11.4342 6.03487 9.58801 5.71571 9.05204C5.39656 8.48629 5.6867 8.15874 5.94782 7.86098C6.20895 7.50366 6.47007 7.26545 6.76021 6.93791C7.02133 6.61037 7.19542 6.43171 7.3695 6.07439C7.54358 5.71708 7.42753 5.32998 7.28246 5.03222C7.10838 4.82378 6.03487 2.08435 5.57064 0.982623Z" fill="white"/>
</svg>
