<svg width="27" height="21" viewBox="0 0 27 21" fill="none" xmlns="http://www.w3.org/2000/svg">
<path d="M2.98901 3.10117H24.0112" stroke-width="1.5" stroke-miterlimit="10" stroke-linejoin="round"/>
<path d="M2.98901 5.04095H24.0112" stroke-width="1.5" stroke-miterlimit="10" stroke-linejoin="round"/>
<path d="M23.4148 7.35961C23.4148 7.46836 23.3271 7.55605 23.2184 7.55605C23.1097 7.55605 23.022 7.46836 23.022 7.35961C23.022 7.25087 23.1097 7.16318 23.2184 7.16318C23.3271 7.16318 23.4148 7.25087 23.4148 7.35961Z" fill="#2580D2" stroke-width="1.5" stroke-miterlimit="10"/>
<path d="M18.5564 14.4033V19.5071" stroke-width="1.5" stroke-miterlimit="10" stroke-linecap="round" stroke-linejoin="round"/>
<path d="M16.3464 15.6766L20.7662 18.2302" stroke-width="1.5" stroke-miterlimit="10" stroke-linecap="round" stroke-linejoin="round"/>
<path d="M20.7662 15.6766L16.3464 18.2302" stroke-width="1.5" stroke-miterlimit="10" stroke-linecap="round" stroke-linejoin="round"/>
<path d="M6.91075 14.3752L7.25451 15.9923C7.32116 16.315 7.18085 16.6728 6.93881 16.7815C6.69678 16.8903 6.55997 17.2446 6.64065 17.5673L7.12122 19.5386" stroke-width="1.5" stroke-miterlimit="10" stroke-linecap="round" stroke-linejoin="round"/>
<path d="M9.93785 14.3752L10.2816 15.9923C10.3518 16.315 10.208 16.6728 9.96591 16.7815C9.72388 16.8903 9.58707 17.2446 9.66775 17.5673L10.1483 19.5386" stroke-width="1.5" stroke-miterlimit="10" stroke-linecap="round" stroke-linejoin="round"/>
<path d="M12.965 14.3752L13.3087 15.9923C13.3789 16.315 13.235 16.6728 12.993 16.7815C12.751 16.8903 12.6142 17.2446 12.6949 17.5673L13.1754 19.5386" stroke-width="1.5" stroke-miterlimit="10" stroke-linecap="round" stroke-linejoin="round"/>
<path d="M21.9485 11.9513V9.89224C21.9485 9.50288 21.6293 9.18367 21.2399 9.18367H5.76007C5.3707 9.18367 5.05149 9.50288 5.05149 9.89224V11.9513H2.16108C1.63491 11.9513 1 11.3129 1 10.5342V2.41715C1 1.63842 1.63842 1 2.41715 1H24.5829C25.3616 1 26 1.63842 26 2.41715V10.5342C26 11.3129 25.3616 11.9513 24.3303 11.9513H21.9485Z" stroke-width="1.5" stroke-miterlimit="10"/>
<path d="M6.55298 11.9548H20.4438" stroke-width="1.5" stroke-miterlimit="10"/>
</svg>
