<svg width="27" height="19" viewBox="0 0 27 19" fill="none" xmlns="http://www.w3.org/2000/svg">
<path d="M20.5708 1C20.5708 1 18.6158 2.75308 18.4033 2.78496C17.8084 2.88058 15.1522 1.62686 14.6103 1.49936C14.0685 1.36124 8.71359 3.07182 8.30985 3.70931C7.91674 4.35742 9.49982 5.87675 11.0192 5.68551C12.5385 5.49426 14.8122 4.67616 15.4709 5.34552C16.544 6.41861 19.6571 9.69103 21.1339 10.9872C22.3664 12.0816 26 6.43986 26 6.43986" stroke="#2580D2" stroke-width="1.5" stroke-miterlimit="10" stroke-linecap="round" stroke-linejoin="round"/>
<path d="M14.0047 16.8521L12.241 15.0671" stroke="#2580D2" stroke-width="1.5" stroke-miterlimit="10" stroke-linecap="round" stroke-linejoin="round"/>
<path d="M16.9264 15.8852L13.8452 12.5597" stroke="#2580D2" stroke-width="1.5" stroke-miterlimit="10" stroke-linecap="round" stroke-linejoin="round"/>
<path d="M19.5721 14.3447L15.9172 10.541" stroke="#2580D2" stroke-width="1.5" stroke-miterlimit="10" stroke-linecap="round" stroke-linejoin="round"/>
<path d="M7.79972 16.8415C8.22471 17.2665 8.91532 17.2665 9.34031 16.8415L10.3072 15.8747C10.7215 15.4603 10.6153 14.7909 10.1372 14.3128C9.65905 13.8347 8.98969 13.7285 8.57533 14.1428C8.98969 13.7285 8.88344 13.0591 8.40533 12.581C7.92722 12.1029 7.25786 11.9966 6.84349 12.411C7.25786 11.9966 7.15161 11.3273 6.6735 10.8492C6.19539 10.371 5.52603 10.2648 5.11166 10.6792C5.52603 10.2648 5.41978 9.59544 4.94167 9.11732C4.46355 8.63921 3.7942 8.53296 3.37983 8.94733L2.41298 9.91418C1.98799 10.3392 1.98799 11.0298 2.41298 11.4548L7.79972 16.8415Z" stroke="#2580D2" stroke-width="1.5" stroke-miterlimit="10" stroke-linecap="round" stroke-linejoin="round"/>
<path d="M9.77612 16.3952L10.1161 16.7352L10.9448 17.564C12.2092 18.8283 13.3992 17.9039 14.0048 16.8521C15.1629 17.4471 16.4591 16.7883 16.9266 15.8852C18.3928 16.6077 19.6784 15.1096 19.5721 14.3447C21.1552 14.249 22.2283 12.4428 21.134 10.9872" stroke="#2580D2" stroke-width="1.5" stroke-miterlimit="10" stroke-linecap="round" stroke-linejoin="round"/>
<path d="M1 6.98172L2.1581 8.18231C2.28559 8.6073 2.57246 9.06417 2.86995 9.42541" stroke="#2580D2" stroke-width="1.5" stroke-miterlimit="10" stroke-linecap="round" stroke-linejoin="round"/>
<path d="M8.39489 3.62429L6.43994 1.66934" stroke="#2580D2" stroke-width="1.5" stroke-miterlimit="10" stroke-linecap="round" stroke-linejoin="round"/>
<path d="M5.09058 10.6685L3.39062 12.4322" stroke="#2580D2" stroke-width="1.5" stroke-miterlimit="10" stroke-linecap="round" stroke-linejoin="round"/>
<path d="M5.09058 10.6685L3.39062 12.4322" stroke="#2580D2" stroke-width="1.5" stroke-miterlimit="10" stroke-linecap="round" stroke-linejoin="round"/>
<path d="M6.8329 12.4004L5.12231 14.1641" stroke="#2580D2" stroke-width="1.5" stroke-miterlimit="10" stroke-linecap="round" stroke-linejoin="round"/>
<path d="M8.56483 14.1322L6.85425 15.8959" stroke="#2580D2" stroke-width="1.5" stroke-miterlimit="10" stroke-linecap="round" stroke-linejoin="round"/>
</svg>
