<svg width="27" height="27" viewBox="0 0 27 27" fill="none" xmlns="http://www.w3.org/2000/svg">
<path d="M25.4328 13.5046V16.3403H18.6179V10.0926H23.7313" stroke-width="1.5" stroke-miterlimit="10" stroke-linecap="round" stroke-linejoin="round"/>
<path d="M25.4328 19.7523H18.6179V26H25.4328V19.7523Z" stroke-width="1.5" stroke-miterlimit="10" stroke-linecap="round" stroke-linejoin="round"/>
<path d="M20.3193 12.9374L22.0208 14.6389L25.9999 10.0926" stroke-width="1.5" stroke-miterlimit="10" stroke-linecap="round" stroke-linejoin="round"/>
<path d="M25.4328 4.412V7.24771H18.6179V1H23.7313" stroke-width="1.5" stroke-miterlimit="10" stroke-linecap="round" stroke-linejoin="round"/>
<path d="M20.3193 3.84486L22.0208 5.54629L25.9999 1" stroke-width="1.5" stroke-miterlimit="10" stroke-linecap="round" stroke-linejoin="round"/>
<path d="M10.0927 12.3611C12.6357 12.3611 14.639 10.5042 14.639 7.81486V5.54629C14.639 2.85693 12.6357 1 10.0927 1C7.54968 1 5.54639 2.85693 5.54639 5.54629V7.81486C5.54639 10.5134 7.54968 12.3611 10.0927 12.3611Z" stroke-width="1.5" stroke-miterlimit="10" stroke-linecap="round" stroke-linejoin="round"/>
<path d="M16.3403 15.6085C14.3461 14.5748 11.7391 14.0717 10.0926 14.0717C7.10135 14.0717 1 15.7274 1 19.1851V23.7314" stroke-width="1.5" stroke-miterlimit="10" stroke-linecap="round" stroke-linejoin="round"/>
</svg>
