<svg width="27" height="27" viewBox="0 0 27 27" fill="none" xmlns="http://www.w3.org/2000/svg">
<path d="M26 4.7493C26 6.81936 22.9166 8.49857 19.1239 8.49857C15.3312 8.49857 12.2478 6.81936 12.2478 4.7493" stroke-width="1.5" stroke-miterlimit="10" stroke-linecap="round" stroke-linejoin="round"/>
<path d="M26 7.87613C26 9.94619 22.9166 11.6254 19.1239 11.6254C15.3312 11.6254 12.2478 9.94619 12.2478 7.87613" stroke-width="1.5" stroke-miterlimit="10" stroke-linecap="round" stroke-linejoin="round"/>
<path d="M25.9998 11.0029C25.9998 13.073 22.9164 14.7522 19.1237 14.7522C18.1394 14.7522 17.2129 14.6364 16.3733 14.4337" stroke-width="1.5" stroke-miterlimit="10" stroke-linecap="round" stroke-linejoin="round"/>
<path d="M25.9998 14.1297C25.9998 16.1997 22.9164 17.8789 19.1237 17.8789C18.1394 17.8789 17.2129 17.7631 16.3733 17.5605" stroke-width="1.5" stroke-miterlimit="10" stroke-linecap="round" stroke-linejoin="round"/>
<path d="M7.87609 12.2478C4.08338 12.2478 1 13.927 1 15.9971V22.2507C1 24.3208 4.08338 26 7.87609 26C11.6688 26 14.7522 24.3208 14.7522 22.2507V15.9971C14.7522 13.927 11.6688 12.2478 7.87609 12.2478Z" stroke-width="1.5" stroke-miterlimit="10" stroke-linecap="round" stroke-linejoin="round"/>
<path d="M14.7522 15.9971C14.7522 18.0672 11.6688 19.7464 7.87609 19.7464C4.08338 19.7464 1 18.0672 1 15.9971" stroke-width="1.5" stroke-miterlimit="10" stroke-linecap="round" stroke-linejoin="round"/>
<path d="M14.7522 19.1239C14.7522 21.1939 11.6688 22.8731 7.87609 22.8731C4.08338 22.8731 1 21.1939 1 19.1239" stroke-width="1.5" stroke-miterlimit="10" stroke-linecap="round" stroke-linejoin="round"/>
<path d="M16.3735 20.6873C17.2131 20.89 18.1395 21.0058 19.1239 21.0058C22.9166 21.0058 26 19.3266 26 17.2565V4.74928C26 2.67921 22.9166 1 19.1239 1C15.3312 1 12.2478 2.67921 12.2478 4.74928V11.0029" stroke-width="1.5" stroke-miterlimit="10" stroke-linecap="round" stroke-linejoin="round"/>
</svg>
