<svg width="75" height="30" viewBox="0 0 75 30" fill="none" xmlns="http://www.w3.org/2000/svg">
<path fill-rule="evenodd" clip-rule="evenodd" d="M33.9473 25.345L31.5347 10.5569H28.3841L28.6679 12.8277C28.5544 16.773 27.3338 20.321 25.205 22.9608L23.4736 10.5569H20.3514C19.3012 21.428 15.7248 24.1529 10.5873 25.4302C16.6047 25.6856 19.7269 22.5066 21.3732 18.4193L22.4518 25.5153C20.8055 26.6507 18.847 27.4171 16.6898 27.6157C9.36674 28.3537 2.07204 24.0394 0 17.0285C0.681217 24.2948 7.01086 30 14.6746 30C22.1112 30 28.2705 24.6354 29.264 17.7097L30.229 25.3734H33.9473V25.345ZM74.6784 17.8516C74.4514 15.3822 72.5212 14.4172 70.1938 14.5023C68.4056 14.5591 66.4187 15.4958 65.7091 17.7949L66.9296 18.1639C67.9798 15.5241 72.2658 15.6377 72.3509 18.3625V18.7883C71.84 18.5045 71.0737 18.3625 69.9667 18.3909C67.2702 18.3909 65.6523 20.0088 65.5388 21.9673C65.4252 23.9542 66.8161 25.5437 69.5409 25.5437C70.8466 25.5437 71.7265 25.1747 72.3226 24.607V25.3734H74.6501V17.8516H74.6784ZM70.5344 20.094C71.244 20.094 71.8968 20.1791 72.3509 20.5197V23.1878C71.9252 23.5001 71.2723 23.6987 70.3641 23.7555C68.9165 23.7555 67.923 22.9324 67.923 21.9389C67.923 20.9171 69.0868 20.094 70.5344 20.094ZM58.4711 14.5307C61.4799 14.5307 63.9209 16.8014 63.9209 20.094C63.9209 20.321 63.9209 20.5197 63.8925 20.7184H55.8882C56.3707 22.4498 57.6764 23.2446 59.8336 23.1878C61.3096 23.1311 62.1043 22.5066 62.5017 21.8822H63.7222C63.2964 23.9542 61.8488 25.5153 58.9253 25.5437C55.2637 25.5437 53.0214 23.1878 53.0214 20.094C53.0214 17.0285 55.4624 14.5307 58.4711 14.5307ZM58.6414 16.6311C60.1458 16.6311 60.8838 17.5394 61.2528 18.8167H56.0301C56.3991 17.5394 57.1371 16.6311 58.6414 16.6311ZM2.58295 19.6398C2.58295 19.6398 -0.681217 14.9848 2.1288 8.68358C3.88861 4.65304 7.06763 1.67272 11.4104 0.508972C18.5916 -1.42114 26.312 2.26878 28.8666 9.3648C28.8666 9.3648 24.7793 2.43909 15.5261 2.95C6.89732 3.43253 0.936674 11.2665 2.58295 19.6398ZM46.266 16.6595C47.1459 16.6595 47.969 17.0569 48.5367 17.7097V22.2512C47.969 22.8756 47.1743 23.273 46.266 23.273C44.5346 23.273 43.1438 21.797 43.1438 19.9804C43.1438 18.1355 44.563 16.6595 46.266 16.6595ZM48.5367 10.5002H51.29V25.345H48.5367V24.3516C47.6001 25.1747 46.4079 25.6856 45.159 25.6856C42.3206 25.6856 40.1918 23.1878 40.3621 20.094C40.5324 17.0001 42.6612 14.5023 45.8119 14.5023C46.8337 14.5023 47.7704 14.8429 48.5367 15.3822V10.5002ZM35.6504 14.4455H38.3469V25.345H35.6504V14.4455ZM35.6504 10.5002H38.3469V13.1966H35.6504V10.5002Z" fill="#C1CBD6"/>
</svg>
