<svg width="164" height="35" viewBox="0 0 164 35" fill="none" xmlns="http://www.w3.org/2000/svg">
<path d="M30.5782 4.2325C28.8585 2.49993 25.9393 2.26892 22.5288 3.29402C24.6965 2.94751 26.5029 3.29402 27.6735 4.46351C30.8673 7.66876 27.977 15.7685 21.2281 22.5544C14.4793 29.3403 6.42988 32.2423 3.23612 29.0371C1.0106 26.7992 1.74762 22.179 4.68126 17.2845C0.0423498 23.8683 -1.4317 30.452 1.5453 33.4407C5.33157 37.2523 14.9129 33.8016 22.919 25.7452C30.9395 17.6743 34.3645 8.04415 30.5782 4.2325Z" fill="#212121"/>
<path d="M32.442 3.90042C33.5114 5.22872 33.8294 7.01904 33.4825 9.08368C34.5664 6.03725 34.5086 3.36621 33.0345 1.70584C29.9853 -1.7593 21.9647 0.233154 14.5078 6.06613C22.037 1.3882 29.5373 0.305345 32.442 3.90042Z" fill="#2580D2"/>
<path d="M42.7464 23.9115C44.7551 23.9115 46.2725 24.2725 47.313 24.98C48.3535 25.6874 48.8738 26.727 48.8738 28.113C48.8738 29.1092 48.7148 30.0188 48.3824 30.8707C48.0501 31.7225 47.5153 32.4444 46.7928 33.0653C46.0702 33.6861 45.1309 34.1626 43.9747 34.4946C42.8186 34.8411 41.4313 35 39.7983 35H22.6011L27.0955 30.2498H41.0989C41.8648 30.2498 42.4284 30.1199 42.7897 29.86C43.1366 29.6001 43.31 29.2103 43.31 28.6761C43.31 27.9398 42.7319 27.5788 41.5758 27.5788H31.5032C29.4077 27.5788 27.8614 27.1745 26.8932 26.366C25.9105 25.5575 25.4336 24.4746 25.4336 23.1319C25.4336 22.1934 25.5925 21.3271 25.9249 20.5186C26.2573 19.7245 26.792 19.017 27.5146 18.4251C28.2371 17.8331 29.1765 17.3567 30.3181 17.039C31.4598 16.7069 32.8327 16.5481 34.4657 16.5481H50.5068L45.9546 21.3416H33.1362C32.3558 21.3416 31.8066 21.4571 31.4454 21.6881C31.0985 21.9191 30.9251 22.3089 30.9251 22.8576C30.9251 23.5506 31.5176 23.9115 32.6882 23.9115H42.7464Z" fill="#212121"/>
<path d="M5.7793 12.4333H13.8576L11.6755 26.7991L18.1208 22.8575L19.6093 12.4333H26.3726L27.6732 7.6254H9.73899L5.7793 12.4333Z" fill="white"/>
<path d="M91.8967 31.066C90.9118 30.5264 90.1176 29.7964 89.5458 28.8442C88.9739 27.892 88.688 26.8128 88.688 25.6067C88.688 24.4006 88.9739 23.3214 89.5458 22.3692C90.1176 21.417 90.9118 20.687 91.8967 20.1474C92.8815 19.6078 94.0252 19.3539 95.2642 19.3539C96.3126 19.3539 97.2657 19.5444 98.1235 19.8935C98.9813 20.2744 99.6802 20.7822 100.252 21.4805L98.4412 23.131C97.6152 22.1788 96.5986 21.7027 95.3913 21.7027C94.6289 21.7027 93.9617 21.8614 93.3898 22.2105C92.7862 22.5279 92.3415 23.004 92.0238 23.5753C91.7061 24.1784 91.5155 24.8449 91.5155 25.5749C91.5155 26.3367 91.6743 27.0032 92.0238 27.5746C92.3415 28.1776 92.818 28.622 93.3898 28.9394C93.9935 29.2568 94.6606 29.4472 95.3913 29.4472C96.5986 29.4472 97.6152 28.9711 98.4412 28.0189L100.252 29.6694C99.6802 30.3677 98.9495 30.9073 98.0917 31.2881C97.2339 31.669 96.2809 31.8277 95.2325 31.8277C93.9935 31.8594 92.8815 31.6055 91.8967 31.066Z" fill="#212121"/>
<path d="M111.435 29.4155V31.669H102.063V19.5761H111.213V21.8296H104.859V24.464H110.482V26.6541H104.859V29.4472H111.435V29.4155Z" fill="#212121"/>
<path d="M121.761 20.0839C122.555 20.4331 123.159 20.9409 123.572 21.6074C123.985 22.274 124.207 23.0357 124.207 23.9562C124.207 24.8449 123.985 25.6067 123.572 26.2732C123.159 26.9397 122.523 27.4476 121.761 27.7967C120.967 28.1459 120.045 28.3363 118.965 28.3363H116.519V31.669H113.723V19.5761H118.965C120.045 19.5443 120.967 19.7348 121.761 20.0839ZM120.712 25.4797C121.157 25.1306 121.38 24.591 121.38 23.9245C121.38 23.2579 121.157 22.7183 120.712 22.3692C120.268 22.0201 119.632 21.8296 118.806 21.8296H116.519V26.0193H118.806C119.632 26.0193 120.299 25.8606 120.712 25.4797Z" fill="#212121"/>
<path d="M136.152 26.4002C136.534 26.908 136.756 27.5111 136.756 28.2411C136.756 29.3202 136.343 30.1455 135.549 30.7485C134.723 31.3516 133.579 31.6373 132.054 31.6373H126.082V19.5443H131.736C133.134 19.5443 134.246 19.83 135.04 20.3696C135.835 20.9092 136.216 21.6709 136.216 22.6866C136.216 23.2897 136.057 23.8292 135.771 24.2736C135.485 24.718 135.04 25.0988 134.5 25.3527C135.199 25.5749 135.771 25.9241 136.152 26.4002ZM128.845 24.5592H131.451C132.054 24.5592 132.531 24.4323 132.848 24.1784C133.166 23.9245 133.325 23.5753 133.325 23.0675C133.325 22.5914 133.166 22.2422 132.848 21.9883C132.531 21.7344 132.086 21.6074 131.482 21.6074H128.877V24.5592H128.845ZM133.897 28.0189C133.897 27.0032 133.23 26.5271 131.927 26.5271H128.845V29.5742H131.927C133.261 29.5742 133.897 29.0663 133.897 28.0189Z" fill="#212121"/>
<path d="M138.979 19.5443H141.775V27.4158L147.557 19.5443H150.194V31.6373H147.43V23.7975L141.648 31.669H139.011V19.5443H138.979Z" fill="#212121"/>
<path d="M155.563 31.066C154.578 30.5264 153.784 29.7964 153.212 28.8442C152.64 27.892 152.354 26.8128 152.354 25.6067C152.354 24.4006 152.64 23.3214 153.212 22.3692C153.784 21.417 154.578 20.687 155.563 20.1474C156.548 19.6078 157.692 19.3539 158.931 19.3539C159.979 19.3539 160.932 19.5444 161.79 19.8935C162.648 20.2744 163.347 20.7822 163.919 21.4805L162.108 23.131C161.282 22.1788 160.265 21.7027 159.058 21.7027C158.295 21.7027 157.628 21.8614 157.056 22.2105C156.453 22.5279 156.008 23.004 155.69 23.5753C155.373 24.1784 155.182 24.8449 155.182 25.5749C155.182 26.3367 155.341 27.0032 155.69 27.5746C156.008 28.1776 156.485 28.622 157.056 28.9394C157.66 29.2568 158.327 29.4472 159.058 29.4472C160.265 29.4472 161.282 28.9711 162.108 28.0189L163.919 29.6694C163.347 30.3677 162.616 30.9073 161.758 31.2881C160.9 31.669 159.947 31.8277 158.899 31.8277C157.66 31.8594 156.548 31.6055 155.563 31.066Z" fill="#212121"/>
<path d="M68.7056 21.8296H64.8297V31.6373H62.0658V21.8296H58.1899V19.5443H68.7056V21.8296Z" fill="white"/>
<path d="M72.6765 31.066C71.6916 30.5264 70.8974 29.7964 70.3255 28.8442C69.7537 27.892 69.4678 26.8128 69.4678 25.6067C69.4678 24.4006 69.7537 23.3214 70.3255 22.3692C70.8974 21.417 71.6916 20.687 72.6765 20.1474C73.6613 19.6078 74.805 19.3539 76.044 19.3539C77.0924 19.3539 78.0455 19.5444 78.9033 19.8935C79.761 20.2744 80.46 20.7822 81.0318 21.4805L79.221 23.131C78.395 22.1788 77.3783 21.7027 76.1711 21.7027C75.4086 21.7027 74.7415 21.8614 74.1696 22.2105C73.566 22.5279 73.1212 23.004 72.8036 23.5753C72.4859 24.1784 72.2952 24.8449 72.2952 25.5749C72.2952 26.3367 72.4541 27.0032 72.8036 27.5746C73.1212 28.1776 73.5978 28.622 74.1696 28.9394C74.7733 29.2568 75.4404 29.4472 76.1711 29.4472C77.3783 29.4472 78.395 28.9711 79.221 28.0189L81.0318 29.6694C80.46 30.3677 79.7293 30.9073 78.8715 31.2881C78.0137 31.669 77.0606 31.8277 76.0123 31.8277C74.7733 31.8594 73.6613 31.6055 72.6765 31.066Z" fill="white"/>
<path d="M82.1436 25.7018H87.036V27.8602H82.1436V25.7018Z" fill="white"/>
</svg>
