<svg width="42" height="30" viewBox="0 0 42 30" fill="none" xmlns="http://www.w3.org/2000/svg">
<path d="M32.3132 1C32.3132 1 29.1853 3.80493 28.8453 3.85593C27.8933 4.00892 23.6434 2.00297 22.7765 1.79898C21.9095 1.57799 13.3417 4.31492 12.6957 5.33489C12.0667 6.37187 14.5997 8.8028 17.0306 8.49681C19.4615 8.19082 23.0995 6.88185 24.1534 7.95283C25.8704 9.66978 30.8513 14.9057 33.2142 16.9796C35.1862 18.7306 41 9.70378 41 9.70378" stroke="#2580D2" stroke-width="2" stroke-miterlimit="10" stroke-linecap="round" stroke-linejoin="round"/>
<path d="M21.8075 26.3634L18.9856 23.5074" stroke="#2580D2" stroke-width="2" stroke-miterlimit="10" stroke-linecap="round" stroke-linejoin="round"/>
<path d="M26.4824 24.8165L21.5525 19.4956" stroke="#2580D2" stroke-width="2" stroke-miterlimit="10" stroke-linecap="round" stroke-linejoin="round"/>
<path d="M30.7153 22.3515L24.8674 16.2656" stroke="#2580D2" stroke-width="2" stroke-miterlimit="10" stroke-linecap="round" stroke-linejoin="round"/>
<path d="M11.8797 26.3464C12.5597 27.0263 13.6647 27.0263 14.3447 26.3464L15.8916 24.7994C16.5546 24.1364 16.3846 23.0654 15.6197 22.3005C14.8547 21.5355 13.7837 21.3655 13.1207 22.0285C13.7837 21.3655 13.6137 20.2945 12.8487 19.5295C12.0837 18.7645 11.0128 18.5946 10.3498 19.2575C11.0128 18.5946 10.8428 17.5236 10.0778 16.7586C9.31281 15.9936 8.24184 15.8236 7.57886 16.4866C8.24184 15.8236 8.07184 14.7526 7.30686 13.9877C6.54188 13.2227 5.47091 13.0527 4.80793 13.7157L3.26096 15.2626C2.58098 15.9426 2.58098 17.0476 3.26096 17.7276L11.8797 26.3464Z" stroke="#2580D2" stroke-width="2" stroke-miterlimit="10" stroke-linecap="round" stroke-linejoin="round"/>
<path d="M15.0417 25.6324L15.5857 26.1764L16.9117 27.5023C18.9347 29.5253 20.8386 28.0463 21.8076 26.3634C23.6605 27.3154 25.7345 26.2614 26.4825 24.8164C28.8284 25.9724 30.8854 23.5754 30.7154 22.3515C33.2483 22.1985 34.9652 19.3086 33.2143 16.9796" stroke="#2580D2" stroke-width="2" stroke-miterlimit="10" stroke-linecap="round" stroke-linejoin="round"/>
<path d="M1 10.5708L2.85295 12.4918C3.05695 13.1717 3.51594 13.9027 3.99193 14.4807" stroke="#2580D2" stroke-width="2" stroke-miterlimit="10" stroke-linecap="round" stroke-linejoin="round"/>
<path d="M12.8318 5.19884L9.70386 2.07092" stroke="#2580D2" stroke-width="2" stroke-miterlimit="10" stroke-linecap="round" stroke-linejoin="round"/>
<path d="M7.54488 16.4696L4.82495 19.2915" stroke="#2580D2" stroke-width="2" stroke-miterlimit="10" stroke-linecap="round" stroke-linejoin="round"/>
<path d="M7.54488 16.4696L4.82495 19.2915" stroke="#2580D2" stroke-width="2" stroke-miterlimit="10" stroke-linecap="round" stroke-linejoin="round"/>
<path d="M10.3329 19.2406L7.59595 22.0625" stroke="#2580D2" stroke-width="2" stroke-miterlimit="10" stroke-linecap="round" stroke-linejoin="round"/>
<path d="M13.1036 22.0115L10.3667 24.8334" stroke="#2580D2" stroke-width="2" stroke-miterlimit="10" stroke-linecap="round" stroke-linejoin="round"/>
</svg>
