<svg width="41" height="42" viewBox="0 0 41 42" fill="none" xmlns="http://www.w3.org/2000/svg">
<path d="M16.6522 21.8695L10.5653 27.9565L7.9566 25.3478L5.3479 27.9565L10.5653 33.1739L19.2609 24.4782L16.6522 21.8695Z" stroke="#2580D2" stroke-width="2" stroke-miterlimit="10" stroke-linecap="round" stroke-linejoin="round"/>
<path d="M29.6957 33.1739V41H1V1H29.6957V14.913" stroke="#2580D2" stroke-width="2" stroke-miterlimit="10" stroke-linecap="round" stroke-linejoin="round"/>
<path d="M7.08691 8.82605H22.7391" stroke="#2580D2" stroke-width="2" stroke-miterlimit="10" stroke-linecap="round" stroke-linejoin="round"/>
<path d="M7.08691 12.3043H22.7391" stroke="#2580D2" stroke-width="2" stroke-miterlimit="10" stroke-linecap="round" stroke-linejoin="round"/>
<path d="M7.08691 15.7826H16.6521" stroke="#2580D2" stroke-width="2" stroke-miterlimit="10" stroke-linecap="round" stroke-linejoin="round"/>
<path d="M16.5107 37.2717C17.2281 34.163 18.8042 31.3261 21.0542 29.0761L34.902 15.2283C35.7064 14.4239 37.0216 14.4239 37.826 15.2283L38.5542 15.9565C39.3586 16.7609 39.3586 18.0761 38.5542 18.8804L24.7064 32.7283C22.4564 34.9783 19.6194 36.5544 16.5107 37.2717Z" stroke="#2580D2" stroke-width="2" stroke-miterlimit="10" stroke-linecap="round" stroke-linejoin="round"/>
<path d="M32.7173 17.4131L37.0977 21.7935C37.9021 22.5979 37.9021 23.9131 37.0977 24.7174L32.7173 29.0979" stroke="#2580D2" stroke-width="2" stroke-miterlimit="10" stroke-linecap="round" stroke-linejoin="round"/>
<path d="M24.5979 25.5217L28.2501 29.1739" stroke="#2580D2" stroke-width="2" stroke-miterlimit="10" stroke-linecap="round" stroke-linejoin="round"/>
</svg>
