<svg width="32" height="30" viewBox="0 0 32 30" fill="none" xmlns="http://www.w3.org/2000/svg">
<path d="M10.0239 11.4353C8.83504 9.71807 5.13648 8.66134 4.71378 9.20292C4.40997 9.58598 5.36103 11.2503 6.00828 12.3731C5.08364 13.0072 4.33072 13.9054 3.85519 14.9753C3.28719 15.2395 2.56069 15.3848 1.51717 15.3716C0.605735 15.3716 1.01522 17.8813 1.8474 19.4664C2.61353 20.9194 7.52733 23.9047 8.17458 24.0104V28.3694H10.1295L11.4372 25.7672C12.6525 26.137 14.6339 26.4144 16.0076 26.4144C17.5267 26.4144 19.0589 26.2691 20.5516 25.82L21.8725 28.3694H23.8274L24.686 23.3763C26.2975 21.8309 27.0901 19.7306 27.0901 17.2869C27.0901 12.3995 21.463 8.80664 15.4 8.80664C12.8506 8.80664 10.6579 9.54635 8.94071 10.3917" stroke="#2580D2" stroke-width="1.5" stroke-miterlimit="10" stroke-linecap="round" stroke-linejoin="round"/>
<path d="M24.4746 17.3002C24.4746 14.5527 20.7232 11.4353 16.6548 11.4353" stroke="#2580D2" stroke-width="1.5" stroke-miterlimit="10" stroke-linecap="round" stroke-linejoin="round"/>
<path d="M6.88013 15.3452H8.17462" stroke="#2580D2" stroke-width="1.5" stroke-miterlimit="10" stroke-linecap="round" stroke-linejoin="round"/>
<path d="M12.4279 7.52532C11.8203 6.82524 11.4373 5.9138 11.4373 4.90991C11.4373 2.75682 13.1941 1 15.3472 1C17.5135 1 19.2571 2.75682 19.2571 4.90991C19.2571 5.9138 18.874 6.82524 18.2664 7.51211" stroke="#2580D2" stroke-width="1.5" stroke-miterlimit="10" stroke-linecap="round" stroke-linejoin="round"/>
<path d="M27.0901 17.3L28.2789 16.5075C28.662 16.2433 29.1903 16.4282 29.3356 16.8773C29.5074 17.3793 30.1282 17.5246 30.4981 17.1547L31 16.6528" stroke="#2580D2" stroke-width="1.5" stroke-miterlimit="10" stroke-linecap="round" stroke-linejoin="round"/>
</svg>
