<svg width="102" height="43" viewBox="0 0 102 43" fill="none" xmlns="http://www.w3.org/2000/svg">
<path d="M58.5661 25.198C56.7601 25.198 55.0401 24.596 53.9221 24.08L53.0621 27.52C54.0941 28.122 56.2441 28.638 58.3081 28.638C63.3821 28.638 65.7901 25.972 65.7901 22.876C65.7901 20.296 64.2421 18.576 60.9741 17.372C58.5661 16.426 57.5341 15.91 57.5341 14.792C57.5341 13.846 58.3941 12.986 60.2001 12.986C62.0061 12.986 63.3821 13.502 64.0701 13.846L65.0161 10.492C63.8981 9.976 62.3501 9.546 60.2861 9.546C55.9001 9.546 53.2341 11.954 53.2341 15.136C53.2341 17.802 55.2121 19.522 58.3081 20.64C60.5441 21.414 61.4041 22.102 61.4041 23.22C61.4901 24.424 60.4581 25.198 58.5661 25.198ZM81.0981 24.94H73.4441V20.554H80.2381V17.114H73.4441V13.244H80.6681V9.804H69.2301V28.38H81.0981V24.94ZM101.48 18.92C101.48 13.76 98.3841 9.546 92.6221 9.546C87.1181 9.546 83.5921 13.674 83.5921 19.264C83.5921 24.51 86.7741 28.724 92.3641 28.724C97.7821 28.724 101.48 25.026 101.48 18.92ZM92.6221 25.37C89.7841 25.37 88.0641 22.79 88.0641 19.178C88.0641 15.566 89.6981 12.9 92.5361 12.9C95.4601 12.9 97.0081 15.738 97.0081 19.092C97.0081 22.618 95.4601 25.37 92.6221 25.37ZM41.2801 4.3L49.2781 9.288L49.1921 4.988L41.1941 0L33.4541 5.074L33.5401 9.374L41.2801 4.3ZM41.4521 34.056L33.4541 29.068L33.5401 33.368L41.5381 38.356L49.2781 33.282L49.1921 28.982L41.4521 34.056Z" fill="white"/>
<path d="M58.5661 38.958H60.1141V41.022C59.9421 41.108 59.5121 41.194 58.9961 41.194C57.1901 41.194 55.9001 39.99 55.9001 38.012C55.9001 35.862 57.2761 34.83 59.1681 34.83C60.2861 34.83 60.8881 35.002 61.4901 35.26L61.9201 33.454C61.4041 33.196 60.4581 32.938 59.1681 32.938C55.9861 32.938 53.5781 34.83 53.5781 38.098C53.5781 39.56 54.0941 40.85 54.9541 41.624C55.9001 42.484 57.1901 42.914 58.9101 42.914C60.2001 42.914 61.4901 42.57 62.1781 42.398V37.238H58.4801L58.5661 38.958Z" fill="white"/>
<path d="M69.4883 38.27C70.3483 37.926 71.2083 37.066 71.2083 35.776C71.2083 34.916 70.8642 34.228 70.2622 33.712C69.5742 33.196 68.5423 32.938 67.0803 32.938C65.8763 32.938 64.8442 33.024 64.1562 33.11V42.828H66.3922V38.958H67.0803C68.0263 38.958 68.3703 39.302 68.6283 40.506C68.8863 41.71 69.1442 42.484 69.3162 42.828H71.5522C71.3802 42.484 71.0363 41.194 70.7783 40.076C70.6063 39.13 70.1763 38.528 69.4883 38.27ZM67.2522 37.41H66.3922V34.744C66.5642 34.744 66.8223 34.658 67.4243 34.658C68.4563 34.658 69.0583 35.088 69.0583 36.034C69.0583 36.808 68.3702 37.41 67.2522 37.41Z" fill="white"/>
<path d="M77.4859 32.8521C74.5619 32.8521 72.6699 35.0881 72.6699 38.0121C72.6699 40.8501 74.3899 43.0001 77.3139 43.0001C80.1519 43.0001 82.1299 41.022 82.1299 37.8401C82.1299 35.0881 80.4959 32.8521 77.4859 32.8521ZM77.3999 41.1941C75.9379 41.1941 74.9919 39.818 74.9919 37.926C74.9919 36.034 75.8519 34.5721 77.3999 34.5721C78.9479 34.5721 79.8079 36.1201 79.8079 37.8401C79.8079 39.8181 78.9479 41.1941 77.3999 41.1941Z" fill="white"/>
<path d="M89.6981 38.7004C89.6981 40.4204 89.0961 41.2804 87.8921 41.2804C86.7741 41.2804 86.0861 40.4204 86.0861 38.7004V33.0244H83.8501V38.5284C83.8501 41.6244 85.3121 43.0004 87.8061 43.0004C90.3861 43.0004 91.9341 41.5384 91.9341 38.5284V33.0244H89.6981V38.7004Z" fill="white"/>
<path d="M100.104 33.712C99.416 33.196 98.47 32.938 97.094 32.938C95.718 32.938 94.772 33.024 94.084 33.11V42.828H96.32V39.302C96.492 39.302 96.75 39.388 97.094 39.388C98.384 39.388 99.502 39.044 100.276 38.356C100.878 37.84 101.222 36.98 101.222 36.034C101.222 35.088 100.792 34.228 100.104 33.712ZM97.094 37.668C96.75 37.668 96.578 37.668 96.32 37.582V34.658C96.492 34.572 96.75 34.572 97.266 34.572C98.384 34.572 98.986 35.088 98.986 36.034C98.986 37.066 98.298 37.668 97.094 37.668Z" fill="white"/>
<path d="M11.352 11.1807C10.148 10.1487 8.256 9.71875 5.676 9.71875C3.096 9.71875 1.29 9.89075 0 10.0627V28.3808H4.128V21.7587C4.472 21.8447 4.988 21.8447 5.59 21.8447C8.084 21.8447 10.234 21.2428 11.61 19.8668C12.728 18.8348 13.33 17.2867 13.33 15.4808C13.33 13.6748 12.556 12.1267 11.352 11.1807ZM5.59 18.5768C4.988 18.5768 4.558 18.5767 4.214 18.4908V12.9868C4.558 12.9008 5.074 12.8147 5.934 12.8147C7.998 12.8147 9.202 13.8468 9.202 15.5668C9.202 17.4588 7.826 18.5768 5.59 18.5768Z" fill="white"/>
<path d="M26.5737 19.6947C28.2077 19.0068 29.8417 17.3727 29.8417 15.0507C29.8417 13.3307 29.2397 12.0407 28.1217 11.1807C26.8317 10.1487 24.8537 9.71875 22.1017 9.71875C19.8657 9.71875 17.8877 9.89075 16.5117 10.0627V28.3808H20.6397V21.0708H21.9297C23.6497 21.0708 24.4237 21.7588 24.9397 24.0808C25.4557 26.4028 25.9717 27.8648 26.2297 28.3808H30.5297C30.1857 27.6928 29.5837 25.2847 28.9817 23.1347C28.6377 21.4148 27.8637 20.2107 26.5737 19.6947ZM22.3597 18.0608H20.7257V12.9007C21.0697 12.8147 21.5857 12.7287 22.6177 12.7287C24.5097 12.7287 25.7137 13.5887 25.7137 15.3087C25.7137 17.0287 24.5097 18.0608 22.3597 18.0608Z" fill="white"/>
<path d="M41.6242 9.54639C36.1202 9.54639 32.5942 13.6744 32.5942 19.2644C32.5942 24.5104 35.7762 28.7244 41.3662 28.7244C46.7842 28.7244 50.4822 25.0264 50.4822 18.9204C50.4822 13.7604 47.3862 9.54639 41.6242 9.54639ZM41.5382 25.3704C38.7002 25.3704 36.9802 22.7904 36.9802 19.1784C36.9802 15.5664 38.6142 12.9004 41.4522 12.9004C44.3762 12.9004 45.9242 15.7384 45.9242 19.0924C46.0102 22.6184 44.3762 25.3704 41.5382 25.3704Z" fill="white"/>
</svg>
