<svg width="200" height="30" viewBox="0 0 200 30" fill="none" xmlns="http://www.w3.org/2000/svg">
<path d="M21.4036 13.3825C21.0707 15.7704 20.3819 17.8311 19.3372 19.5646C18.304 21.2866 16.9838 22.6699 15.3766 23.7146L18.7345 27.0381L14.8255 30L10.3827 25.6777C9.73984 25.7351 9.25768 25.7581 8.93623 25.7466C7.24865 25.7351 5.7505 25.3505 4.44176 24.5929C3.14451 23.8352 2.11704 22.7446 1.35935 21.321C0.601663 19.8975 0.159678 18.2673 0.0333967 16.4305C-0.0584443 15.0873 0.0391368 13.5605 0.32614 11.8499C0.613143 10.1279 1.12401 8.52069 1.85874 7.02827C2.96083 4.78965 4.45324 3.05041 6.33598 1.81056C8.21872 0.559224 10.3368 -0.0434822 12.6902 0.00243826C14.3893 0.0368786 15.8817 0.432943 17.1675 1.19063C18.4533 1.93684 19.4807 3.03319 20.2499 4.47969C21.0305 5.9147 21.484 7.5334 21.6103 9.33578C21.6792 10.3345 21.6505 11.3505 21.5242 12.3838L21.4036 13.3825ZM15.7038 9.19802C15.6119 7.69412 15.2847 6.58629 14.7222 5.87452C14.1712 5.16275 13.379 4.77817 12.3458 4.72077C10.6812 4.66337 9.32656 5.31774 8.28187 6.68387C7.23717 8.05 6.53689 10.0762 6.181 12.7626C5.96288 14.3698 5.88252 15.6441 5.93992 16.5855C6.05472 19.4899 7.17977 20.9824 9.31508 21.0627C10.8649 21.1431 12.1621 20.5404 13.2068 19.2546C14.263 17.9573 14.9863 16.0402 15.3766 13.5031C15.6406 11.7236 15.7497 10.2886 15.7038 9.19802Z" fill="#C1CBD6"/>
<path d="M52.9786 0.346842L50.1889 16.706C49.7871 19.5416 48.6161 21.7745 46.676 23.4047C44.7473 25.0348 42.3135 25.827 39.3746 25.7811C37.5493 25.7466 35.965 25.3563 34.6219 24.6101C33.2787 23.8524 32.2857 22.7905 31.6428 21.4243C31.0114 20.0467 30.799 18.4797 31.0056 16.7232L33.7953 0.346842H39.719L36.9466 16.7405C36.8777 17.3145 36.8662 17.8598 36.9121 18.3764C36.9695 19.2259 37.2336 19.886 37.7043 20.3567C38.1864 20.8274 38.8638 21.0799 39.7363 21.1144C42.2619 21.1947 43.783 19.731 44.2996 16.7232L47.0893 0.346842H52.9786Z" fill="#C1CBD6"/>
<path d="M73.7565 20.7355H65.7491L63.5277 25.4194H57.0357L70.3124 0.346842H75.8573L80.4895 25.4194H74.3592L73.7565 20.7355ZM67.9532 16.0689H73.1537L72.0517 7.42434L67.9532 16.0689Z" fill="#C1CBD6"/>
<path d="M109.912 25.4194H104.212L98.2194 9.59408L95.4642 25.4194H89.5749L93.9144 0.346842H99.6659L105.641 16.1722L108.379 0.346842H114.269L109.912 25.4194Z" fill="#C1CBD6"/>
<path d="M142.985 5.01351H135.684L132.154 25.4194H126.247L129.794 5.01351H122.614L123.44 0.346842H143.794L142.985 5.01351Z" fill="#C1CBD6"/>
<path d="M166.07 14.7946H156.858L155.807 20.77H166.708L165.898 25.4194H149.109L153.448 0.346842H170.272L169.463 5.01351H158.545L157.615 10.3001H166.845L166.07 14.7946Z" fill="#C1CBD6"/>
<path d="M187.227 8.64697L192.497 0.346842H199.488L190.568 13.0209L195.476 25.4194H188.949L186.194 16.9643L180.787 25.4194H173.744L182.87 12.5387L178.118 0.346842H184.575L187.227 8.64697Z" fill="#C1CBD6"/>
</svg>
