<svg width="24" height="32" viewBox="0 0 24 32" fill="none" xmlns="http://www.w3.org/2000/svg">
<path d="M8.87085 12.087L10.8386 14.0435L14.774 9.47827" stroke="#2580D2" stroke-width="1.5" stroke-miterlimit="10" stroke-linecap="round" stroke-linejoin="round"/>
<path d="M14.3722 2.05163C15.0527 2.72826 15.9627 3.10326 16.922 3.10326C18.9143 3.10326 20.5294 4.70924 20.5294 6.69022C20.5294 7.64402 20.9066 8.55707 21.5871 9.22554C22.9973 10.6277 22.9973 12.894 21.5871 14.2962C20.9066 14.9728 20.5294 15.8777 20.5294 16.8315C20.5294 18.8125 18.9143 20.4185 16.922 20.4185C15.9627 20.4185 15.0445 20.7935 14.3722 21.4701C12.962 22.8723 10.6827 22.8723 9.27255 21.4701C8.59205 20.7935 7.68199 20.4185 6.72273 20.4185C4.73044 20.4185 3.11528 18.8125 3.11528 16.8315C3.11528 15.8777 2.73814 14.9647 2.05764 14.2962C0.647453 12.894 0.647453 10.6277 2.05764 9.22554C2.73814 8.54891 3.11528 7.64402 3.11528 6.69022C3.11528 4.70924 4.73044 3.10326 6.72273 3.10326C7.68199 3.10326 8.60025 2.72826 9.27255 2.05163C10.6827 0.649456 12.962 0.649456 14.3722 2.05163Z" stroke="#2580D2" stroke-width="1.5" stroke-miterlimit="10" stroke-linecap="round" stroke-linejoin="round"/>
<path d="M16.3564 20.4674L20.7181 28.5299L17.25 27.625L16.1022 31L12.5439 24.4294" stroke="#2580D2" stroke-width="1.5" stroke-miterlimit="10" stroke-linecap="round" stroke-linejoin="round"/>
<path d="M8.1412 20.7119L3.91064 28.5298L7.37872 27.625L8.52655 31L10.896 26.6304" stroke="#2580D2" stroke-width="1.5" stroke-miterlimit="10" stroke-linecap="round" stroke-linejoin="round"/>
<path d="M11.8224 17.9565C15.2637 17.9565 18.0534 15.1826 18.0534 11.7608C18.0534 8.33907 15.2637 5.56519 11.8224 5.56519C8.38105 5.56519 5.59131 8.33907 5.59131 11.7608C5.59131 15.1826 8.38105 17.9565 11.8224 17.9565Z" stroke="#2580D2" stroke-width="1.5" stroke-miterlimit="10" stroke-linecap="round" stroke-linejoin="round"/>
</svg>
