<svg width="20" height="20" viewBox="0 0 20 20" fill="none" xmlns="http://www.w3.org/2000/svg">
<path d="M10 0C4.5 0 0 4.5 0 10C0 15.5 4.5 20 10 20C15.5 20 20 15.5 20 10C20 4.5 15.5 0 10 0ZM13.6667 13.9167L13.3333 14.25C13.0833 14.5 12.6667 14.5 12.4167 14.25L8.66667 10.9167C8.41667 10.6667 8.25 10.25 8.25 9.83333L8.58333 3.91667C8.58333 3.58333 8.91667 3.33333 9.25 3.33333H9.66667C10 3.33333 10.3333 3.58333 10.3333 3.91667L10.5833 8.83333C10.5833 9.16667 10.8333 9.66667 11 9.91667L13.5833 12.9167C13.9167 13.25 13.9167 13.6667 13.6667 13.9167Z" fill="#2580D2"/>
</svg>
