<svg width="30" height="30" viewBox="0 0 30 30" fill="none" xmlns="http://www.w3.org/2000/svg">
<path d="M5.48021 24.7294C2.38886 26.4767 1 24.2814 1 24.2814C3.1953 22.3997 2.97129 21.1901 3.01609 19.7564C3.1057 18.2331 2.92649 17.8747 2.47847 15.7242C0.820792 2.73161 15.4711 3.00042 15.4711 3.00042H15.9191C15.9191 3.00042 25.5963 3.09003 26.4924 11.5128L26.582 12.2297C26.806 13.8873 26.8508 14.2009 26.8956 15.6794C26.9852 17.5163 26.582 18.2779 26.4476 19.7116C26.358 21.1453 26.2236 22.3549 28.3741 24.2366C28.3741 24.2366 26.9852 26.4319 23.8939 24.6846" stroke="#2580D2" stroke-width="1.5" stroke-miterlimit="10" stroke-linecap="round" stroke-linejoin="round"/>
<path d="M16.5015 23.475C23.4906 23.475 23.9834 17.7403 23.9834 17.7403C23.9834 17.7403 24.0282 16.5307 23.4458 15.9034" stroke="#2580D2" stroke-width="1.5" stroke-miterlimit="10" stroke-linecap="round" stroke-linejoin="round"/>
<path d="M15.964 23.5197C15.964 23.9229 15.4264 24.2813 14.7991 24.2813C14.1719 24.2813 13.6343 23.9229 13.6343 23.5197C13.6343 23.1165 14.1719 22.7581 14.7991 22.7581C15.4264 22.7581 15.964 23.1165 15.964 23.5197Z" fill="#2580D2" stroke="#2580D2" stroke-width="1.5" stroke-miterlimit="10"/>
<path d="M6.95876 14.1563C6.95876 14.1563 13.2759 15.5003 15.74 9.18323C16.0984 8.28719 16.1432 8.19759 17.0392 9.09363C19.1449 11.2889 22.5947 12.2746 22.5947 12.2746L22.8187 12.3642C22.8187 12.3642 23.5803 15.2315 23.1323 18.1885C23.1323 18.1885 21.5642 28.0001 14.7543 28.0001H14.5751C7.81 28.0001 6.60034 18.1885 6.60034 18.1885" stroke="#2580D2" stroke-width="1.5" stroke-miterlimit="10" stroke-linecap="round" stroke-linejoin="round"/>
<path d="M11.7525 16.8891C11.7525 17.0683 11.6181 17.2475 11.3941 17.2475C11.2149 17.2475 11.0356 17.1131 11.0356 16.8891C11.0356 16.7098 11.1701 16.5306 11.3941 16.5306C11.5733 16.5306 11.7525 16.7098 11.7525 16.8891Z" fill="#2580D2" stroke="#2580D2" stroke-width="1.5" stroke-miterlimit="10"/>
<path d="M18.5625 16.8891C18.5625 17.0683 18.4281 17.2475 18.2041 17.2475C18.0249 17.2475 17.8457 17.1131 17.8457 16.8891C17.8457 16.7098 17.9801 16.5306 18.2041 16.5306C18.3833 16.5306 18.5625 16.7098 18.5625 16.8891Z" fill="#2580D2" stroke="#2580D2" stroke-width="1.5" stroke-miterlimit="10"/>
</svg>
